<svg xmlns="http://www.w3.org/2000/svg" xmlns:xlink="http://www.w3.org/1999/xlink" width="940" zoomAndPan="magnify" viewBox="0 0 705 591.000005" height="788" preserveAspectRatio="xMidYMid meet" version="1.0"><defs><clipPath id="29946bea06"><path d="M 0.59375 392 L 704.402344 392 L 704.402344 549.140625 L 0.59375 549.140625 Z M 0.59375 392 " clip-rule="nonzero"/></clipPath><clipPath id="f2cc96f2d6"><path d="M 0.59375 216 L 704.402344 216 L 704.402344 393 L 0.59375 393 Z M 0.59375 216 " clip-rule="nonzero"/></clipPath><clipPath id="17135b13c6"><path d="M 0.59375 40.75 L 704.402344 40.75 L 704.402344 217 L 0.59375 217 Z M 0.59375 40.75 " clip-rule="nonzero"/></clipPath></defs><g clip-path="url(#29946bea06)"><path fill="#ffcd05" d="M 0.59375 470.859375 C 0.59375 514.039062 35.609375 549.046875 78.796875 549.046875 L 626.203125 549.046875 C 669.390625 549.046875 704.40625 514.039062 704.40625 470.859375 L 704.40625 392.675781 L 0.59375 392.675781 Z M 0.59375 470.859375 " fill-opacity="1" fill-rule="nonzero"/></g><g clip-path="url(#f2cc96f2d6)"><path fill="#ed1f24" d="M 0.59375 216.761719 L 704.40625 216.761719 L 704.40625 392.675781 L 0.59375 392.675781 Z M 0.59375 216.761719 " fill-opacity="1" fill-rule="nonzero"/></g><g clip-path="url(#17135b13c6)"><path fill="#141414" d="M 626.203125 40.84375 L 78.796875 40.84375 C 35.609375 40.84375 0.59375 75.851562 0.59375 119.027344 L 0.59375 216.761719 L 704.40625 216.761719 L 704.40625 119.027344 C 704.40625 75.851562 669.390625 40.84375 626.203125 40.84375 Z M 626.203125 40.84375 " fill-opacity="1" fill-rule="nonzero"/></g></svg>