<svg xmlns="http://www.w3.org/2000/svg" xmlns:xlink="http://www.w3.org/1999/xlink" width="940" zoomAndPan="magnify" viewBox="0 0 705 591.000005" height="788" preserveAspectRatio="xMidYMid meet" version="1.0"><defs><clipPath id="0dee9e1a8b"><path d="M 0.59375 40.75 L 704.402344 40.75 L 704.402344 549.140625 L 0.59375 549.140625 Z M 0.59375 40.75 " clip-rule="nonzero"/></clipPath></defs><g clip-path="url(#0dee9e1a8b)"><path fill="#e30917" d="M 704.40625 470.859375 C 704.40625 514.039062 669.390625 549.046875 626.203125 549.046875 L 78.796875 549.046875 C 35.609375 549.046875 0.59375 514.039062 0.59375 470.859375 L 0.59375 119.027344 C 0.59375 75.851562 35.609375 40.84375 78.796875 40.84375 L 626.203125 40.84375 C 669.390625 40.84375 704.40625 75.851562 704.40625 119.027344 Z M 704.40625 470.859375 " fill-opacity="1" fill-rule="nonzero"/></g><path fill="#eeeeee" d="M 313.398438 412.222656 C 248.609375 412.222656 196.097656 359.742188 196.097656 294.945312 C 196.097656 230.167969 248.609375 177.667969 313.398438 177.667969 C 339.011719 177.667969 362.667969 185.976562 381.960938 199.910156 C 355.609375 170.121094 317.210938 151.222656 274.300781 151.222656 C 194.90625 151.222656 130.546875 215.566406 130.546875 294.945312 C 130.546875 374.339844 194.90625 438.6875 274.300781 438.6875 C 317.210938 438.6875 355.628906 419.785156 381.960938 389.976562 C 362.6875 403.914062 339.050781 412.222656 313.398438 412.222656 Z M 389.898438 299.441406 L 437.601562 310.425781 L 441.902344 359.152344 L 467.085938 317.207031 L 514.785156 328.171875 L 482.644531 291.269531 L 507.808594 249.304688 L 462.78125 268.460938 L 430.640625 231.535156 L 434.945312 280.285156 Z M 389.898438 299.441406 " fill-opacity="1" fill-rule="nonzero"/></svg>