<svg xmlns="http://www.w3.org/2000/svg" xmlns:xlink="http://www.w3.org/1999/xlink" width="940" zoomAndPan="magnify" viewBox="0 0 705 591.000005" height="788" preserveAspectRatio="xMidYMid meet" version="1.0"><defs><clipPath id="f99207ae68"><path d="M 0.59375 40.75 L 704.402344 40.75 L 704.402344 549.140625 L 0.59375 549.140625 Z M 0.59375 40.75 " clip-rule="nonzero"/></clipPath><clipPath id="bd98109e99"><path d="M 0.59375 40.75 L 704.402344 40.75 L 704.402344 549.140625 L 0.59375 549.140625 Z M 0.59375 40.75 " clip-rule="nonzero"/></clipPath></defs><g clip-path="url(#f99207ae68)"><path fill="#00247d" d="M 0.59375 120.183594 L 0.59375 197.214844 L 110.625 197.214844 Z M 91.777344 549.046875 L 254.75 549.046875 L 254.75 434.953125 Z M 450.25 434.972656 L 450.25 549.046875 L 613.203125 549.046875 Z M 0.59375 392.675781 L 0.59375 469.707031 L 110.664062 392.675781 Z M 613.242188 40.84375 L 450.25 40.84375 L 450.25 154.933594 Z M 704.40625 469.726562 L 704.40625 392.675781 L 594.316406 392.675781 Z M 704.40625 197.214844 L 704.40625 120.183594 L 594.355469 197.214844 Z M 254.75 40.84375 L 91.777344 40.84375 L 254.75 154.933594 Z M 254.75 40.84375 " fill-opacity="1" fill-rule="nonzero"/></g><path fill="#cf1b2b" d="M 492.089844 392.675781 L 681.960938 525.609375 C 691.167969 516.246094 697.757812 504.460938 701.316406 491.421875 L 560.261719 392.675781 Z M 254.75 392.675781 L 212.890625 392.675781 L 23.039062 525.589844 C 33.226562 535.949219 46.285156 543.359375 60.925781 546.796875 L 254.75 411.109375 Z M 450.25 197.214844 L 492.109375 197.214844 L 681.960938 64.300781 C 671.773438 53.941406 658.734375 46.53125 644.09375 43.09375 L 450.25 178.78125 Z M 212.890625 197.214844 L 23.039062 64.300781 C 13.832031 73.683594 7.242188 85.449219 3.664062 98.484375 L 144.71875 197.214844 Z M 212.890625 197.214844 " fill-opacity="1" fill-rule="nonzero"/><g clip-path="url(#bd98109e99)"><path fill="#eeeeee" d="M 704.40625 353.582031 L 411.152344 353.582031 L 411.152344 549.046875 L 450.25 549.046875 L 450.25 434.972656 L 613.203125 549.046875 L 626.203125 549.046875 C 648.042969 549.046875 667.765625 540.035156 681.960938 525.609375 L 492.089844 392.675781 L 560.261719 392.675781 L 701.316406 491.421875 C 703.132812 484.835938 704.40625 478.015625 704.40625 470.859375 L 704.40625 469.726562 L 594.316406 392.675781 L 704.40625 392.675781 Z M 0.59375 353.582031 L 0.59375 392.675781 L 110.664062 392.675781 L 0.59375 469.707031 L 0.59375 470.859375 C 0.59375 492.183594 9.179688 511.476562 23.039062 525.589844 L 212.890625 392.675781 L 254.75 392.675781 L 254.75 411.109375 L 60.925781 546.777344 C 66.675781 548.144531 72.617188 549.046875 78.796875 549.046875 L 91.777344 549.046875 L 254.75 434.953125 L 254.75 549.046875 L 293.847656 549.046875 L 293.847656 353.582031 Z M 704.40625 119.027344 C 704.40625 97.703125 695.820312 78.410156 681.960938 64.300781 L 492.109375 197.214844 L 450.25 197.214844 L 450.25 178.78125 L 644.09375 43.09375 C 638.324219 41.742188 632.382812 40.84375 626.203125 40.84375 L 613.242188 40.84375 L 450.25 154.933594 L 450.25 40.84375 L 411.152344 40.84375 L 411.152344 236.304688 L 704.40625 236.304688 L 704.40625 197.214844 L 594.355469 197.214844 L 704.40625 120.183594 Z M 254.75 40.84375 L 254.75 154.933594 L 91.777344 40.84375 L 78.796875 40.84375 C 56.9375 40.84375 37.234375 49.855469 23.039062 64.300781 L 212.890625 197.214844 L 144.71875 197.214844 L 3.664062 98.484375 C 1.867188 105.074219 0.59375 111.875 0.59375 119.027344 L 0.59375 120.183594 L 110.625 197.214844 L 0.59375 197.214844 L 0.59375 236.304688 L 293.847656 236.304688 L 293.847656 40.84375 Z M 254.75 40.84375 " fill-opacity="1" fill-rule="nonzero"/><path fill="#cf1b2b" d="M 411.152344 236.304688 L 411.152344 40.84375 L 293.847656 40.84375 L 293.847656 236.304688 L 0.59375 236.304688 L 0.59375 353.582031 L 293.847656 353.582031 L 293.847656 549.046875 L 411.152344 549.046875 L 411.152344 353.582031 L 704.40625 353.582031 L 704.40625 236.304688 Z M 411.152344 236.304688 " fill-opacity="1" fill-rule="nonzero"/></g></svg>