<svg xmlns="http://www.w3.org/2000/svg" xmlns:xlink="http://www.w3.org/1999/xlink" width="1080" zoomAndPan="magnify" viewBox="0 0 810 809.999993" height="1080" preserveAspectRatio="xMidYMid meet" version="1.0"><path fill="#000000" d="M 808.785156 550.800781 C 802.851562 546.957031 795.660156 545.148438 788.824219 543.738281 C 780.691406 541.980469 772.464844 541.207031 764.144531 541.417969 C 754.644531 541.683594 745.289062 542.988281 736.078125 545.332031 C 728.410156 547.476562 721.222656 550.695312 714.523438 554.996094 C 708.871094 558.472656 703.417969 562.214844 698.050781 566.101562 C 699.011719 564.363281 699.929688 562.609375 700.875 560.84375 C 701.117188 560.910156 701.347656 560.894531 701.578125 560.800781 C 701.804688 560.707031 701.980469 560.550781 702.105469 560.335938 C 704.113281 556.859375 705.949219 553.273438 707.753906 549.671875 C 719.648438 535.796875 741.785156 538.367188 756.742188 529.128906 C 758.804688 527.914062 760.65625 526.4375 762.300781 524.695312 C 763.941406 522.953125 765.304688 521.019531 766.390625 518.886719 C 768.667969 514.167969 769.640625 507.484375 764.824219 503.910156 C 760.304688 500.578125 753.917969 503.742188 749.679688 506.03125 C 744.066406 509.097656 738.753906 512.625 733.746094 516.613281 C 726.605469 522.144531 720.089844 528.339844 714.195312 535.191406 C 714.972656 533.410156 715.738281 531.613281 716.515625 529.835938 C 720.175781 521.359375 723.632812 512.773438 726.882812 504.082031 C 731.457031 499.925781 738.042969 498.273438 743.707031 496.183594 C 749.371094 494.09375 755.824219 491.550781 759.625 486.292969 C 760.648438 484.976562 761.382812 483.515625 761.832031 481.90625 C 762.277344 480.300781 762.40625 478.667969 762.210938 477.011719 C 762.070312 476.273438 761.828125 475.570312 761.488281 474.898438 C 761.148438 474.226562 760.722656 473.617188 760.210938 473.066406 C 759.699219 472.511719 759.121094 472.042969 758.476562 471.65625 C 757.832031 471.269531 757.144531 470.976562 756.417969 470.78125 C 749.484375 468.675781 742.816406 473.832031 738.492188 478.707031 C 736.820312 480.628906 735.273438 482.644531 733.847656 484.753906 C 735.941406 478.769531 737.71875 472.6875 739.171875 466.515625 C 739.851562 463.578125 740.414062 460.625 740.910156 457.65625 C 740.953125 457.601562 740.992188 457.539062 741.023438 457.472656 C 746.4375 454.296875 751.308594 450.429688 755.628906 445.875 C 758.65625 442.964844 761.324219 439.753906 763.625 436.238281 C 765.289062 433.570312 766.859375 430.320312 766.574219 427.085938 C 766.351562 424.667969 764.9375 421.886719 762.339844 421.207031 C 760.0625 420.601562 757.917969 422.070312 756.347656 423.554688 C 751.519531 428.117188 748.351562 434.757812 745.402344 440.605469 C 744.371094 442.640625 743.367188 444.703125 742.363281 446.765625 C 742.902344 442.160156 743.324219 437.527344 743.691406 432.90625 C 744.722656 420.347656 745.484375 407.757812 747.421875 395.296875 C 750.625 391.984375 752.976562 388.152344 754.484375 383.796875 C 756.105469 379.84375 757.046875 375.730469 757.308594 371.464844 C 757.308594 365.429688 756.15625 359.625 753.847656 354.046875 C 752.335938 350.160156 748.832031 342.957031 743.464844 345.738281 C 740.484375 347.292969 738.707031 351.09375 737.6875 354.101562 C 736.371094 358.621094 736.164062 363.1875 737.066406 367.804688 C 738.132812 373.203125 739.507812 378.519531 741.191406 383.757812 C 742.339844 387.765625 743.035156 391.855469 743.28125 396.019531 C 742.265625 401.824219 741.574219 407.6875 741.007812 413.566406 C 740.78125 412.363281 740.527344 411.175781 740.257812 410.019531 C 738.847656 404.015625 736.628906 396.0625 730.894531 392.726562 C 726.375 390.097656 719.015625 391.9375 718.871094 397.941406 C 719.035156 400.859375 719.890625 403.558594 721.445312 406.035156 C 723.1875 409.171875 725.171875 412.144531 727.390625 414.964844 C 731.261719 420.078125 735.386719 425.078125 739.679688 429.855469 C 739.113281 437.117188 738.507812 444.378906 737.519531 451.582031 C 737.265625 449.035156 736.847656 446.515625 736.261719 444.023438 C 734.847656 438.375 731.671875 428.921875 724.777344 428.273438 C 720.90625 427.90625 717.714844 431 715.609375 433.921875 C 714.75 435.15625 714.15625 436.507812 713.828125 437.976562 C 713.5 439.441406 713.464844 440.917969 713.71875 442.398438 C 714.75 448.65625 719.902344 453.785156 723.84375 458.433594 C 728.011719 463.351562 733.296875 469.382812 731.570312 476.347656 C 731.476562 476.734375 731.53125 477.097656 731.742188 477.4375 C 730.144531 482.59375 728.367188 487.707031 726.558594 492.808594 C 724.75 497.90625 722.871094 502.980469 720.90625 508.023438 C 721.089844 505.097656 721.148438 502.160156 721.078125 499.234375 C 720.835938 489.585938 720.003906 478.875 715.582031 470.105469 C 714.167969 467.195312 711.851562 464.199219 708.519531 463.378906 C 707.695312 463.191406 706.859375 463.128906 706.019531 463.199219 C 705.175781 463.265625 704.363281 463.460938 703.582031 463.78125 C 702.796875 464.101562 702.082031 464.53125 701.433594 465.074219 C 700.785156 465.613281 700.230469 466.242188 699.773438 466.953125 C 697.839844 470.300781 698.628906 474.652344 699.5625 478.15625 C 701.132812 483.273438 703.109375 488.226562 705.496094 493.019531 C 708.023438 498.667969 710.664062 504.164062 712.980469 509.859375 C 714.394531 513.335938 716.65625 518.066406 715.652344 521.882812 C 715.3125 522.699219 715.003906 523.507812 714.664062 524.324219 C 711.613281 531.769531 708.292969 539.144531 705.140625 546.5625 C 704.441406 547.390625 703.804688 548.261719 703.222656 549.175781 L 702.96875 549.175781 C 702.96875 545.304688 702.96875 541.433594 702.628906 537.578125 C 701.992188 529.566406 701.214844 520.835938 697.488281 513.558594 C 696.890625 512.171875 696.066406 510.9375 695.011719 509.855469 C 693.957031 508.773438 692.742188 507.917969 691.371094 507.289062 C 688.445312 506.171875 684.574219 506.75 682.765625 509.519531 C 680.960938 512.289062 681.480469 516.429688 682.246094 519.605469 C 683.285156 523.664062 684.765625 527.554688 686.695312 531.277344 C 688.730469 535.0625 691.085938 538.640625 693.757812 542.011719 C 696.457031 545.730469 699.519531 550.023438 699.804688 554.644531 C 692.921875 567.722656 684.917969 580.074219 675.789062 591.699219 C 676.65625 588.703125 677.3125 585.660156 677.753906 582.574219 C 678.917969 573.898438 679.207031 565.195312 678.613281 556.464844 C 678.164062 548.371094 677.203125 540.316406 676.15625 532.277344 C 675.121094 523.988281 672.855469 516.050781 669.363281 508.460938 C 665.125 499.476562 659.105469 491.507812 650.660156 486.152344 C 650.492188 486.058594 650.3125 485.984375 650.125 485.933594 C 649.9375 485.886719 649.746094 485.863281 649.554688 485.863281 C 649.359375 485.863281 649.167969 485.886719 648.980469 485.9375 C 648.796875 485.988281 648.617188 486.058594 648.449219 486.15625 C 648.28125 486.253906 648.128906 486.367188 647.988281 486.503906 C 647.851562 486.640625 647.734375 486.792969 647.636719 486.960938 C 647.535156 487.125 647.460938 487.304688 647.410156 487.488281 C 647.355469 487.675781 647.328125 487.867188 647.324219 488.058594 C 646.339844 496.953125 645.894531 505.871094 645.984375 514.816406 C 645.917969 523.367188 647.136719 531.730469 649.640625 539.90625 C 654.175781 553.921875 661.464844 566.847656 665.535156 581.046875 C 667.453125 587.714844 669.261719 595.445312 667.101562 602.238281 C 667.09375 602.265625 667.09375 602.296875 667.101562 602.324219 C 660.632812 609.855469 653.78125 617.074219 646.621094 623.996094 C 642.382812 628.136719 638.046875 632.246094 633.664062 636.285156 C 633.296875 636.347656 632.976562 636.507812 632.707031 636.765625 C 631.914062 637.5 631.09375 638.179688 630.289062 638.929688 C 629.472656 639.535156 628.714844 640.207031 628.015625 640.949219 C 618.886719 648.761719 609.210938 655.824219 598.988281 662.140625 C 595.832031 664.117188 592.675781 666.089844 589.523438 668.058594 C 597.828125 654.667969 601.359375 638.152344 602.898438 622.765625 C 604.777344 604.230469 603.28125 585.625 596.289062 568.234375 C 594.4375 563.34375 592.109375 558.695312 589.296875 554.285156 C 586.484375 549.878906 583.25 545.808594 579.59375 542.070312 C 579.480469 541.957031 579.351562 541.863281 579.214844 541.785156 C 579.078125 541.707031 578.929688 541.644531 578.777344 541.605469 C 578.621094 541.566406 578.464844 541.542969 578.308594 541.542969 C 578.148438 541.542969 577.992188 541.566406 577.839844 541.605469 C 577.683594 541.644531 577.539062 541.707031 577.398438 541.785156 C 577.261719 541.863281 577.136719 541.957031 577.023438 542.070312 C 576.910156 542.179688 576.8125 542.304688 576.730469 542.441406 C 576.648438 542.578125 576.585938 542.722656 576.542969 542.875 C 574.675781 550.949219 573.261719 559.101562 572.304688 567.328125 C 571.460938 575.730469 571.363281 584.140625 572.007812 592.5625 C 573.265625 609.402344 578.136719 625.605469 581.554688 642.007812 C 583.476562 650.972656 584.734375 660.027344 585.328125 669.175781 C 584.890625 669.925781 584.453125 670.671875 584 671.40625 C 576.9375 675.746094 569.875 679.996094 562.726562 683.980469 C 555.65625 687.839844 548.410156 691.335938 540.988281 694.464844 C 539.574219 695.070312 540.578125 697.289062 542.03125 696.949219 C 555.933594 693.078125 568.800781 685.296875 581.019531 677.820312 C 593.238281 670.347656 605.484375 663.226562 616.96875 654.851562 C 621.1875 651.8125 625.230469 648.554688 629.089844 645.074219 C 629.738281 645.113281 630.265625 644.878906 630.671875 644.367188 C 632.507812 642.234375 635.53125 641.273438 638.199219 640.539062 C 641.910156 639.597656 645.679688 639.023438 649.5 638.816406 C 657.109375 638.28125 664.710938 638.316406 672.3125 638.914062 C 683.402344 639.761719 694.351562 641.429688 705.496094 641.386719 C 716.304688 641.339844 726.835938 639.59375 737.082031 636.144531 C 746.574219 632.996094 756.957031 628.925781 764.105469 621.679688 C 764.320312 621.457031 764.476562 621.195312 764.578125 620.902344 C 764.675781 620.605469 764.703125 620.304688 764.664062 619.996094 C 764.625 619.6875 764.519531 619.40625 764.347656 619.144531 C 764.179688 618.882812 763.960938 618.675781 763.695312 618.515625 C 755.664062 614.929688 747.300781 612.472656 738.605469 611.140625 C 729.488281 609.414062 720.300781 608.183594 711.046875 607.453125 C 706.410156 607.140625 701.777344 607.171875 697.144531 607.546875 C 692.511719 607.917969 687.929688 608.632812 683.402344 609.683594 C 678.878906 610.738281 674.453125 612.117188 670.128906 613.824219 C 665.808594 615.53125 661.632812 617.546875 657.609375 619.871094 C 656.777344 620.335938 655.96875 620.832031 655.164062 621.28125 C 658.167969 618.289062 661.117188 615.226562 664.007812 612.101562 C 675.035156 600.320312 684.855469 587.605469 693.460938 573.957031 L 694.054688 572.964844 L 694.179688 572.964844 C 699.832031 569.746094 707.347656 572.019531 713.179688 573.671875 C 720.003906 575.621094 726.785156 578.125 733.960938 578.164062 C 750.910156 578.277344 766.816406 571.964844 782.101562 565.367188 C 790.714844 561.652344 799.363281 558.300781 808.21875 555.152344 C 808.671875 555.015625 809.054688 554.769531 809.359375 554.40625 C 809.667969 554.046875 809.851562 553.628906 809.914062 553.160156 C 809.972656 552.6875 809.902344 552.242188 809.699219 551.8125 C 809.492188 551.386719 809.1875 551.046875 808.785156 550.800781 Z M 753.253906 474.015625 C 755.628906 474.015625 758.15625 475.117188 758.621094 477.675781 C 759.089844 480.234375 757.519531 483.257812 755.796875 485.164062 C 751.996094 489.234375 746.234375 491.125 741.136719 492.960938 C 737.386719 494.191406 733.734375 495.65625 730.171875 497.355469 C 732.523438 492.921875 735.183594 488.683594 738.15625 484.640625 C 741.601562 479.964844 746.871094 473.988281 753.253906 474.015625 Z M 746.375 446.949219 C 749.136719 440.804688 752.382812 434.929688 756.109375 429.316406 C 757.261719 427.414062 758.78125 425.875 760.671875 424.699219 C 760.542969 424.769531 761.234375 424.554688 761.234375 424.527344 L 761.492188 424.527344 L 761.746094 424.597656 L 761.984375 424.738281 C 761.984375 424.738281 762.210938 424.953125 762.253906 425.007812 C 762.542969 425.332031 762.777344 425.6875 762.960938 426.082031 C 763.960938 428.441406 762.675781 431.324219 761.546875 433.398438 C 759.660156 436.667969 757.398438 439.652344 754.753906 442.34375 C 751.652344 445.59375 748.359375 448.632812 744.863281 451.457031 L 743.707031 452.402344 C 744.609375 450.636719 745.484375 448.769531 746.375 446.949219 Z M 743.636719 350.726562 C 744.128906 350.007812 744.753906 349.433594 745.515625 349.003906 C 745.980469 348.820312 746.179688 348.847656 746.742188 349.226562 C 748.28125 350.636719 749.390625 352.324219 750.0625 354.300781 C 752.15625 359.316406 753.367188 364.539062 753.691406 369.96875 C 753.6875 373.523438 753.09375 376.980469 751.914062 380.335938 C 750.785156 384.375 749.066406 388.140625 746.757812 391.640625 C 746.546875 390.226562 746.277344 388.8125 745.964844 387.5 C 745.019531 383.261719 743.648438 379.023438 742.492188 374.785156 C 740.34375 367.085938 738.464844 357.816406 743.636719 350.726562 Z M 723.28125 401.191406 C 722.90625 400.234375 722.683594 399.246094 722.617188 398.222656 C 722.585938 397.570312 722.75 396.972656 723.109375 396.429688 C 724.242188 395.015625 726.910156 394.804688 728.632812 395.496094 C 729.71875 396.0625 730.679688 396.789062 731.523438 397.679688 C 732.367188 398.566406 733.039062 399.566406 733.550781 400.679688 C 735.082031 403.554688 736.234375 406.574219 737.011719 409.738281 C 738.320312 414.394531 739.167969 419.136719 739.554688 423.964844 C 737.644531 421.589844 735.640625 419.300781 733.71875 416.898438 C 729.847656 412.179688 725.386719 406.996094 723.28125 401.191406 Z M 731.53125 461.699219 C 727.914062 456.65625 723.265625 452.375 719.945312 447.105469 C 718.484375 445.078125 717.6875 442.816406 717.558594 440.324219 C 717.6875 438.886719 718.109375 437.546875 718.832031 436.300781 C 719.554688 435.050781 720.503906 434.015625 721.683594 433.1875 C 727.335938 428.949219 731.078125 439.039062 732.292969 442.921875 C 733.601562 447.542969 734.332031 452.25 734.480469 457.050781 C 734.6875 460.3125 734.6875 463.578125 734.480469 466.839844 C 733.6875 465.007812 732.703125 463.285156 731.53125 461.667969 Z M 712.023438 498.667969 C 709.832031 493.894531 707.542969 489.160156 705.621094 484.273438 C 704.125 480.472656 702.472656 476.292969 702.429688 472.152344 C 702.429688 469.328125 703.375 467.390625 706.300781 466.882812 C 707.277344 466.746094 708.1875 466.933594 709.027344 467.449219 C 710.128906 468.191406 711.023438 469.132812 711.710938 470.273438 C 713.691406 473.742188 715.027344 477.445312 715.722656 481.378906 C 716.746094 486.191406 717.410156 491.058594 717.714844 495.972656 C 718.105469 501.195312 718.128906 506.425781 717.785156 511.652344 C 717.785156 512.019531 717.785156 512.414062 717.714844 512.8125 C 717.714844 512.683594 717.628906 512.542969 717.601562 512.429688 C 716.074219 507.707031 714.214844 503.121094 712.023438 498.667969 Z M 598.929688 593 C 600.046875 601.671875 600.222656 610.367188 599.453125 619.078125 C 598.820312 628.296875 597.265625 637.359375 594.792969 646.261719 C 594.027344 648.945312 593.171875 651.597656 592.222656 654.214844 C 593.324219 641.269531 593.691406 628.304688 593.324219 615.320312 C 593.109375 607.523438 592.558594 599.78125 591.570312 591.980469 C 590.582031 584.183594 589.636719 576.0625 588.066406 568.191406 C 587.300781 564.027344 586.097656 559.992188 584.464844 556.085938 C 583.6875 554.261719 582.839844 552.453125 582.078125 550.632812 C 591.429688 562.667969 596.8125 578.195312 598.929688 593 Z M 582.277344 621.253906 C 580.226562 613.128906 578.660156 604.910156 577.574219 596.601562 C 576.699219 588.328125 576.449219 580.035156 576.824219 571.722656 C 577.074219 563.945312 577.828125 556.21875 579.082031 548.539062 C 581.0625 554.261719 584.253906 559.558594 585.609375 565.492188 C 587.433594 573.476562 588.433594 581.613281 589.496094 589.722656 C 591.453125 605.253906 592.160156 620.839844 591.613281 636.484375 C 591.414062 643.730469 591.019531 650.992188 590.667969 658.242188 C 590.144531 659.527344 589.609375 660.785156 589.027344 662.039062 C 587.796875 648.261719 585.546875 634.652344 582.277344 621.210938 Z M 737.265625 630.972656 C 727.25 634.339844 716.960938 636.066406 706.398438 636.160156 C 695.097656 636.257812 683.910156 634.5625 672.652344 633.617188 C 665.121094 632.945312 657.589844 632.914062 650.050781 633.515625 C 648.046875 633.6875 645.886719 633.898438 643.695312 634.222656 L 644.640625 633.558594 C 656.914062 629.277344 669.472656 626.140625 682.316406 624.152344 C 698.425781 621.402344 714.644531 620.460938 730.964844 621.324219 C 739.441406 621.890625 748.097656 623.019531 756.601562 622.527344 C 754.679688 623.695312 752.699219 624.75 750.65625 625.691406 C 746.304688 627.722656 741.839844 629.46875 737.265625 630.933594 Z M 679.234375 615.011719 C 688.304688 612.277344 697.570312 611.082031 707.035156 611.421875 C 716.050781 611.957031 724.996094 613.058594 733.875 614.726562 C 741.578125 615.800781 749.113281 617.589844 756.476562 620.097656 C 749.03125 620.097656 741.671875 619.785156 734.226562 619.234375 C 725.617188 618.507812 717.003906 618.390625 708.378906 618.882812 C 692.285156 619.832031 676.425781 622.289062 660.800781 626.253906 C 657.183594 627.230469 653.570312 628.320312 650.023438 629.5625 C 651.761719 628.289062 653.527344 627.046875 655.363281 625.917969 C 662.847656 621.238281 670.804688 617.589844 679.234375 614.96875 Z M 733.507812 550.363281 C 741.980469 547.835938 750.628906 546.339844 759.457031 545.871094 C 767.96875 545.242188 776.414062 545.765625 784.785156 547.4375 C 788.632812 548.179688 792.433594 549.125 796.183594 550.261719 C 797.921875 550.800781 799.800781 551.378906 801.578125 552.128906 C 800.265625 552.539062 798.964844 552.960938 797.679688 553.429688 C 794.671875 553.496094 791.667969 553.40625 788.667969 553.160156 C 782.171875 552.679688 775.714844 551.746094 769.203125 551.464844 C 759.816406 551.132812 750.515625 551.886719 741.304688 553.726562 C 734.242188 555.136719 727.179688 556.71875 720.199219 558.414062 C 718.109375 558.9375 715.890625 559.488281 713.6875 560.179688 C 719.878906 556.058594 726.484375 552.773438 733.507812 550.320312 Z M 730.835938 523.222656 C 735.691406 519.042969 740.847656 515.277344 746.304688 511.921875 C 748.507812 510.507812 750.769531 509.265625 753.097656 508.136719 C 755.429688 507.003906 758.183594 505.746094 760.796875 506.074219 C 761.386719 506.191406 761.933594 506.414062 762.441406 506.734375 C 762.949219 507.054688 763.382812 507.457031 763.742188 507.9375 C 764.101562 508.417969 764.367188 508.945312 764.535156 509.523438 C 764.699219 510.097656 764.757812 510.6875 764.710938 511.285156 C 764.597656 513.847656 763.839844 516.203125 762.4375 518.347656 C 761.261719 520.164062 759.863281 521.792969 758.25 523.230469 C 756.632812 524.667969 754.855469 525.867188 752.914062 526.824219 C 744.90625 531.0625 735.613281 532.292969 726.96875 534.667969 C 722.785156 535.753906 718.761719 537.253906 714.890625 539.171875 C 719.789062 533.429688 725.105469 528.097656 730.835938 523.179688 Z M 692.699219 534.269531 C 690.867188 531.4375 689.320312 528.457031 688.0625 525.328125 C 686.46875 521.964844 685.527344 518.429688 685.238281 514.71875 C 685.238281 512.0625 686.058594 510.324219 688.941406 510.59375 C 690.859375 510.777344 692.542969 512.558594 693.671875 514.535156 C 697.316406 520.851562 698.136719 528.988281 698.8125 536.109375 C 699.054688 538.59375 699.238281 541.082031 699.40625 543.582031 C 697.34375 540.316406 694.832031 537.4375 692.78125 534.230469 Z M 664.53125 507.992188 C 668.289062 515.300781 670.730469 523.023438 671.847656 531.164062 C 674.050781 546.703125 675.761719 562.652344 674.390625 578.320312 C 674.261719 579.734375 674.109375 581.144531 673.9375 582.472656 C 673.9375 581.980469 673.9375 581.5 673.9375 581.0625 C 673.8125 576.484375 673.5 571.90625 673.078125 567.359375 C 672.25 558.230469 670.816406 549.195312 668.769531 540.261719 C 667.269531 533.789062 665.28125 527.449219 663.570312 521.019531 C 661.972656 515.042969 660.378906 509.039062 658.371094 503.175781 C 657.398438 500.230469 656.242188 497.355469 654.898438 494.558594 C 658.855469 498.5 662.066406 502.976562 664.53125 507.992188 Z M 665.730469 564.96875 C 662.90625 557.636719 659.402344 550.53125 656.59375 543.15625 C 655.082031 539.25 653.863281 535.25 652.949219 531.164062 C 652.128906 526.996094 651.660156 522.792969 651.535156 518.546875 C 651.097656 510.496094 651.367188 502.441406 651.535156 494.390625 C 653.027344 497.175781 654.265625 500.074219 655.25 503.078125 C 657.296875 508.730469 658.964844 514.632812 660.632812 520.46875 C 662.300781 526.304688 664.234375 532.277344 665.789062 538.253906 C 668.035156 547.039062 669.664062 555.933594 670.675781 564.941406 C 671.242188 569.832031 671.621094 574.71875 671.945312 579.636719 C 672.171875 582.941406 672.441406 586.273438 672.625 589.609375 C 672.625 589.808594 672.539062 590.019531 672.484375 590.214844 C 672.285156 588.140625 671.976562 586.0625 671.59375 584.042969 C 670.242188 577.503906 668.292969 571.144531 665.746094 564.96875 Z M 759.683594 568.261719 C 751.726562 570.941406 743.550781 572.414062 735.160156 572.683594 C 728.027344 572.796875 721.402344 570.367188 714.59375 568.558594 C 711.285156 567.617188 707.925781 566.96875 704.507812 566.609375 C 709.304688 563.882812 714.402344 561.957031 719.804688 560.832031 C 726.699219 559.191406 733.71875 557.890625 740.667969 556.453125 C 749.855469 554.550781 759.136719 553.753906 768.511719 554.0625 C 775.09375 554.289062 781.605469 555.277344 788.160156 555.773438 C 789.09375 555.84375 790.023438 555.914062 790.984375 555.957031 L 783.285156 559.148438 C 775.460938 562.328125 767.71875 565.691406 759.695312 568.261719 Z M 759.683594 568.261719 " fill-opacity="1" fill-rule="nonzero"/><path fill="#000000" d="M 252.058594 103.378906 C 250.488281 101.386719 247.691406 101.078125 245.332031 101.246094 C 239.019531 101.699219 232.621094 104.382812 227.125 107.476562 C 223.765625 109.5 220.898438 112.070312 218.523438 115.191406 C 214.707031 119.867188 211.460938 125.320312 210.527344 131.351562 C 198.167969 143.417969 184.339844 153.84375 171.570312 165.441406 C 172.289062 164.113281 172.980469 162.785156 173.714844 161.457031 C 177.007812 155.285156 180.777344 148.644531 182.105469 141.679688 C 182.542969 139.460938 182.839844 136.652344 181.214844 134.800781 C 179.59375 132.949219 176.597656 132.949219 174.421875 133.894531 C 173.078125 134.609375 171.898438 135.535156 170.882812 136.671875 C 169.867188 137.804688 169.078125 139.078125 168.515625 140.492188 C 166.84375 144.167969 165.671875 147.996094 165 151.980469 C 163.476562 158.824219 163.003906 165.742188 163.585938 172.734375 C 163.546875 172.824219 163.511719 172.917969 163.488281 173.015625 C 156.929688 179.820312 150.941406 187.097656 145.519531 194.84375 C 146.058594 193.429688 146.566406 191.933594 147.019531 190.449219 C 148.882812 184.203125 150.195312 176.320312 146.214844 170.542969 C 145.433594 169.3125 144.425781 168.3125 143.183594 167.550781 C 141.945312 166.785156 140.601562 166.332031 139.148438 166.191406 C 138.40625 166.191406 137.671875 166.285156 136.949219 166.46875 C 136.226562 166.652344 135.539062 166.921875 134.886719 167.277344 C 134.230469 167.632812 133.628906 168.0625 133.082031 168.566406 C 132.535156 169.070312 132.054688 169.636719 131.648438 170.261719 C 127.410156 175.828125 128.203125 183.074219 129.726562 189.445312 C 131.410156 196.507812 134.785156 203.984375 134.066406 211.398438 C 130.296875 217.050781 126.585938 222.78125 122.933594 228.59375 C 120.644531 232.257812 118.367188 235.9375 116.097656 239.640625 C 117.59375 233.5 118.652344 227.28125 119.273438 220.992188 C 119.96875 214.5625 120.175781 208.113281 119.898438 201.652344 C 119.65625 196.761719 119.375 191.367188 117.621094 186.734375 C 115.871094 182.097656 111.859375 178.878906 106.730469 180.699219 C 102.097656 182.339844 99.0625 187.042969 97.550781 191.507812 C 94.046875 201.808594 98.296875 212.699219 102.113281 222.292969 C 106.136719 232.351562 110.585938 242.945312 108.058594 253.640625 C 106.179688 257.128906 104.386719 260.703125 102.746094 264.265625 C 102.636719 264.484375 102.597656 264.71875 102.628906 264.964844 C 102.664062 265.210938 102.765625 265.425781 102.929688 265.605469 C 101.988281 267.300781 101.113281 269.027344 100.304688 270.777344 C 100.304688 264.5625 100.175781 258.316406 99.824219 252.128906 C 99.480469 243.6875 97.851562 235.503906 94.9375 227.574219 C 91.949219 219.691406 88.144531 212.21875 83.523438 205.167969 C 78.898438 198.113281 73.570312 191.644531 67.53125 185.757812 C 61.796875 180.277344 55.554688 174.722656 48.066406 171.773438 C 46.34375 171.109375 44.675781 173.085938 45.144531 174.695312 C 47.558594 182.945312 49.71875 191.183594 51.542969 199.601562 C 53.222656 208.042969 55.332031 216.375 57.871094 224.59375 C 60.449219 232.96875 64.21875 240.773438 69.171875 248.003906 C 73.167969 253.65625 78.59375 257.640625 83.988281 261.863281 C 87.007812 264.160156 89.832031 266.675781 92.464844 269.40625 C 93.65625 270.539062 94.636719 271.828125 95.40625 273.277344 C 96.179688 274.730469 96.699219 276.265625 96.96875 277.882812 L 96.96875 278.054688 C 94.074219 284.90625 91.601562 291.953125 89.425781 298.992188 C 85.480469 311.742188 82.433594 324.707031 80.289062 337.882812 C 80.289062 337.402344 80.289062 336.910156 80.1875 336.472656 C 79.375 327.238281 77.320312 318.292969 74.03125 309.628906 C 70.730469 301.238281 66.285156 293.503906 60.695312 286.429688 C 55.113281 279.640625 49.144531 273.203125 42.796875 267.117188 C 35.734375 260.054688 28.332031 253.148438 19.574219 248.316406 C 19.304688 248.164062 19.015625 248.078125 18.703125 248.054688 C 18.394531 248.035156 18.097656 248.085938 17.808594 248.203125 C 17.519531 248.320312 17.273438 248.492188 17.066406 248.722656 C 16.859375 248.953125 16.710938 249.21875 16.621094 249.515625 C 15.054688 258.613281 17.101562 268.25 19.589844 277.007812 C 22.253906 286.757812 26.289062 295.902344 31.695312 304.445312 C 42.035156 320.40625 56.484375 333.066406 66.867188 348.988281 C 69.5625 352.917969 71.882812 357.058594 73.832031 361.40625 C 75.03125 364.230469 76.515625 368.160156 75.765625 371.183594 C 75.605469 371.78125 75.695312 372.34375 76.035156 372.863281 C 74.625 384.914062 75.03125 397.246094 75.839844 409.3125 C 76.769531 423.1875 77.476562 437.128906 79.328125 450.90625 C 80.214844 458.78125 81.921875 466.476562 84.453125 473.988281 C 84.621094 474.253906 84.847656 474.445312 85.140625 474.558594 C 85.433594 474.675781 85.730469 474.691406 86.03125 474.605469 C 86.332031 474.523438 86.582031 474.359375 86.773438 474.109375 C 86.964844 473.863281 87.0625 473.582031 87.066406 473.269531 C 84.1875 459.75 82.304688 446.09375 81.417969 432.296875 C 81.25 429.867188 81.066406 427.4375 80.882812 425.007812 C 81.191406 424.261719 81.515625 423.511719 81.855469 422.777344 C 95.867188 413.988281 111.167969 407.714844 126.4375 401.445312 C 134.300781 398.363281 141.914062 394.753906 149.277344 390.621094 C 156.496094 386.386719 163.332031 381.609375 169.789062 376.28125 C 176.898438 370.199219 183.53125 363.632812 189.691406 356.589844 C 189.800781 356.472656 189.894531 356.347656 189.972656 356.210938 C 190.046875 356.070312 190.105469 355.925781 190.144531 355.773438 C 190.1875 355.617188 190.207031 355.460938 190.207031 355.304688 C 190.203125 355.144531 190.183594 354.992188 190.144531 354.835938 C 190.105469 354.683594 190.042969 354.539062 189.964844 354.402344 C 189.890625 354.261719 189.796875 354.136719 189.683594 354.023438 C 189.574219 353.910156 189.453125 353.8125 189.316406 353.730469 C 189.183594 353.648438 189.039062 353.582031 188.886719 353.539062 C 170.734375 350.316406 151.4375 355.203125 135.207031 363.425781 C 127.113281 367.691406 119.578125 372.785156 112.609375 378.710938 C 105.171875 384.816406 98.449219 391.621094 92.4375 399.125 C 87.546875 405.101562 83.535156 411.621094 80.402344 418.679688 C 79.707031 409.058594 79.128906 399.410156 79.171875 389.761719 C 79.171875 383.742188 79.523438 377.738281 80.105469 371.746094 C 80.300781 370.746094 80.410156 369.730469 80.429688 368.710938 C 80.554688 367.46875 80.683594 366.238281 80.839844 364.996094 C 80.886719 364.65625 80.820312 364.339844 80.640625 364.046875 C 82.453125 348.265625 85.195312 332.644531 88.863281 317.1875 L 89.074219 316.945312 C 92.632812 312.1875 98.722656 309.359375 104.089844 307.242188 C 110.0625 304.976562 116.160156 303.132812 122.382812 301.703125 C 130.40625 299.753906 138.570312 298.382812 146.507812 296.136719 C 154.867188 293.800781 162.640625 290.203125 169.832031 285.34375 C 178.195312 279.683594 186.132812 273.484375 193.648438 266.738281 C 193.78125 266.597656 193.890625 266.445312 193.984375 266.277344 C 194.078125 266.109375 194.148438 265.929688 194.195312 265.746094 C 194.242188 265.558594 194.265625 265.367188 194.265625 265.175781 C 194.265625 264.984375 194.238281 264.796875 194.191406 264.609375 C 194.140625 264.425781 194.066406 264.246094 193.972656 264.082031 C 193.878906 263.914062 193.761719 263.761719 193.628906 263.621094 C 193.496094 263.484375 193.347656 263.367188 193.183594 263.265625 C 193.015625 263.167969 192.84375 263.089844 192.660156 263.035156 C 176.132812 256.339844 156.851562 260.71875 141.578125 268.6875 C 127.214844 276.1875 112.875 284.398438 100.757812 295.289062 C 97.726562 297.9375 94.953125 300.835938 92.4375 303.976562 C 94.695312 296.25 97.296875 288.621094 100.289062 281.121094 C 100.5 280.566406 100.742188 280.03125 100.96875 279.480469 C 101.332031 279.125 101.515625 278.691406 101.519531 278.179688 C 103.722656 272.953125 106.152344 267.796875 108.75 262.753906 C 114.671875 258.996094 123.894531 261.03125 130.390625 260.578125 C 134.113281 260.292969 137.78125 259.679688 141.394531 258.742188 C 145.238281 257.945312 148.804688 256.476562 152.089844 254.332031 C 154.675781 252.441406 156.511719 249.558594 155.296875 246.292969 C 155.011719 245.558594 154.636719 244.875 154.164062 244.246094 C 153.695312 243.613281 153.148438 243.054688 152.527344 242.570312 C 151.902344 242.089844 151.226562 241.699219 150.5 241.398438 C 149.769531 241.101562 149.015625 240.90625 148.234375 240.8125 C 144.527344 240.46875 140.953125 241 137.511719 242.410156 C 133.25 243.945312 129.148438 245.832031 125.207031 248.0625 C 120.351562 250.785156 115.6875 253.804688 111.210938 257.117188 C 111.183594 257.015625 111.148438 256.917969 111.109375 256.820312 C 111.503906 255.824219 111.832031 254.804688 112.097656 253.769531 C 115.941406 247.453125 119.671875 241.054688 123.597656 234.808594 L 126.195312 230.699219 C 128.144531 228.367188 132.242188 227.351562 135.109375 226.601562 C 140.125 225.285156 145.222656 224.285156 150.324219 223.308594 C 155.421875 222.335938 160.832031 221.34375 165.976562 219.933594 C 169.957031 218.832031 174.222656 217.488281 177.429688 214.761719 C 178.070312 214.25 178.621094 213.65625 179.074219 212.972656 C 179.527344 212.292969 179.871094 211.558594 180.09375 210.769531 C 180.320312 209.984375 180.417969 209.179688 180.394531 208.359375 C 180.367188 207.542969 180.21875 206.746094 179.945312 205.976562 C 179.648438 205.179688 179.242188 204.445312 178.722656 203.773438 C 178.207031 203.097656 177.601562 202.515625 176.90625 202.023438 C 176.214844 201.535156 175.464844 201.15625 174.660156 200.890625 C 173.851562 200.625 173.023438 200.480469 172.175781 200.464844 C 167.9375 200.113281 163.699219 201.511719 159.757812 203.023438 C 154.730469 205.066406 149.925781 207.546875 145.351562 210.46875 C 141.460938 212.886719 137.738281 215.539062 134.179688 218.421875 C 137.144531 213.914062 140.152344 209.421875 143.246094 205 C 146.339844 200.578125 149.417969 196.199219 152.667969 191.917969 C 153.066406 191.921875 153.386719 191.765625 153.628906 191.453125 C 158.035156 186.28125 165.226562 186.648438 171.414062 187.101562 C 177.96875 187.582031 185.539062 189.078125 191.769531 186.109375 C 193.199219 185.390625 194.429688 184.417969 195.457031 183.191406 C 196.484375 181.964844 197.230469 180.582031 197.6875 179.046875 C 198.761719 175.828125 199.171875 171.742188 196.855469 168.945312 C 192.855469 164.113281 184.480469 166.121094 179.464844 167.871094 C 176.316406 169 173.304688 170.414062 170.425781 172.109375 C 175.707031 167.109375 181.246094 162.390625 186.824219 157.714844 L 187.105469 157.714844 L 188.519531 157.855469 L 192.292969 158.167969 C 195.578125 158.457031 198.875 158.691406 202.179688 158.859375 C 208.523438 159.183594 215.753906 159.722656 221.828125 157.546875 C 222.984375 157.238281 224.023438 156.703125 224.9375 155.929688 C 225.851562 155.15625 226.558594 154.226562 227.054688 153.136719 C 227.230469 152.484375 227.320312 151.820312 227.328125 151.148438 C 227.335938 150.472656 227.261719 149.804688 227.105469 149.148438 C 226.945312 148.492188 226.710938 147.867188 226.394531 147.269531 C 226.082031 146.671875 225.699219 146.125 225.246094 145.621094 C 220.796875 140.238281 212.222656 142.246094 206.574219 144.207031 C 204.214844 145 201.8125 145.945312 199.507812 147.035156 C 203.945312 143.175781 208.28125 139.207031 212.40625 135.011719 C 214.824219 133.425781 217.371094 132.089844 220.046875 131 C 224.117188 129.375 228.296875 128.074219 232.394531 126.535156 C 240.289062 123.570312 248.34375 119.472656 251.902344 111.304688 C 252.976562 108.863281 253.878906 105.695312 252.058594 103.378906 Z M 100.277344 200.648438 C 100.101562 198.363281 100.292969 196.109375 100.851562 193.886719 C 101.410156 191.660156 102.304688 189.582031 103.539062 187.652344 C 105.996094 184.019531 111.125 181.617188 113.738281 186.394531 C 115.84375 190.25 116.070312 195.292969 116.394531 199.589844 C 116.824219 205.488281 116.824219 211.390625 116.394531 217.289062 C 115.824219 225.484375 114.558594 233.570312 112.59375 241.546875 C 111.96875 237.492188 110.933594 233.546875 109.484375 229.707031 C 106.066406 220.355469 100.742188 210.820312 100.277344 200.648438 Z M 63.363281 187.863281 C 69.097656 192.984375 74.136719 198.714844 78.480469 205.054688 C 83.042969 211.929688 86.96875 219.15625 90.246094 226.726562 C 93.488281 234.519531 95.371094 242.628906 95.898438 251.054688 C 95.996094 252.300781 96.066406 253.554688 96.136719 254.800781 C 95.515625 252.890625 94.808594 251.027344 94.101562 249.261719 C 92.691406 245.8125 91.277344 242.453125 89.765625 239.0625 C 88.199219 235.457031 86.800781 231.773438 85.175781 228.183594 C 81.773438 220.695312 77.644531 213.628906 72.785156 206.992188 C 68.847656 201.609375 64.3125 196.761719 59.960938 191.707031 C 57.417969 188.824219 55.0625 185.796875 52.898438 182.621094 C 52.503906 181.210938 52.09375 179.964844 51.65625 178.652344 C 52.898438 179.414062 54.085938 180.261719 55.230469 181.097656 C 58.066406 183.199219 60.78125 185.453125 63.363281 187.863281 Z M 76.277344 248.300781 C 70.851562 242.421875 67.179688 234.414062 64.4375 226.980469 C 61.566406 218.65625 59.234375 210.179688 57.445312 201.550781 C 56.527344 197.570312 55.652344 193.5 54.621094 189.460938 C 58.617188 194.445312 63.097656 199.050781 67.121094 203.996094 C 72.296875 210.335938 76.742188 217.148438 80.457031 224.4375 C 83.933594 231.234375 86.785156 238.371094 89.90625 245.335938 C 92.832031 251.859375 95.558594 258.601562 96.109375 265.71875 C 90.542969 259.152344 81.839844 254.261719 76.277344 248.285156 Z M 55.554688 286.542969 C 58.390625 289.957031 60.960938 293.558594 63.269531 297.347656 C 65.578125 301.140625 67.597656 305.078125 69.328125 309.160156 C 71.0625 313.246094 72.488281 317.4375 73.605469 321.730469 C 74.726562 326.027344 75.527344 330.378906 76.007812 334.789062 C 76.4375 338.59375 76.636719 342.40625 76.601562 346.234375 C 73.316406 335.46875 69.050781 325.109375 63.804688 315.152344 C 60.003906 307.664062 55.835938 300.359375 51.441406 293.199219 C 47.246094 286.488281 42.605469 280.101562 37.515625 274.042969 C 32.300781 267.726562 27.21875 261.441406 22.511719 254.769531 C 27.992188 258.671875 33.082031 263.027344 37.785156 267.839844 C 43.886719 273.886719 50.058594 279.976562 55.554688 286.542969 Z M 74.722656 351.375 C 70.695312 344.277344 66.023438 337.632812 60.710938 331.441406 C 54.296875 323.699219 47.234375 316.550781 41.132812 308.46875 C 34.730469 300.128906 29.757812 291.003906 26.214844 281.105469 C 24.359375 275.839844 22.855469 270.476562 21.695312 265.015625 C 21.007812 262.078125 20.539062 259.105469 20.28125 256.097656 C 24.054688 261.652344 28.160156 266.945312 32.597656 271.980469 C 37.972656 278.125 42.917969 284.601562 47.429688 291.402344 C 56.460938 305.398438 64.125 320.105469 70.429688 335.523438 C 72.746094 341.359375 74.664062 347.320312 76.445312 353.351562 C 76.445312 353.847656 76.445312 354.34375 76.445312 354.765625 C 75.890625 353.597656 75.316406 352.46875 74.722656 351.375 Z M 168.996094 370.703125 C 162.503906 375.949219 155.675781 380.714844 148.515625 385 C 134.191406 393.476562 118.230469 398.617188 103.3125 405.851562 C 97.28125 408.777344 91.390625 411.953125 85.683594 415.457031 C 86.347656 414.285156 87.097656 413.140625 87.730469 411.996094 C 99.132812 403.039062 110.445312 394 122.523438 385.960938 C 128.992188 381.636719 135.65625 377.640625 142.511719 373.964844 C 149.773438 370.09375 156.992188 366.125 164.535156 362.820312 C 168.375 361.144531 172.355469 359.914062 176.46875 359.132812 C 178.96875 358.636719 181.457031 358.171875 183.886719 357.492188 C 179.195312 362.203125 174.234375 366.609375 168.996094 370.703125 Z M 112.691406 383.574219 C 126.125 371.988281 141.3125 363.046875 158.65625 358.808594 C 165.78125 356.992188 173.019531 356.15625 180.367188 356.304688 C 178.957031 356.617188 177.542969 356.898438 176.132812 357.183594 C 172.496094 357.878906 168.964844 358.929688 165.535156 360.332031 C 157.992188 363.523438 150.777344 367.394531 143.558594 371.308594 C 129.6875 378.875 116.5 387.492188 104.003906 397.164062 C 99.230469 400.828125 94.550781 404.59375 89.964844 408.464844 C 96.464844 399.183594 104.039062 390.886719 112.691406 383.574219 Z M 168.984375 279.3125 C 165.28125 281.867188 161.429688 284.171875 157.429688 286.234375 C 153.550781 288.085938 149.539062 289.574219 145.394531 290.699219 C 131.113281 294.722656 116.335938 296.347656 102.59375 302.269531 C 100.207031 303.273438 97.890625 304.417969 95.640625 305.703125 L 95.925781 305.363281 C 98.144531 303.949219 100.390625 302.636719 102.578125 301.25 C 106.230469 298.953125 109.921875 296.714844 113.652344 294.539062 C 121.316406 290.101562 129.230469 286.167969 137.398438 282.742188 C 143.613281 280.171875 150.011719 278.152344 156.339844 275.890625 C 162.117188 273.828125 167.894531 271.738281 173.773438 269.945312 C 177.664062 268.597656 181.652344 267.65625 185.738281 267.117188 C 180.226562 271.285156 174.746094 275.453125 168.984375 279.3125 Z M 121.082031 285.03125 C 127.511719 280.9375 134.136719 277.175781 140.859375 273.601562 C 147.667969 269.8125 154.867188 267.035156 162.457031 265.269531 C 169.082031 263.855469 176.910156 262.953125 183.902344 264.449219 C 181.296875 264.871094 178.730469 265.457031 176.203125 266.199219 C 170.015625 267.953125 163.984375 270.210938 157.964844 272.488281 C 151.949219 274.761719 145.703125 276.808594 139.6875 279.242188 C 131.59375 282.539062 123.746094 286.355469 116.152344 290.683594 C 111.761719 293.171875 107.421875 295.796875 103.226562 298.59375 C 102.492188 299.074219 101.816406 299.585938 101.066406 300.078125 L 101.84375 299.359375 C 107.839844 294.023438 114.253906 289.246094 121.082031 285.03125 Z M 134.515625 247.582031 C 137.796875 245.992188 141.246094 244.957031 144.855469 244.472656 C 147.371094 244.246094 149.886719 244.472656 151.285156 246.691406 C 152.683594 248.910156 151.285156 250.433594 149.136719 251.761719 C 145.902344 253.550781 142.464844 254.773438 138.824219 255.433594 C 135.730469 256.167969 132.59375 256.609375 129.417969 256.761719 C 125.5625 256.890625 121.734375 256.539062 117.890625 256.761719 C 119.542969 255.746094 121.195312 254.730469 122.863281 253.738281 C 126.625 251.453125 130.507812 249.402344 134.515625 247.582031 Z M 167.402344 156.585938 C 167.9375 152.734375 168.828125 148.964844 170.070312 145.28125 C 171.003906 142.625 172.261719 139.632812 174.519531 137.765625 C 175.261719 137.128906 176.117188 136.765625 177.09375 136.679688 C 177.449219 136.632812 177.804688 136.660156 178.152344 136.765625 C 178.546875 136.890625 178.390625 136.765625 178.632812 137.046875 C 178.722656 137.167969 178.796875 137.300781 178.859375 137.441406 C 178.992188 137.773438 179.046875 138.117188 179.027344 138.472656 C 179.035156 139.507812 178.902344 140.527344 178.632812 141.523438 C 177.105469 147.855469 173.757812 153.800781 170.707031 159.523438 C 169.292969 162.234375 167.769531 164.921875 166.300781 167.632812 C 166.46875 163.929688 166.835938 160.246094 167.402344 156.585938 Z M 132.566406 177.296875 C 133.046875 174.695312 134.375 171.644531 136.804688 170.375 C 137.308594 170.136719 137.835938 169.992188 138.390625 169.941406 C 138.945312 169.890625 139.492188 169.9375 140.027344 170.078125 C 140.566406 170.21875 141.066406 170.445312 141.523438 170.761719 C 141.980469 171.078125 142.371094 171.460938 142.695312 171.914062 C 146.652344 176.449219 145.324219 183.78125 143.894531 189.035156 C 142.292969 194.488281 140.207031 199.746094 137.636719 204.816406 C 137.023438 201.296875 136.1875 197.828125 135.125 194.417969 C 133.597656 189.0625 131.507812 182.988281 132.566406 177.296875 Z M 157.414062 208.039062 C 161.234375 206.105469 165.257812 204.828125 169.492188 204.207031 C 170.984375 203.988281 172.453125 204.085938 173.898438 204.503906 C 174.953125 204.824219 175.738281 205.46875 176.257812 206.441406 C 176.40625 206.683594 176.53125 206.9375 176.628906 207.203125 C 176.730469 207.46875 176.800781 207.742188 176.847656 208.023438 C 176.890625 208.300781 176.910156 208.585938 176.898438 208.867188 C 176.886719 209.152344 176.847656 209.429688 176.785156 209.707031 C 176.71875 209.984375 176.625 210.25 176.507812 210.507812 C 176.390625 210.765625 176.246094 211.011719 176.082031 211.242188 C 175.914062 211.46875 175.726562 211.683594 175.519531 211.875 C 175.3125 212.070312 175.085938 212.238281 174.847656 212.386719 C 171.867188 214.746094 167.78125 215.835938 164.195312 216.796875 C 159.351562 218.082031 154.40625 218.984375 149.488281 219.933594 C 144.042969 220.789062 138.679688 222.007812 133.402344 223.589844 L 132.3125 223.972656 L 132.453125 223.847656 C 136.042969 220.84375 139.808594 218.089844 143.753906 215.582031 C 148.132812 212.75 152.6875 210.238281 157.414062 208.039062 Z M 186.542969 170.0625 C 188.6875 169.78125 191.699219 169.554688 193.519531 171.007812 C 195.640625 172.71875 194.679688 176.492188 193.84375 178.59375 C 193.390625 179.730469 192.710938 180.707031 191.800781 181.523438 C 190.894531 182.339844 189.851562 182.914062 188.675781 183.242188 C 182.699219 185.066406 175.847656 183.496094 169.761719 183.117188 C 166.476562 182.832031 163.214844 182.980469 159.972656 183.566406 C 162.042969 181.878906 164.195312 180.300781 166.425781 178.835938 C 170.191406 176.261719 174.175781 174.09375 178.378906 172.324219 C 181.003906 171.21875 183.722656 170.464844 186.542969 170.0625 Z M 213.804688 145.902344 C 216.332031 145.566406 219.457031 145.464844 221.644531 147.035156 C 222.570312 147.726562 223.214844 148.621094 223.578125 149.71875 C 223.914062 150.453125 223.984375 151.210938 223.792969 151.992188 C 223.582031 152.539062 223.238281 152.976562 222.761719 153.308594 C 221.945312 153.84375 221.0625 154.234375 220.117188 154.480469 C 214.46875 156.105469 208.183594 155.636719 202.417969 155.3125 C 199.058594 155.117188 195.722656 154.789062 192.363281 154.578125 L 191.867188 154.578125 C 195.695312 152.285156 199.695312 150.355469 203.875 148.785156 C 207.066406 147.421875 210.378906 146.460938 213.804688 145.902344 Z M 248.414062 110.160156 C 245.078125 117.308594 237.664062 120.785156 230.644531 123.371094 C 226.40625 124.910156 222.167969 126.195312 218.140625 127.949219 C 216.730469 128.527344 215.316406 129.148438 213.902344 129.855469 C 215.476562 125.792969 217.644531 122.078125 220.402344 118.707031 C 222.40625 115.929688 224.804688 113.550781 227.605469 111.574219 C 232.414062 108.5625 237.59375 106.464844 243.144531 105.289062 C 244.300781 105.042969 245.46875 104.925781 246.648438 104.933594 C 247.417969 104.910156 248.148438 105.074219 248.835938 105.429688 C 249.238281 105.699219 249.414062 106.078125 249.359375 106.558594 C 249.308594 107.828125 248.996094 109.03125 248.414062 110.160156 Z M 248.414062 110.160156 " fill-opacity="1" fill-rule="nonzero"/><path fill="#000000" d="M 411.679688 728.242188 C 407.183594 728.261719 402.6875 728.1875 398.195312 728.023438 C 393.703125 727.859375 389.214844 727.605469 384.730469 727.261719 C 380.246094 726.917969 375.773438 726.484375 371.308594 725.960938 C 366.839844 725.4375 362.386719 724.824219 357.945312 724.125 C 353.503906 723.421875 349.082031 722.628906 344.671875 721.75 C 340.261719 720.871094 335.871094 719.902344 331.5 718.847656 C 327.128906 717.789062 322.78125 716.648438 318.457031 715.414062 C 314.132812 714.183594 309.835938 712.867188 305.5625 711.464844 C 301.292969 710.0625 297.050781 708.574219 292.839844 707 C 288.625 705.425781 284.449219 703.769531 280.300781 702.027344 C 276.15625 700.285156 272.046875 698.460938 267.976562 696.554688 C 263.902344 694.648438 259.871094 692.660156 255.878906 690.589844 C 251.886719 688.523438 247.9375 686.375 244.03125 684.148438 C 240.125 681.921875 236.265625 679.617188 232.453125 677.234375 C 228.636719 674.851562 224.875 672.394531 221.160156 669.863281 C 217.445312 667.328125 213.78125 664.722656 210.171875 662.042969 C 206.5625 659.359375 203.003906 656.609375 199.503906 653.785156 C 196.003906 650.964844 192.5625 648.070312 189.179688 645.109375 C 185.796875 642.148438 182.472656 639.121094 179.210938 636.027344 C 175.949219 632.929688 172.75 629.773438 169.617188 626.550781 C 166.480469 623.324219 163.410156 620.042969 160.40625 616.695312 C 157.402344 613.347656 154.46875 609.941406 151.601562 606.480469 C 148.734375 603.015625 145.9375 599.492188 143.214844 595.917969 C 140.488281 592.339844 137.835938 588.710938 135.257812 585.027344 C 132.675781 581.34375 130.171875 577.613281 127.742188 573.828125 C 125.3125 570.042969 122.960938 566.214844 120.683594 562.335938 C 118.40625 558.457031 116.210938 554.535156 114.089844 550.566406 C 111.972656 546.601562 109.933594 542.59375 107.976562 538.546875 C 106.019531 534.496094 104.144531 530.410156 102.351562 526.289062 C 100.558594 522.164062 98.847656 518.007812 97.21875 513.816406 C 95.59375 509.621094 94.050781 505.398438 92.59375 501.144531 C 91.136719 496.890625 89.765625 492.609375 88.480469 488.300781 C 88.402344 488.03125 88.375 487.757812 88.40625 487.480469 C 88.433594 487.203125 88.515625 486.941406 88.644531 486.695312 C 88.777344 486.449219 88.953125 486.238281 89.167969 486.0625 C 89.382812 485.882812 89.625 485.753906 89.894531 485.671875 C 90.160156 485.589844 90.433594 485.5625 90.714844 485.59375 C 90.992188 485.621094 91.253906 485.699219 91.5 485.832031 C 91.746094 485.964844 91.957031 486.140625 92.136719 486.355469 C 92.3125 486.574219 92.441406 486.816406 92.519531 487.085938 C 93.789062 491.339844 95.144531 495.570312 96.582031 499.769531 C 98.019531 503.972656 99.542969 508.140625 101.148438 512.28125 C 102.753906 516.421875 104.441406 520.527344 106.210938 524.601562 C 107.984375 528.671875 109.835938 532.707031 111.769531 536.707031 C 113.699219 540.703125 115.710938 544.660156 117.804688 548.578125 C 119.894531 552.496094 122.066406 556.367188 124.3125 560.199219 C 126.558594 564.027344 128.882812 567.8125 131.28125 571.546875 C 133.683594 575.285156 136.15625 578.972656 138.703125 582.609375 C 141.25 586.246094 143.867188 589.832031 146.558594 593.363281 C 149.25 596.894531 152.011719 600.371094 154.84375 603.792969 C 157.675781 607.210938 160.574219 610.574219 163.539062 613.878906 C 166.503906 617.183594 169.535156 620.429688 172.632812 623.613281 C 175.726562 626.792969 178.886719 629.914062 182.109375 632.96875 C 185.328125 636.027344 188.609375 639.015625 191.953125 641.941406 C 195.292969 644.863281 198.691406 647.71875 202.148438 650.507812 C 205.605469 653.296875 209.117188 656.011719 212.679688 658.660156 C 216.246094 661.304688 219.863281 663.878906 223.53125 666.382812 C 227.199219 668.882812 230.917969 671.308594 234.683594 673.660156 C 238.449219 676.011719 242.261719 678.289062 246.121094 680.488281 C 249.976562 682.6875 253.878906 684.808594 257.820312 686.847656 C 261.761719 688.890625 265.746094 690.855469 269.765625 692.738281 C 273.789062 694.617188 277.847656 696.417969 281.941406 698.136719 C 286.035156 699.859375 290.160156 701.496094 294.320312 703.046875 C 298.480469 704.601562 302.667969 706.070312 306.886719 707.457031 C 311.105469 708.839844 315.351562 710.140625 319.621094 711.355469 C 323.890625 712.570312 328.183594 713.699219 332.5 714.742188 C 336.816406 715.785156 341.152344 716.738281 345.507812 717.605469 C 349.859375 718.476562 354.230469 719.253906 358.617188 719.949219 C 363.003906 720.640625 367.402344 721.246094 371.8125 721.761719 C 376.222656 722.277344 380.640625 722.703125 385.066406 723.042969 C 389.492188 723.382812 393.925781 723.628906 398.363281 723.789062 C 402.800781 723.949219 407.238281 724.023438 411.679688 724.003906 C 432.945312 724.042969 454.019531 722.066406 474.910156 718.078125 C 495.796875 714.089844 516.117188 708.15625 535.871094 700.285156 C 536.128906 700.207031 536.390625 700.179688 536.65625 700.199219 C 536.921875 700.21875 537.175781 700.289062 537.417969 700.40625 C 537.65625 700.523438 537.867188 700.679688 538.050781 700.878906 C 538.230469 701.074219 538.367188 701.296875 538.464844 701.546875 C 538.5625 701.796875 538.609375 702.054688 538.609375 702.320312 C 538.605469 702.589844 538.558594 702.847656 538.457031 703.097656 C 538.359375 703.34375 538.21875 703.566406 538.035156 703.761719 C 537.851562 703.957031 537.640625 704.109375 537.398438 704.226562 C 517.402344 712.195312 496.828125 718.199219 475.683594 722.238281 C 454.539062 726.277344 433.207031 728.277344 411.679688 728.242188 Z M 411.679688 728.242188 " fill-opacity="1" fill-rule="nonzero"/><path fill="#000000" d="M 740.953125 341.570312 C 740.703125 341.570312 740.460938 341.527344 740.226562 341.441406 C 739.992188 341.355469 739.78125 341.234375 739.589844 341.074219 C 739.398438 340.914062 739.242188 340.726562 739.117188 340.511719 C 738.988281 340.292969 738.90625 340.0625 738.859375 339.820312 C 737.199219 330.429688 735.128906 321.132812 732.652344 311.925781 C 730.179688 302.71875 727.304688 293.632812 724.039062 284.675781 C 720.769531 275.71875 717.117188 266.921875 713.082031 258.285156 C 709.046875 249.648438 704.640625 241.199219 699.867188 232.949219 C 695.09375 224.695312 689.96875 216.664062 684.492188 208.859375 C 679.019531 201.054688 673.214844 193.5 667.078125 186.203125 C 660.945312 178.902344 654.503906 171.886719 647.757812 165.148438 C 641.011719 158.414062 633.980469 151.984375 626.671875 145.863281 C 623.53125 143.234375 620.34375 140.667969 617.109375 138.160156 C 613.871094 135.648438 610.589844 133.199219 607.265625 130.8125 C 603.941406 128.421875 600.574219 126.09375 597.160156 123.828125 C 593.75 121.5625 590.300781 119.359375 586.808594 117.222656 C 583.320312 115.082031 579.789062 113.007812 576.222656 110.996094 C 572.65625 108.984375 569.050781 107.039062 565.414062 105.164062 C 561.777344 103.285156 558.105469 101.472656 554.398438 99.726562 C 550.695312 97.984375 546.960938 96.308594 543.195312 94.699219 C 539.429688 93.09375 535.636719 91.554688 531.8125 90.085938 C 527.992188 88.617188 524.144531 87.21875 520.269531 85.890625 C 516.398438 84.5625 512.5 83.308594 508.582031 82.121094 C 504.660156 80.9375 500.722656 79.824219 496.761719 78.785156 C 492.800781 77.742188 488.824219 76.773438 484.828125 75.878906 C 480.835938 74.984375 476.824219 74.160156 472.796875 73.414062 C 468.773438 72.664062 464.734375 71.988281 460.683594 71.390625 C 456.632812 70.789062 452.574219 70.261719 448.503906 69.808594 C 444.4375 69.355469 440.359375 68.980469 436.277344 68.675781 C 432.191406 68.375 428.105469 68.144531 424.015625 67.992188 C 419.921875 67.839844 415.828125 67.761719 411.734375 67.757812 C 407.640625 67.753906 403.546875 67.824219 399.457031 67.96875 C 395.363281 68.117188 391.277344 68.335938 387.191406 68.632812 C 383.109375 68.929688 379.03125 69.300781 374.960938 69.746094 C 370.890625 70.191406 366.832031 70.710938 362.777344 71.304688 C 358.726562 71.898438 354.6875 72.5625 350.664062 73.304688 C 346.636719 74.046875 342.625 74.863281 338.625 75.75 C 334.628906 76.640625 330.648438 77.601562 326.6875 78.632812 C 322.726562 79.667969 318.785156 80.773438 314.863281 81.953125 C 310.941406 83.128906 307.042969 84.378906 303.167969 85.703125 C 299.292969 87.023438 295.441406 88.414062 291.617188 89.875 C 287.792969 91.335938 283.996094 92.867188 280.226562 94.46875 C 276.460938 96.070312 272.722656 97.738281 269.015625 99.476562 C 265.304688 101.214844 261.632812 103.019531 257.992188 104.890625 C 257.738281 105.039062 257.472656 105.128906 257.183594 105.164062 C 256.894531 105.199219 256.613281 105.175781 256.335938 105.09375 C 256.058594 105.011719 255.804688 104.878906 255.582031 104.695312 C 255.359375 104.511719 255.179688 104.292969 255.046875 104.035156 C 254.914062 103.777344 254.835938 103.503906 254.8125 103.214844 C 254.792969 102.925781 254.828125 102.644531 254.921875 102.371094 C 255.015625 102.097656 255.160156 101.851562 255.355469 101.636719 C 255.550781 101.421875 255.777344 101.253906 256.039062 101.132812 C 259.730469 99.238281 263.449219 97.410156 267.203125 95.648438 C 270.960938 93.890625 274.746094 92.199219 278.5625 90.578125 C 282.378906 88.957031 286.222656 87.40625 290.097656 85.925781 C 293.96875 84.445312 297.867188 83.035156 301.792969 81.699219 C 305.71875 80.363281 309.667969 79.097656 313.636719 77.902344 C 317.609375 76.710938 321.601562 75.589844 325.613281 74.542969 C 329.625 73.496094 333.65625 72.523438 337.703125 71.621094 C 341.75 70.722656 345.8125 69.898438 349.890625 69.148438 C 353.96875 68.394531 358.058594 67.71875 362.160156 67.121094 C 366.265625 66.519531 370.378906 65.992188 374.5 65.542969 C 378.621094 65.089844 382.75 64.714844 386.886719 64.417969 C 391.019531 64.117188 395.160156 63.894531 399.304688 63.746094 C 403.449219 63.597656 407.59375 63.527344 411.742188 63.53125 C 415.886719 63.535156 420.03125 63.613281 424.175781 63.769531 C 428.320312 63.925781 432.457031 64.15625 436.59375 64.464844 C 440.730469 64.769531 444.855469 65.152344 448.976562 65.613281 C 453.097656 66.070312 457.210938 66.605469 461.3125 67.214844 C 465.414062 67.820312 469.503906 68.503906 473.578125 69.265625 C 477.65625 70.023438 481.71875 70.855469 485.761719 71.761719 C 489.808594 72.667969 493.835938 73.652344 497.847656 74.707031 C 501.859375 75.761719 505.847656 76.886719 509.816406 78.089844 C 513.785156 79.289062 517.730469 80.5625 521.652344 81.90625 C 525.574219 83.253906 529.472656 84.667969 533.34375 86.15625 C 537.210938 87.644531 541.054688 89.203125 544.867188 90.832031 C 548.683594 92.457031 552.464844 94.15625 556.214844 95.921875 C 559.964844 97.691406 563.683594 99.523438 567.367188 101.429688 C 571.054688 103.332031 574.699219 105.300781 578.3125 107.335938 C 581.925781 109.375 585.5 111.476562 589.035156 113.644531 C 592.570312 115.808594 596.0625 118.042969 599.515625 120.335938 C 602.96875 122.632812 606.378906 124.988281 609.746094 127.410156 C 613.113281 129.828125 616.4375 132.3125 619.714844 134.851562 C 622.988281 137.394531 626.21875 139.996094 629.398438 142.65625 C 636.800781 148.851562 643.917969 155.363281 650.75 162.183594 C 657.585938 169.003906 664.105469 176.105469 670.320312 183.496094 C 676.53125 190.886719 682.410156 198.53125 687.957031 206.433594 C 693.503906 214.335938 698.691406 222.46875 703.527344 230.824219 C 708.363281 239.179688 712.828125 247.730469 716.914062 256.476562 C 721.003906 265.222656 724.707031 274.128906 728.015625 283.199219 C 731.328125 292.265625 734.238281 301.460938 736.746094 310.785156 C 739.257812 320.109375 741.355469 329.523438 743.042969 339.027344 C 743.089844 339.304688 743.082031 339.582031 743.019531 339.855469 C 742.957031 340.128906 742.847656 340.382812 742.6875 340.613281 C 742.523438 340.84375 742.324219 341.03125 742.089844 341.183594 C 741.851562 341.335938 741.59375 341.4375 741.320312 341.488281 Z M 740.953125 341.570312 " fill-opacity="1" fill-rule="nonzero"/><path fill="#000000" d="M 411.679688 714.738281 C 340.5 714.738281 273.34375 692.980469 217.492188 651.785156 C 210.707031 646.820312 204.132812 641.585938 197.773438 636.089844 C 191.414062 630.589844 185.285156 624.839844 179.390625 618.84375 C 173.5 612.847656 167.855469 606.621094 162.46875 600.167969 C 157.082031 593.710938 151.964844 587.046875 147.117188 580.175781 C 142.269531 573.304688 137.710938 566.25 133.4375 559.007812 C 129.164062 551.765625 125.191406 544.363281 121.519531 536.800781 C 117.847656 529.234375 114.488281 521.535156 111.441406 513.699219 C 108.394531 505.859375 105.671875 497.914062 103.269531 489.855469 C 103.214844 489.675781 103.199219 489.492188 103.214844 489.304688 C 103.234375 489.117188 103.289062 488.941406 103.375 488.773438 C 103.464844 488.609375 103.582031 488.464844 103.726562 488.347656 C 103.875 488.226562 104.035156 488.140625 104.21875 488.089844 C 104.394531 488.035156 104.578125 488.019531 104.761719 488.039062 C 104.949219 488.058594 105.125 488.113281 105.289062 488.199219 C 105.453125 488.289062 105.59375 488.40625 105.710938 488.550781 C 105.828125 488.695312 105.914062 488.855469 105.96875 489.035156 C 145.917969 622.34375 268.738281 711.910156 411.679688 711.910156 C 457.417969 711.910156 494.246094 705.046875 531.054688 689.632812 C 531.230469 689.5625 531.410156 689.527344 531.597656 689.527344 C 531.785156 689.527344 531.964844 689.5625 532.136719 689.632812 C 532.308594 689.707031 532.460938 689.808594 532.59375 689.941406 C 532.726562 690.074219 532.828125 690.226562 532.898438 690.398438 C 532.972656 690.570312 533.007812 690.75 533.007812 690.9375 C 533.007812 691.125 532.972656 691.304688 532.902344 691.476562 C 532.832031 691.652344 532.730469 691.804688 532.601562 691.9375 C 532.46875 692.070312 532.316406 692.171875 532.144531 692.246094 C 494.910156 707.757812 457.757812 714.738281 411.679688 714.738281 Z M 411.679688 714.738281 " fill-opacity="1" fill-rule="nonzero"/><path fill="#000000" d="M 726.683594 343.734375 C 726.332031 343.738281 726.023438 343.625 725.753906 343.394531 C 725.484375 343.167969 725.324219 342.878906 725.273438 342.53125 C 723.941406 333.425781 722.199219 324.402344 720.046875 315.453125 C 717.894531 306.507812 715.339844 297.675781 712.386719 288.960938 C 709.433594 280.246094 706.089844 271.683594 702.359375 263.273438 C 698.628906 254.863281 694.523438 246.636719 690.042969 238.597656 C 685.566406 230.5625 680.730469 222.742188 675.542969 215.144531 C 670.355469 207.542969 664.832031 200.195312 658.976562 193.097656 C 653.121094 186 646.953125 179.183594 640.480469 172.648438 C 634.003906 166.109375 627.246094 159.878906 620.203125 153.957031 C 563.277344 106.191406 489.203125 79.871094 411.679688 79.871094 C 356.757812 79.871094 310.226562 90.992188 265.238281 114.878906 C 265.070312 114.984375 264.890625 115.050781 264.699219 115.078125 C 264.503906 115.109375 264.3125 115.097656 264.125 115.046875 C 263.933594 114.996094 263.761719 114.910156 263.609375 114.789062 C 263.457031 114.667969 263.332031 114.519531 263.242188 114.347656 C 263.148438 114.175781 263.09375 113.992188 263.078125 113.796875 C 263.0625 113.601562 263.085938 113.410156 263.152344 113.226562 C 263.214844 113.039062 263.3125 112.875 263.445312 112.730469 C 263.574219 112.585938 263.730469 112.472656 263.910156 112.394531 C 309.324219 88.277344 356.277344 77.074219 411.679688 77.074219 C 489.921875 77.074219 564.648438 103.632812 622.152344 151.867188 C 629.253906 157.84375 636.070312 164.132812 642.597656 170.730469 C 649.128906 177.328125 655.347656 184.207031 661.25 191.367188 C 667.15625 198.53125 672.726562 205.945312 677.957031 213.613281 C 683.191406 221.28125 688.0625 229.167969 692.578125 237.28125 C 697.09375 245.390625 701.234375 253.6875 704.996094 262.175781 C 708.757812 270.660156 712.128906 279.300781 715.109375 288.09375 C 718.085938 296.882812 720.660156 305.792969 722.828125 314.820312 C 725 323.84375 726.753906 332.949219 728.097656 342.136719 C 728.125 342.324219 728.117188 342.507812 728.070312 342.691406 C 728.023438 342.875 727.945312 343.039062 727.832031 343.191406 C 727.71875 343.34375 727.582031 343.46875 727.421875 343.5625 C 727.257812 343.660156 727.082031 343.71875 726.894531 343.746094 Z M 726.683594 343.734375 " fill-opacity="1" fill-rule="nonzero"/></svg>