<svg xmlns="http://www.w3.org/2000/svg" xmlns:xlink="http://www.w3.org/1999/xlink" width="1920" zoomAndPan="magnify" viewBox="0 0 1440 809.999993" height="1080" preserveAspectRatio="xMidYMid meet" version="1.0"><defs><clipPath id="4bccd138a5"><path d="M 630 211.839844 L 716 211.839844 L 716 258 L 630 258 Z M 630 211.839844 " clip-rule="nonzero"/></clipPath><clipPath id="67fd5adbc9"><path d="M 735 564 L 821 564 L 821 610.089844 L 735 610.089844 Z M 735 564 " clip-rule="nonzero"/></clipPath><clipPath id="80a9174028"><path d="M 918 211.839844 L 988.769531 211.839844 L 988.769531 282 L 918 282 Z M 918 211.839844 " clip-rule="nonzero"/></clipPath><clipPath id="10fb69eda6"><path d="M 896.613281 246 L 933 246 L 933 282.339844 L 896.613281 282.339844 Z M 896.613281 246 " clip-rule="nonzero"/></clipPath></defs><path fill="#000000" d="M 550.386719 457.679688 C 549.78125 457.679688 549.230469 457.269531 549.070312 456.65625 C 541.300781 426.453125 541.375 394.546875 549.292969 364.378906 C 557.453125 333.300781 573.828125 304.792969 596.640625 281.941406 C 619.457031 259.085938 647.917969 242.6875 678.945312 234.515625 C 709.0625 226.585938 740.921875 226.507812 771.074219 234.292969 C 771.800781 234.480469 772.242188 235.226562 772.054688 235.953125 C 771.867188 236.683594 771.125 237.125 770.394531 236.9375 C 709.109375 221.113281 643.269531 239.09375 598.570312 283.871094 C 553.867188 328.644531 535.910156 394.589844 551.710938 455.972656 C 551.898438 456.699219 551.460938 457.445312 550.730469 457.632812 C 550.617188 457.664062 550.503906 457.679688 550.386719 457.679688 Z M 550.386719 457.679688 " fill-opacity="1" fill-rule="nonzero"/><g clip-path="url(#4bccd138a5)"><path fill="#000000" d="M 631.554688 257.199219 C 631.242188 257.199219 630.925781 257.089844 630.667969 256.871094 C 630.140625 256.421875 630.035156 255.648438 630.421875 255.070312 C 631.296875 253.773438 632.210938 252.484375 633.152344 251.234375 C 639.285156 243.0625 646.695312 235.976562 655.167969 230.171875 C 671.679688 218.855469 692.570312 212.34375 713.992188 211.839844 C 714.65625 211.828125 715.246094 212.300781 715.363281 212.960938 C 715.480469 213.621094 715.105469 214.269531 714.472656 214.492188 C 692.039062 222.363281 670.277344 232.484375 649.816406 244.566406 C 645.582031 247.066406 640.65625 250.089844 636.242188 253.597656 C 634.875 254.6875 633.644531 255.742188 632.484375 256.824219 C 632.226562 257.074219 631.890625 257.199219 631.554688 257.199219 Z M 704.621094 215.195312 C 687.09375 217.089844 670.359375 223.074219 656.710938 232.429688 C 650.222656 236.871094 644.382812 242.082031 639.28125 247.980469 C 642.414062 245.824219 645.578125 243.902344 648.433594 242.21875 C 666.316406 231.660156 685.179688 222.59375 704.621094 215.195312 Z M 704.621094 215.195312 " fill-opacity="1" fill-rule="nonzero"/></g><path fill="#000000" d="M 639.566406 252.625 C 639.09375 252.625 638.632812 252.375 638.382812 251.933594 C 638.007812 251.277344 638.242188 250.445312 638.894531 250.074219 C 639.457031 249.75 640.03125 249.441406 640.601562 249.132812 C 640.621094 249.121094 640.632812 249.113281 640.652344 249.105469 C 650.882812 243.613281 662.449219 240.003906 674.109375 238.664062 C 693.992188 236.375 715.5 240.382812 734.675781 249.945312 C 735.273438 250.246094 735.570312 250.9375 735.363281 251.578125 C 735.164062 252.222656 734.527344 252.617188 733.859375 252.515625 C 710.367188 248.996094 686.414062 247.769531 662.664062 248.890625 C 655.851562 249.207031 648.605469 249.757812 641.773438 251.597656 C 641.261719 251.875 640.75 252.15625 640.238281 252.445312 C 640.027344 252.570312 639.792969 252.625 639.566406 252.625 Z M 679.742188 245.765625 C 694.804688 245.765625 709.886719 246.6875 724.816406 248.53125 C 708.4375 242.019531 690.847656 239.484375 674.414062 241.378906 C 666.703125 242.265625 659.035156 244.171875 651.796875 246.980469 C 655.425781 246.554688 659.035156 246.328125 662.539062 246.164062 C 668.261719 245.902344 674.003906 245.765625 679.742188 245.765625 Z M 679.742188 245.765625 " fill-opacity="1" fill-rule="nonzero"/><path fill="#000000" d="M 732.933594 219.738281 C 732.933594 220.007812 732.90625 220.273438 732.855469 220.539062 C 732.804688 220.800781 732.726562 221.058594 732.621094 221.304688 C 732.519531 221.554688 732.394531 221.789062 732.246094 222.015625 C 732.097656 222.238281 731.925781 222.445312 731.738281 222.632812 C 731.546875 222.824219 731.339844 222.996094 731.117188 223.144531 C 730.894531 223.292969 730.660156 223.417969 730.410156 223.523438 C 730.164062 223.625 729.90625 223.703125 729.644531 223.753906 C 729.378906 223.808594 729.113281 223.835938 728.847656 223.835938 C 728.578125 223.835938 728.3125 223.808594 728.046875 223.753906 C 727.785156 223.703125 727.53125 223.625 727.28125 223.523438 C 727.035156 223.417969 726.796875 223.292969 726.574219 223.144531 C 726.351562 222.996094 726.144531 222.824219 725.953125 222.632812 C 725.765625 222.445312 725.597656 222.238281 725.445312 222.015625 C 725.296875 221.789062 725.171875 221.554688 725.070312 221.304688 C 724.964844 221.058594 724.886719 220.800781 724.835938 220.539062 C 724.785156 220.273438 724.757812 220.007812 724.757812 219.738281 C 724.757812 219.46875 724.785156 219.203125 724.835938 218.941406 C 724.886719 218.675781 724.964844 218.421875 725.070312 218.171875 C 725.171875 217.921875 725.296875 217.6875 725.445312 217.464844 C 725.597656 217.242188 725.765625 217.035156 725.953125 216.84375 C 726.144531 216.652344 726.351562 216.484375 726.574219 216.335938 C 726.796875 216.183594 727.035156 216.058594 727.28125 215.957031 C 727.53125 215.851562 727.785156 215.777344 728.046875 215.722656 C 728.3125 215.671875 728.578125 215.644531 728.847656 215.644531 C 729.113281 215.644531 729.378906 215.671875 729.644531 215.722656 C 729.90625 215.777344 730.164062 215.851562 730.410156 215.957031 C 730.660156 216.058594 730.894531 216.183594 731.117188 216.335938 C 731.339844 216.484375 731.546875 216.652344 731.738281 216.84375 C 731.925781 217.035156 732.097656 217.242188 732.246094 217.464844 C 732.394531 217.6875 732.519531 217.921875 732.621094 218.171875 C 732.726562 218.421875 732.804688 218.675781 732.855469 218.941406 C 732.90625 219.203125 732.933594 219.46875 732.933594 219.738281 Z M 732.933594 219.738281 " fill-opacity="1" fill-rule="nonzero"/><path fill="#000000" d="M 775.484375 235.441406 C 775.484375 235.710938 775.457031 235.976562 775.40625 236.238281 C 775.351562 236.503906 775.277344 236.757812 775.171875 237.007812 C 775.070312 237.257812 774.945312 237.492188 774.796875 237.714844 C 774.644531 237.9375 774.476562 238.144531 774.285156 238.335938 C 774.097656 238.527344 773.890625 238.695312 773.667969 238.84375 C 773.445312 238.996094 773.207031 239.121094 772.960938 239.222656 C 772.710938 239.328125 772.457031 239.40625 772.191406 239.457031 C 771.929688 239.507812 771.664062 239.535156 771.394531 239.535156 C 771.128906 239.535156 770.863281 239.507812 770.597656 239.457031 C 770.335938 239.40625 770.078125 239.328125 769.832031 239.222656 C 769.582031 239.121094 769.347656 238.996094 769.125 238.84375 C 768.902344 238.695312 768.695312 238.527344 768.503906 238.335938 C 768.316406 238.144531 768.144531 237.9375 767.996094 237.714844 C 767.847656 237.492188 767.722656 237.257812 767.617188 237.007812 C 767.515625 236.757812 767.4375 236.503906 767.386719 236.238281 C 767.332031 235.976562 767.308594 235.710938 767.308594 235.441406 C 767.308594 235.171875 767.332031 234.90625 767.386719 234.640625 C 767.4375 234.378906 767.515625 234.121094 767.617188 233.875 C 767.722656 233.625 767.847656 233.390625 767.996094 233.164062 C 768.144531 232.941406 768.316406 232.734375 768.503906 232.546875 C 768.695312 232.355469 768.902344 232.183594 769.125 232.035156 C 769.347656 231.886719 769.582031 231.761719 769.832031 231.65625 C 770.078125 231.554688 770.335938 231.476562 770.597656 231.425781 C 770.863281 231.371094 771.128906 231.347656 771.394531 231.347656 C 771.664062 231.347656 771.929688 231.371094 772.191406 231.425781 C 772.457031 231.476562 772.710938 231.554688 772.960938 231.65625 C 773.207031 231.761719 773.445312 231.886719 773.667969 232.035156 C 773.890625 232.183594 774.097656 232.355469 774.285156 232.546875 C 774.476562 232.734375 774.644531 232.941406 774.796875 233.164062 C 774.945312 233.390625 775.070312 233.625 775.171875 233.875 C 775.277344 234.121094 775.351562 234.378906 775.40625 234.640625 C 775.457031 234.90625 775.484375 235.171875 775.484375 235.441406 Z M 775.484375 235.441406 " fill-opacity="1" fill-rule="nonzero"/><path fill="#000000" d="M 756.210938 248.953125 C 756.210938 249.222656 756.183594 249.488281 756.132812 249.753906 C 756.078125 250.015625 756 250.273438 755.898438 250.519531 C 755.796875 250.769531 755.671875 251.003906 755.519531 251.230469 C 755.371094 251.453125 755.203125 251.660156 755.011719 251.847656 C 754.824219 252.039062 754.617188 252.210938 754.394531 252.359375 C 754.167969 252.507812 753.933594 252.632812 753.6875 252.738281 C 753.4375 252.839844 753.183594 252.917969 752.917969 252.96875 C 752.65625 253.023438 752.390625 253.046875 752.121094 253.046875 C 751.851562 253.046875 751.585938 253.023438 751.324219 252.96875 C 751.0625 252.917969 750.804688 252.839844 750.558594 252.738281 C 750.308594 252.632812 750.074219 252.507812 749.851562 252.359375 C 749.628906 252.210938 749.421875 252.039062 749.230469 251.847656 C 749.042969 251.660156 748.871094 251.453125 748.722656 251.230469 C 748.574219 251.003906 748.449219 250.769531 748.34375 250.519531 C 748.242188 250.273438 748.164062 250.015625 748.113281 249.753906 C 748.058594 249.488281 748.035156 249.222656 748.035156 248.953125 C 748.035156 248.683594 748.058594 248.417969 748.113281 248.15625 C 748.164062 247.890625 748.242188 247.636719 748.34375 247.386719 C 748.449219 247.136719 748.574219 246.902344 748.722656 246.679688 C 748.871094 246.457031 749.042969 246.25 749.230469 246.058594 C 749.421875 245.867188 749.628906 245.699219 749.851562 245.550781 C 750.074219 245.398438 750.308594 245.273438 750.558594 245.171875 C 750.804688 245.066406 751.0625 244.988281 751.324219 244.9375 C 751.585938 244.886719 751.851562 244.859375 752.121094 244.859375 C 752.390625 244.859375 752.65625 244.886719 752.917969 244.9375 C 753.183594 244.988281 753.4375 245.066406 753.6875 245.171875 C 753.933594 245.273438 754.167969 245.398438 754.394531 245.550781 C 754.617188 245.699219 754.824219 245.867188 755.011719 246.058594 C 755.203125 246.25 755.371094 246.457031 755.519531 246.679688 C 755.671875 246.902344 755.796875 247.136719 755.898438 247.386719 C 756 247.636719 756.078125 247.890625 756.132812 248.15625 C 756.183594 248.417969 756.210938 248.683594 756.210938 248.953125 Z M 756.210938 248.953125 " fill-opacity="1" fill-rule="nonzero"/><path fill="#000000" d="M 564.847656 485.671875 C 564.847656 485.9375 564.820312 486.203125 564.769531 486.46875 C 564.714844 486.734375 564.640625 486.988281 564.535156 487.238281 C 564.433594 487.484375 564.308594 487.722656 564.160156 487.945312 C 564.007812 488.167969 563.839844 488.375 563.648438 488.566406 C 563.460938 488.753906 563.253906 488.925781 563.03125 489.074219 C 562.808594 489.222656 562.570312 489.351562 562.324219 489.453125 C 562.074219 489.554688 561.820312 489.632812 561.554688 489.6875 C 561.292969 489.738281 561.027344 489.765625 560.757812 489.765625 C 560.492188 489.765625 560.226562 489.738281 559.960938 489.6875 C 559.699219 489.632812 559.441406 489.554688 559.195312 489.453125 C 558.945312 489.351562 558.710938 489.222656 558.488281 489.074219 C 558.265625 488.925781 558.058594 488.753906 557.867188 488.566406 C 557.679688 488.375 557.507812 488.167969 557.359375 487.945312 C 557.210938 487.722656 557.085938 487.484375 556.980469 487.238281 C 556.878906 486.988281 556.800781 486.734375 556.75 486.46875 C 556.695312 486.203125 556.671875 485.9375 556.671875 485.671875 C 556.671875 485.402344 556.695312 485.136719 556.75 484.871094 C 556.800781 484.605469 556.878906 484.351562 556.980469 484.101562 C 557.085938 483.855469 557.210938 483.617188 557.359375 483.394531 C 557.507812 483.171875 557.679688 482.964844 557.867188 482.773438 C 558.058594 482.585938 558.265625 482.414062 558.488281 482.265625 C 558.710938 482.117188 558.945312 481.988281 559.195312 481.886719 C 559.441406 481.785156 559.699219 481.707031 559.960938 481.652344 C 560.226562 481.601562 560.492188 481.574219 560.757812 481.574219 C 561.027344 481.574219 561.292969 481.601562 561.554688 481.652344 C 561.820312 481.707031 562.074219 481.785156 562.324219 481.886719 C 562.570312 481.988281 562.808594 482.117188 563.03125 482.265625 C 563.253906 482.414062 563.460938 482.585938 563.648438 482.773438 C 563.839844 482.964844 564.007812 483.171875 564.160156 483.394531 C 564.308594 483.617188 564.433594 483.855469 564.535156 484.101562 C 564.640625 484.351562 564.714844 484.605469 564.769531 484.871094 C 564.820312 485.136719 564.847656 485.402344 564.847656 485.671875 Z M 564.847656 485.671875 " fill-opacity="1" fill-rule="nonzero"/><path fill="#000000" d="M 589.765625 525.8125 C 589.765625 526.082031 589.742188 526.347656 589.6875 526.613281 C 589.636719 526.875 589.558594 527.132812 589.457031 527.378906 C 589.355469 527.628906 589.226562 527.863281 589.078125 528.089844 C 588.929688 528.3125 588.761719 528.519531 588.570312 528.707031 C 588.378906 528.898438 588.171875 529.070312 587.949219 529.21875 C 587.726562 529.367188 587.492188 529.492188 587.242188 529.597656 C 586.996094 529.699219 586.738281 529.777344 586.476562 529.828125 C 586.214844 529.882812 585.949219 529.910156 585.679688 529.910156 C 585.410156 529.910156 585.144531 529.882812 584.882812 529.828125 C 584.617188 529.777344 584.363281 529.699219 584.113281 529.597656 C 583.867188 529.492188 583.632812 529.367188 583.40625 529.21875 C 583.183594 529.070312 582.976562 528.898438 582.789062 528.707031 C 582.597656 528.519531 582.429688 528.3125 582.28125 528.089844 C 582.132812 527.863281 582.003906 527.628906 581.902344 527.378906 C 581.800781 527.132812 581.722656 526.875 581.667969 526.613281 C 581.617188 526.347656 581.589844 526.082031 581.589844 525.8125 C 581.589844 525.542969 581.617188 525.277344 581.667969 525.015625 C 581.722656 524.75 581.800781 524.496094 581.902344 524.246094 C 582.003906 523.996094 582.132812 523.761719 582.28125 523.539062 C 582.429688 523.316406 582.597656 523.109375 582.789062 522.917969 C 582.976562 522.726562 583.183594 522.558594 583.40625 522.410156 C 583.632812 522.257812 583.867188 522.132812 584.113281 522.03125 C 584.363281 521.925781 584.617188 521.851562 584.882812 521.796875 C 585.144531 521.746094 585.410156 521.71875 585.679688 521.71875 C 585.949219 521.71875 586.214844 521.746094 586.476562 521.796875 C 586.738281 521.851562 586.996094 521.925781 587.242188 522.03125 C 587.492188 522.132812 587.726562 522.257812 587.949219 522.410156 C 588.171875 522.558594 588.378906 522.726562 588.570312 522.917969 C 588.761719 523.109375 588.929688 523.316406 589.078125 523.539062 C 589.226562 523.761719 589.355469 523.996094 589.457031 524.246094 C 589.558594 524.496094 589.636719 524.75 589.6875 525.015625 C 589.742188 525.277344 589.765625 525.542969 589.765625 525.8125 Z M 589.765625 525.8125 " fill-opacity="1" fill-rule="nonzero"/><path fill="#000000" d="M 624.214844 558.136719 C 624.214844 558.40625 624.1875 558.671875 624.136719 558.933594 C 624.082031 559.199219 624.003906 559.453125 623.902344 559.703125 C 623.800781 559.949219 623.671875 560.1875 623.523438 560.410156 C 623.375 560.632812 623.207031 560.839844 623.015625 561.03125 C 622.828125 561.222656 622.621094 561.390625 622.398438 561.539062 C 622.171875 561.691406 621.9375 561.816406 621.691406 561.917969 C 621.441406 562.023438 621.1875 562.097656 620.921875 562.152344 C 620.660156 562.203125 620.394531 562.230469 620.125 562.230469 C 619.855469 562.230469 619.589844 562.203125 619.328125 562.152344 C 619.0625 562.097656 618.808594 562.023438 618.5625 561.917969 C 618.3125 561.816406 618.078125 561.691406 617.855469 561.539062 C 617.628906 561.390625 617.425781 561.222656 617.234375 561.03125 C 617.042969 560.839844 616.875 560.632812 616.726562 560.410156 C 616.578125 560.1875 616.449219 559.949219 616.347656 559.703125 C 616.246094 559.453125 616.167969 559.199219 616.117188 558.933594 C 616.0625 558.671875 616.035156 558.40625 616.035156 558.136719 C 616.035156 557.867188 616.0625 557.601562 616.117188 557.335938 C 616.167969 557.074219 616.246094 556.816406 616.347656 556.570312 C 616.449219 556.320312 616.578125 556.085938 616.726562 555.859375 C 616.875 555.636719 617.042969 555.429688 617.234375 555.238281 C 617.425781 555.050781 617.628906 554.878906 617.855469 554.730469 C 618.078125 554.582031 618.3125 554.457031 618.5625 554.351562 C 618.808594 554.25 619.0625 554.171875 619.328125 554.121094 C 619.589844 554.066406 619.855469 554.039062 620.125 554.039062 C 620.394531 554.039062 620.660156 554.066406 620.921875 554.121094 C 621.1875 554.171875 621.441406 554.25 621.691406 554.351562 C 621.9375 554.457031 622.171875 554.582031 622.398438 554.730469 C 622.621094 554.878906 622.828125 555.050781 623.015625 555.238281 C 623.207031 555.429688 623.375 555.636719 623.523438 555.859375 C 623.671875 556.085938 623.800781 556.320312 623.902344 556.570312 C 624.003906 556.816406 624.082031 557.074219 624.136719 557.335938 C 624.1875 557.601562 624.214844 557.867188 624.214844 558.136719 Z M 624.214844 558.136719 " fill-opacity="1" fill-rule="nonzero"/><path fill="#000000" d="M 647.320312 248.726562 C 646.84375 248.726562 646.382812 248.476562 646.132812 248.03125 C 645.761719 247.371094 646 246.542969 646.652344 246.175781 C 678.34375 228.386719 729.296875 218.175781 729.808594 218.074219 C 730.542969 217.929688 731.261719 218.410156 731.40625 219.148438 C 731.554688 219.890625 731.070312 220.605469 730.335938 220.75 C 729.828125 220.847656 679.292969 230.980469 647.984375 248.554688 C 647.777344 248.671875 647.546875 248.726562 647.320312 248.726562 Z M 647.320312 248.726562 " fill-opacity="1" fill-rule="nonzero"/><path fill="#000000" d="M 566.699219 325 C 566.617188 325 566.539062 324.992188 566.449219 324.976562 C 565.769531 324.851562 565.292969 324.230469 565.339844 323.539062 C 565.445312 321.980469 565.597656 320.40625 565.789062 318.855469 C 567.019531 308.707031 569.898438 298.863281 574.339844 289.59375 C 582.996094 271.519531 597.835938 255.425781 616.132812 244.257812 C 616.703125 243.90625 617.445312 244.027344 617.882812 244.539062 C 618.316406 245.054688 618.3125 245.804688 617.875 246.316406 C 602.378906 264.367188 588.585938 284.027344 576.894531 304.746094 C 574.472656 309.027344 571.71875 314.113281 569.648438 319.363281 C 569.003906 320.992188 568.46875 322.519531 568.003906 324.035156 C 567.828125 324.617188 567.292969 325 566.699219 325 Z M 609.691406 251.851562 C 595.460938 262.277344 583.953125 275.835938 576.804688 290.773438 C 573.402344 297.863281 570.949219 305.308594 569.472656 312.96875 C 571.105469 309.535156 572.890625 306.285156 574.523438 303.398438 C 584.738281 285.292969 596.546875 267.992188 609.691406 251.851562 Z M 609.691406 251.851562 " fill-opacity="1" fill-rule="nonzero"/><path fill="#000000" d="M 571.355469 317.027344 C 571.121094 317.027344 570.882812 316.96875 570.667969 316.84375 C 570.015625 316.460938 569.796875 315.625 570.179688 314.972656 C 570.507812 314.414062 570.84375 313.859375 571.1875 313.300781 C 571.199219 313.285156 571.207031 313.269531 571.21875 313.253906 C 577.335938 303.375 585.550781 294.453125 594.980469 287.453125 C 611.058594 275.515625 631.6875 268.214844 653.066406 266.894531 C 653.734375 266.851562 654.335938 267.304688 654.480469 267.957031 C 654.625 268.613281 654.269531 269.277344 653.648438 269.523438 C 631.546875 278.238281 610.191406 289.179688 590.179688 302.039062 C 584.4375 305.726562 578.4375 309.832031 573.4375 314.84375 C 573.128906 315.339844 572.828125 315.839844 572.535156 316.347656 C 572.277344 316.789062 571.824219 317.027344 571.355469 317.027344 Z M 643.828125 270.605469 C 626.390625 273.167969 609.894531 279.789062 596.605469 289.65625 C 590.371094 294.285156 584.683594 299.777344 579.816406 305.835938 C 582.746094 303.652344 585.761719 301.644531 588.714844 299.753906 C 606.191406 288.515625 624.695312 278.734375 643.828125 270.605469 Z M 643.828125 270.605469 " fill-opacity="1" fill-rule="nonzero"/><path fill="#000000" d="M 637.027344 243.652344 C 637.027344 243.921875 637 244.1875 636.949219 244.453125 C 636.898438 244.714844 636.820312 244.972656 636.714844 245.21875 C 636.613281 245.46875 636.488281 245.703125 636.339844 245.929688 C 636.191406 246.152344 636.019531 246.359375 635.832031 246.550781 C 635.640625 246.738281 635.433594 246.910156 635.210938 247.058594 C 634.988281 247.207031 634.753906 247.332031 634.503906 247.4375 C 634.257812 247.539062 634 247.617188 633.738281 247.667969 C 633.472656 247.722656 633.207031 247.75 632.941406 247.75 C 632.671875 247.75 632.40625 247.722656 632.140625 247.667969 C 631.878906 247.617188 631.625 247.539062 631.375 247.4375 C 631.128906 247.332031 630.890625 247.207031 630.667969 247.058594 C 630.445312 246.910156 630.238281 246.738281 630.050781 246.550781 C 629.859375 246.359375 629.691406 246.152344 629.539062 245.929688 C 629.390625 245.703125 629.265625 245.46875 629.164062 245.21875 C 629.058594 244.972656 628.980469 244.714844 628.929688 244.453125 C 628.878906 244.1875 628.851562 243.921875 628.851562 243.652344 C 628.851562 243.382812 628.878906 243.117188 628.929688 242.855469 C 628.980469 242.589844 629.058594 242.335938 629.164062 242.085938 C 629.265625 241.835938 629.390625 241.601562 629.539062 241.378906 C 629.691406 241.15625 629.859375 240.949219 630.050781 240.757812 C 630.238281 240.566406 630.445312 240.398438 630.667969 240.25 C 630.890625 240.097656 631.128906 239.972656 631.375 239.871094 C 631.625 239.765625 631.878906 239.691406 632.140625 239.636719 C 632.40625 239.585938 632.671875 239.558594 632.941406 239.558594 C 633.207031 239.558594 633.472656 239.585938 633.738281 239.636719 C 634 239.691406 634.257812 239.765625 634.503906 239.871094 C 634.753906 239.972656 634.988281 240.097656 635.210938 240.25 C 635.433594 240.398438 635.640625 240.566406 635.832031 240.757812 C 636.019531 240.949219 636.191406 241.15625 636.339844 241.378906 C 636.488281 241.601562 636.613281 241.835938 636.714844 242.085938 C 636.820312 242.335938 636.898438 242.589844 636.949219 242.855469 C 637 243.117188 637.027344 243.382812 637.027344 243.652344 Z M 637.027344 243.652344 " fill-opacity="1" fill-rule="nonzero"/><path fill="#000000" d="M 576.125 309.765625 C 575.890625 309.765625 575.648438 309.703125 575.429688 309.578125 C 574.785156 309.191406 574.574219 308.351562 574.953125 307.707031 C 593.519531 276.433594 632.550781 242.070312 632.941406 241.730469 C 633.507812 241.234375 634.367188 241.292969 634.859375 241.855469 C 635.355469 242.425781 635.296875 243.285156 634.734375 243.78125 C 634.34375 244.121094 595.636719 278.203125 577.292969 309.097656 C 577.042969 309.53125 576.589844 309.765625 576.125 309.765625 Z M 576.125 309.765625 " fill-opacity="1" fill-rule="nonzero"/><path fill="#000000" d="M 544.382812 416.199219 C 543.875 416.199219 543.394531 415.910156 543.15625 415.433594 C 542.472656 414.027344 541.8125 412.585938 541.207031 411.148438 C 537.210938 401.742188 534.785156 391.773438 534.007812 381.523438 C 532.480469 361.539062 537.296875 340.164062 547.566406 321.332031 C 547.890625 320.742188 548.589844 320.476562 549.222656 320.699219 C 549.851562 320.929688 550.226562 321.578125 550.101562 322.238281 C 545.691406 345.636719 543.5625 369.566406 543.777344 393.367188 C 543.820312 398.289062 543.980469 404.074219 544.800781 409.65625 C 545.054688 411.390625 545.355469 412.980469 545.710938 414.527344 C 545.863281 415.207031 545.492188 415.886719 544.835938 416.121094 C 544.6875 416.175781 544.53125 416.199219 544.382812 416.199219 Z M 545.777344 331.136719 C 538.65625 347.289062 535.460938 364.796875 536.722656 381.3125 C 537.320312 389.164062 538.910156 396.839844 541.457031 404.210938 C 541.164062 400.414062 541.082031 396.707031 541.054688 393.390625 C 540.863281 372.597656 542.453125 351.699219 545.777344 331.136719 Z M 545.777344 331.136719 " fill-opacity="1" fill-rule="nonzero"/><path fill="#000000" d="M 544.433594 406.964844 C 544.429688 406.964844 544.429688 406.964844 544.425781 406.964844 C 543.671875 406.960938 543.066406 406.347656 543.070312 405.59375 C 543.074219 404.941406 543.089844 404.289062 543.113281 403.644531 C 543.113281 403.625 543.113281 403.609375 543.113281 403.589844 C 543.480469 391.96875 546.140625 380.132812 550.8125 369.347656 C 558.773438 350.957031 572.992188 334.300781 590.847656 322.453125 C 591.40625 322.078125 592.152344 322.175781 592.605469 322.667969 C 593.0625 323.164062 593.082031 323.914062 592.671875 324.441406 C 577.878906 343.058594 564.847656 363.222656 553.9375 384.386719 C 550.804688 390.460938 547.660156 397.015625 545.828125 403.859375 C 545.808594 404.445312 545.796875 405.027344 545.792969 405.613281 C 545.792969 406.359375 545.183594 406.964844 544.433594 406.964844 Z M 584.703125 330.289062 C 570.878906 341.238281 559.894531 355.230469 553.3125 370.433594 C 550.226562 377.566406 548.039062 385.167969 546.851562 392.855469 C 548.300781 389.5 549.910156 386.25 551.519531 383.132812 C 561.050781 364.640625 572.191406 346.902344 584.703125 330.289062 Z M 584.703125 330.289062 " fill-opacity="1" fill-rule="nonzero"/><path fill="#000000" d="M 565.90625 312.398438 C 565.90625 312.667969 565.878906 312.933594 565.828125 313.195312 C 565.773438 313.460938 565.695312 313.714844 565.59375 313.964844 C 565.492188 314.210938 565.367188 314.449219 565.214844 314.671875 C 565.066406 314.894531 564.898438 315.101562 564.707031 315.292969 C 564.519531 315.484375 564.3125 315.652344 564.089844 315.800781 C 563.867188 315.953125 563.628906 316.078125 563.382812 316.179688 C 563.132812 316.285156 562.878906 316.359375 562.613281 316.414062 C 562.351562 316.464844 562.085938 316.492188 561.816406 316.492188 C 561.550781 316.492188 561.28125 316.464844 561.019531 316.414062 C 560.757812 316.359375 560.5 316.285156 560.253906 316.179688 C 560.003906 316.078125 559.769531 315.953125 559.546875 315.800781 C 559.324219 315.652344 559.117188 315.484375 558.925781 315.292969 C 558.738281 315.101562 558.566406 314.894531 558.417969 314.671875 C 558.269531 314.449219 558.144531 314.210938 558.039062 313.964844 C 557.9375 313.714844 557.859375 313.460938 557.808594 313.195312 C 557.753906 312.933594 557.730469 312.667969 557.730469 312.398438 C 557.730469 312.128906 557.753906 311.863281 557.808594 311.597656 C 557.859375 311.335938 557.9375 311.078125 558.039062 310.832031 C 558.144531 310.582031 558.269531 310.347656 558.417969 310.121094 C 558.566406 309.898438 558.738281 309.691406 558.925781 309.5 C 559.117188 309.3125 559.324219 309.140625 559.546875 308.992188 C 559.769531 308.84375 560.003906 308.71875 560.253906 308.613281 C 560.5 308.511719 560.757812 308.433594 561.019531 308.382812 C 561.28125 308.328125 561.550781 308.300781 561.816406 308.300781 C 562.085938 308.300781 562.351562 308.328125 562.613281 308.382812 C 562.878906 308.433594 563.132812 308.511719 563.382812 308.613281 C 563.628906 308.71875 563.867188 308.84375 564.089844 308.992188 C 564.3125 309.140625 564.519531 309.3125 564.707031 309.5 C 564.898438 309.691406 565.066406 309.898438 565.214844 310.121094 C 565.367188 310.347656 565.492188 310.582031 565.59375 310.832031 C 565.695312 311.078125 565.773438 311.335938 565.828125 311.597656 C 565.878906 311.863281 565.90625 312.128906 565.90625 312.398438 Z M 565.90625 312.398438 " fill-opacity="1" fill-rule="nonzero"/><path fill="#000000" d="M 544.941406 398.289062 C 544.9375 398.289062 544.929688 398.289062 544.921875 398.289062 C 544.167969 398.28125 543.570312 397.660156 543.578125 396.90625 C 544.046875 360.527344 560.691406 311.21875 560.859375 310.726562 C 561.101562 310.011719 561.875 309.632812 562.589844 309.875 C 563.304688 310.117188 563.683594 310.894531 563.4375 311.609375 C 563.269531 312.101562 546.761719 361.003906 546.304688 396.941406 C 546.292969 397.6875 545.683594 398.289062 544.941406 398.289062 Z M 544.941406 398.289062 " fill-opacity="1" fill-rule="nonzero"/><path fill="#000000" d="M 751.816406 249.90625 C 751.644531 249.90625 751.472656 249.871094 751.304688 249.804688 C 750.804688 249.601562 701.148438 229.617188 671.851562 239.398438 C 671.136719 239.636719 670.367188 239.25 670.128906 238.535156 C 669.894531 237.820312 670.277344 237.046875 670.992188 236.808594 C 683.730469 232.5625 701.308594 233.035156 723.234375 238.226562 C 739.484375 242.070312 752.210938 247.230469 752.335938 247.28125 C 753.03125 247.5625 753.367188 248.359375 753.085938 249.058594 C 752.867188 249.585938 752.351562 249.90625 751.816406 249.90625 Z M 751.816406 249.90625 " fill-opacity="1" fill-rule="nonzero"/><path fill="#000000" d="M 620.878906 295.554688 C 620.878906 295.824219 620.851562 296.089844 620.800781 296.351562 C 620.75 296.617188 620.671875 296.871094 620.566406 297.121094 C 620.464844 297.367188 620.339844 297.605469 620.191406 297.828125 C 620.042969 298.050781 619.871094 298.257812 619.683594 298.449219 C 619.492188 298.640625 619.285156 298.808594 619.0625 298.957031 C 618.839844 299.109375 618.605469 299.234375 618.355469 299.335938 C 618.109375 299.441406 617.851562 299.515625 617.589844 299.570312 C 617.324219 299.621094 617.058594 299.648438 616.792969 299.648438 C 616.523438 299.648438 616.257812 299.621094 615.992188 299.570312 C 615.730469 299.515625 615.472656 299.441406 615.226562 299.335938 C 614.976562 299.234375 614.742188 299.109375 614.519531 298.957031 C 614.296875 298.808594 614.089844 298.640625 613.898438 298.449219 C 613.710938 298.257812 613.539062 298.050781 613.390625 297.828125 C 613.242188 297.605469 613.117188 297.367188 613.015625 297.121094 C 612.910156 296.871094 612.832031 296.617188 612.78125 296.351562 C 612.730469 296.089844 612.703125 295.824219 612.703125 295.554688 C 612.703125 295.285156 612.730469 295.019531 612.78125 294.753906 C 612.832031 294.492188 612.910156 294.234375 613.015625 293.988281 C 613.117188 293.738281 613.242188 293.503906 613.390625 293.277344 C 613.539062 293.054688 613.710938 292.847656 613.898438 292.65625 C 614.089844 292.46875 614.296875 292.296875 614.519531 292.148438 C 614.742188 292 614.976562 291.875 615.226562 291.769531 C 615.472656 291.667969 615.730469 291.589844 615.992188 291.539062 C 616.257812 291.484375 616.523438 291.457031 616.792969 291.457031 C 617.058594 291.457031 617.324219 291.484375 617.589844 291.539062 C 617.851562 291.589844 618.109375 291.667969 618.355469 291.769531 C 618.605469 291.875 618.839844 292 619.0625 292.148438 C 619.285156 292.296875 619.492188 292.46875 619.683594 292.65625 C 619.871094 292.847656 620.042969 293.054688 620.191406 293.277344 C 620.339844 293.503906 620.464844 293.738281 620.566406 293.988281 C 620.671875 294.234375 620.75 294.492188 620.800781 294.753906 C 620.851562 295.019531 620.878906 295.285156 620.878906 295.554688 Z M 620.878906 295.554688 " fill-opacity="1" fill-rule="nonzero"/><path fill="#000000" d="M 564.628906 329.472656 C 564.273438 329.472656 563.921875 329.335938 563.652344 329.058594 C 563.125 328.515625 563.140625 327.652344 563.679688 327.128906 C 584.484375 306.832031 604.664062 298.121094 612.375 295.316406 C 614.621094 294.507812 615.882812 294.160156 615.9375 294.148438 C 616.664062 293.949219 617.414062 294.378906 617.609375 295.109375 C 617.808594 295.835938 617.378906 296.585938 616.65625 296.78125 C 616.640625 296.785156 615.433594 297.117188 613.308594 297.886719 C 605.765625 300.632812 586.011719 309.164062 565.585938 329.089844 C 565.316406 329.34375 564.96875 329.472656 564.628906 329.472656 Z M 564.628906 329.472656 " fill-opacity="1" fill-rule="nonzero"/><path fill="#000000" d="M 725.476562 593.425781 C 710.125 593.425781 694.777344 591.5 679.847656 587.640625 C 679.117188 587.453125 678.679688 586.707031 678.863281 585.980469 C 679.050781 585.253906 679.796875 584.8125 680.523438 585 C 695.226562 588.792969 710.203125 590.644531 725.074219 590.644531 C 772.195312 590.648438 818.375 572.089844 852.347656 538.0625 C 897.050781 493.285156 915.003906 427.339844 899.207031 365.957031 C 899.023438 365.230469 899.457031 364.484375 900.191406 364.296875 C 900.921875 364.109375 901.660156 364.546875 901.847656 365.28125 C 909.621094 395.480469 909.542969 427.390625 901.625 457.554688 C 893.46875 488.636719 877.089844 517.140625 854.277344 539.996094 C 831.460938 562.847656 803.003906 579.246094 771.972656 587.417969 C 756.773438 591.421875 741.125 593.425781 725.476562 593.425781 Z M 725.476562 593.425781 " fill-opacity="1" fill-rule="nonzero"/><g clip-path="url(#67fd5adbc9)"><path fill="#000000" d="M 736.898438 610.089844 C 736.242188 610.089844 735.679688 609.621094 735.558594 608.972656 C 735.441406 608.3125 735.820312 607.660156 736.449219 607.4375 C 758.886719 599.566406 780.644531 589.449219 801.109375 577.363281 C 805.34375 574.867188 810.265625 571.839844 814.679688 568.332031 C 816.046875 567.246094 817.28125 566.1875 818.4375 565.105469 C 818.941406 564.632812 819.722656 564.613281 820.25 565.066406 C 820.777344 565.515625 820.882812 566.289062 820.496094 566.867188 C 819.625 568.164062 818.707031 569.453125 817.765625 570.703125 C 811.632812 578.875 804.222656 585.957031 795.753906 591.765625 C 779.242188 603.078125 758.347656 609.589844 736.925781 610.09375 C 736.917969 610.089844 736.910156 610.089844 736.898438 610.089844 Z M 811.648438 573.949219 C 808.511719 576.109375 805.351562 578.027344 802.492188 579.710938 C 784.609375 590.269531 765.746094 599.339844 746.308594 606.738281 C 763.832031 604.839844 780.566406 598.855469 794.21875 589.503906 C 800.703125 585.0625 806.546875 579.847656 811.648438 573.949219 Z M 811.648438 573.949219 " fill-opacity="1" fill-rule="nonzero"/></g><path fill="#000000" d="M 765.722656 583.890625 C 749.113281 583.890625 731.90625 579.789062 716.253906 571.980469 C 715.65625 571.679688 715.359375 570.988281 715.5625 570.347656 C 715.769531 569.707031 716.398438 569.308594 717.066406 569.40625 C 740.5625 572.925781 764.515625 574.152344 788.261719 573.03125 C 795.074219 572.714844 802.320312 572.164062 809.152344 570.324219 C 809.667969 570.046875 810.179688 569.765625 810.6875 569.476562 C 811.34375 569.105469 812.175781 569.335938 812.546875 569.992188 C 812.917969 570.648438 812.6875 571.480469 812.03125 571.855469 C 811.46875 572.175781 810.902344 572.484375 810.328125 572.796875 C 810.3125 572.804688 810.296875 572.8125 810.28125 572.824219 C 800.050781 578.3125 788.484375 581.921875 776.824219 583.265625 C 773.167969 583.683594 769.457031 583.890625 765.722656 583.890625 Z M 726.101562 573.402344 C 742.484375 579.910156 760.070312 582.445312 776.507812 580.554688 C 784.214844 579.664062 791.882812 577.757812 799.125 574.953125 C 795.492188 575.375 791.882812 575.601562 788.378906 575.765625 C 767.632812 576.738281 746.730469 575.945312 726.101562 573.402344 Z M 726.101562 573.402344 " fill-opacity="1" fill-rule="nonzero"/><path fill="#000000" d="M 726.164062 602.191406 C 726.164062 602.460938 726.140625 602.726562 726.085938 602.992188 C 726.035156 603.253906 725.957031 603.511719 725.855469 603.757812 C 725.75 604.007812 725.625 604.242188 725.476562 604.46875 C 725.328125 604.691406 725.15625 604.898438 724.96875 605.085938 C 724.777344 605.277344 724.570312 605.449219 724.347656 605.597656 C 724.125 605.746094 723.890625 605.871094 723.640625 605.976562 C 723.394531 606.078125 723.136719 606.15625 722.875 606.207031 C 722.613281 606.261719 722.347656 606.285156 722.078125 606.285156 C 721.808594 606.285156 721.542969 606.261719 721.28125 606.207031 C 721.015625 606.15625 720.761719 606.078125 720.511719 605.976562 C 720.265625 605.871094 720.03125 605.746094 719.804688 605.597656 C 719.582031 605.449219 719.375 605.277344 719.1875 605.085938 C 718.996094 604.898438 718.828125 604.691406 718.679688 604.46875 C 718.527344 604.242188 718.402344 604.007812 718.300781 603.757812 C 718.199219 603.511719 718.121094 603.253906 718.066406 602.992188 C 718.015625 602.726562 717.988281 602.460938 717.988281 602.191406 C 717.988281 601.921875 718.015625 601.65625 718.066406 601.394531 C 718.121094 601.128906 718.199219 600.875 718.300781 600.625 C 718.402344 600.375 718.527344 600.140625 718.679688 599.917969 C 718.828125 599.695312 718.996094 599.488281 719.1875 599.296875 C 719.375 599.105469 719.582031 598.9375 719.804688 598.789062 C 720.03125 598.636719 720.265625 598.511719 720.511719 598.410156 C 720.761719 598.304688 721.015625 598.226562 721.28125 598.175781 C 721.542969 598.125 721.808594 598.097656 722.078125 598.097656 C 722.347656 598.097656 722.613281 598.125 722.875 598.175781 C 723.136719 598.226562 723.394531 598.304688 723.640625 598.410156 C 723.890625 598.511719 724.125 598.636719 724.347656 598.789062 C 724.570312 598.9375 724.777344 599.105469 724.96875 599.296875 C 725.15625 599.488281 725.328125 599.695312 725.476562 599.917969 C 725.625 600.140625 725.75 600.375 725.855469 600.625 C 725.957031 600.875 726.035156 601.128906 726.085938 601.394531 C 726.140625 601.65625 726.164062 601.921875 726.164062 602.191406 Z M 726.164062 602.191406 " fill-opacity="1" fill-rule="nonzero"/><path fill="#000000" d="M 683.617188 586.492188 C 683.617188 586.757812 683.589844 587.027344 683.539062 587.289062 C 683.484375 587.554688 683.40625 587.808594 683.304688 588.058594 C 683.203125 588.304688 683.074219 588.542969 682.925781 588.765625 C 682.777344 588.988281 682.609375 589.195312 682.417969 589.386719 C 682.230469 589.574219 682.023438 589.746094 681.800781 589.894531 C 681.574219 590.042969 681.339844 590.171875 681.09375 590.273438 C 680.84375 590.375 680.589844 590.453125 680.324219 590.507812 C 680.0625 590.558594 679.796875 590.585938 679.527344 590.585938 C 679.257812 590.585938 678.992188 590.558594 678.730469 590.507812 C 678.46875 590.453125 678.210938 590.375 677.964844 590.273438 C 677.714844 590.171875 677.480469 590.042969 677.257812 589.894531 C 677.035156 589.746094 676.828125 589.574219 676.636719 589.386719 C 676.445312 589.195312 676.277344 588.988281 676.128906 588.765625 C 675.980469 588.542969 675.851562 588.304688 675.75 588.058594 C 675.648438 587.808594 675.570312 587.554688 675.519531 587.289062 C 675.464844 587.027344 675.441406 586.757812 675.441406 586.492188 C 675.441406 586.222656 675.464844 585.957031 675.519531 585.691406 C 675.570312 585.429688 675.648438 585.171875 675.75 584.921875 C 675.851562 584.675781 675.980469 584.4375 676.128906 584.214844 C 676.277344 583.992188 676.445312 583.785156 676.636719 583.59375 C 676.828125 583.40625 677.035156 583.234375 677.257812 583.085938 C 677.480469 582.9375 677.714844 582.808594 677.964844 582.707031 C 678.210938 582.605469 678.46875 582.527344 678.730469 582.472656 C 678.992188 582.421875 679.257812 582.394531 679.527344 582.394531 C 679.796875 582.394531 680.0625 582.421875 680.324219 582.472656 C 680.589844 582.527344 680.84375 582.605469 681.09375 582.707031 C 681.339844 582.808594 681.574219 582.9375 681.800781 583.085938 C 682.023438 583.234375 682.230469 583.40625 682.417969 583.59375 C 682.609375 583.785156 682.777344 583.992188 682.925781 584.214844 C 683.074219 584.4375 683.203125 584.675781 683.304688 584.921875 C 683.40625 585.171875 683.484375 585.429688 683.539062 585.691406 C 683.589844 585.957031 683.617188 586.222656 683.617188 586.492188 Z M 683.617188 586.492188 " fill-opacity="1" fill-rule="nonzero"/><path fill="#000000" d="M 702.890625 572.980469 C 702.890625 573.25 702.863281 573.515625 702.8125 573.78125 C 702.757812 574.042969 702.679688 574.300781 702.578125 574.550781 C 702.476562 574.796875 702.351562 575.035156 702.199219 575.257812 C 702.050781 575.480469 701.882812 575.6875 701.691406 575.878906 C 701.503906 576.066406 701.296875 576.238281 701.074219 576.386719 C 700.851562 576.535156 700.613281 576.664062 700.367188 576.765625 C 700.117188 576.867188 699.863281 576.945312 699.597656 577 C 699.335938 577.050781 699.070312 577.078125 698.800781 577.078125 C 698.535156 577.078125 698.265625 577.050781 698.003906 577 C 697.742188 576.945312 697.484375 576.867188 697.238281 576.765625 C 696.988281 576.664062 696.753906 576.535156 696.53125 576.386719 C 696.308594 576.238281 696.101562 576.066406 695.910156 575.878906 C 695.722656 575.6875 695.550781 575.480469 695.402344 575.257812 C 695.253906 575.035156 695.128906 574.796875 695.023438 574.550781 C 694.921875 574.300781 694.84375 574.042969 694.792969 573.78125 C 694.738281 573.515625 694.714844 573.25 694.714844 572.980469 C 694.714844 572.714844 694.738281 572.445312 694.792969 572.183594 C 694.84375 571.917969 694.921875 571.664062 695.023438 571.414062 C 695.128906 571.167969 695.253906 570.929688 695.402344 570.707031 C 695.550781 570.484375 695.722656 570.277344 695.910156 570.085938 C 696.101562 569.894531 696.308594 569.726562 696.53125 569.578125 C 696.753906 569.425781 696.988281 569.300781 697.238281 569.199219 C 697.484375 569.097656 697.742188 569.019531 698.003906 568.964844 C 698.265625 568.914062 698.535156 568.886719 698.800781 568.886719 C 699.070312 568.886719 699.335938 568.914062 699.597656 568.964844 C 699.863281 569.019531 700.117188 569.097656 700.367188 569.199219 C 700.613281 569.300781 700.851562 569.425781 701.074219 569.578125 C 701.296875 569.726562 701.503906 569.894531 701.691406 570.085938 C 701.882812 570.277344 702.050781 570.484375 702.199219 570.707031 C 702.351562 570.929688 702.476562 571.167969 702.578125 571.414062 C 702.679688 571.664062 702.757812 571.917969 702.8125 572.183594 C 702.863281 572.445312 702.890625 572.714844 702.890625 572.980469 Z M 702.890625 572.980469 " fill-opacity="1" fill-rule="nonzero"/><path fill="#000000" d="M 894.253906 336.265625 C 894.253906 336.535156 894.226562 336.800781 894.175781 337.066406 C 894.121094 337.328125 894.042969 337.585938 893.941406 337.832031 C 893.839844 338.082031 893.710938 338.316406 893.5625 338.539062 C 893.414062 338.765625 893.246094 338.972656 893.054688 339.160156 C 892.867188 339.351562 892.660156 339.519531 892.4375 339.671875 C 892.210938 339.820312 891.976562 339.945312 891.730469 340.050781 C 891.480469 340.152344 891.226562 340.230469 890.960938 340.28125 C 890.699219 340.335938 890.433594 340.359375 890.164062 340.359375 C 889.894531 340.359375 889.628906 340.335938 889.367188 340.28125 C 889.105469 340.230469 888.847656 340.152344 888.601562 340.050781 C 888.351562 339.945312 888.117188 339.820312 887.894531 339.671875 C 887.667969 339.519531 887.464844 339.351562 887.273438 339.160156 C 887.082031 338.972656 886.914062 338.765625 886.765625 338.539062 C 886.617188 338.316406 886.488281 338.082031 886.386719 337.832031 C 886.285156 337.585938 886.207031 337.328125 886.15625 337.066406 C 886.101562 336.800781 886.074219 336.535156 886.078125 336.265625 C 886.074219 335.996094 886.101562 335.730469 886.15625 335.46875 C 886.207031 335.203125 886.285156 334.945312 886.386719 334.699219 C 886.488281 334.449219 886.617188 334.214844 886.765625 333.992188 C 886.914062 333.765625 887.082031 333.558594 887.273438 333.371094 C 887.464844 333.179688 887.667969 333.011719 887.894531 332.859375 C 888.117188 332.710938 888.351562 332.585938 888.601562 332.484375 C 888.847656 332.378906 889.105469 332.300781 889.367188 332.25 C 889.628906 332.195312 889.894531 332.171875 890.164062 332.171875 C 890.433594 332.171875 890.699219 332.195312 890.960938 332.25 C 891.226562 332.300781 891.480469 332.378906 891.730469 332.484375 C 891.976562 332.585938 892.210938 332.710938 892.4375 332.859375 C 892.660156 333.011719 892.867188 333.179688 893.054688 333.371094 C 893.246094 333.558594 893.414062 333.765625 893.5625 333.992188 C 893.710938 334.214844 893.839844 334.449219 893.941406 334.699219 C 894.042969 334.945312 894.121094 335.203125 894.175781 335.46875 C 894.226562 335.730469 894.253906 335.996094 894.253906 336.265625 Z M 894.253906 336.265625 " fill-opacity="1" fill-rule="nonzero"/><path fill="#000000" d="M 869.332031 296.117188 C 869.332031 296.386719 869.304688 296.652344 869.253906 296.917969 C 869.203125 297.179688 869.125 297.4375 869.019531 297.683594 C 868.917969 297.933594 868.792969 298.167969 868.644531 298.394531 C 868.496094 298.617188 868.324219 298.824219 868.136719 299.011719 C 867.945312 299.203125 867.738281 299.375 867.515625 299.523438 C 867.292969 299.671875 867.058594 299.796875 866.808594 299.902344 C 866.5625 300.003906 866.304688 300.082031 866.042969 300.132812 C 865.777344 300.1875 865.511719 300.210938 865.246094 300.210938 C 864.976562 300.210938 864.710938 300.1875 864.445312 300.132812 C 864.183594 300.082031 863.925781 300.003906 863.679688 299.902344 C 863.429688 299.796875 863.195312 299.671875 862.972656 299.523438 C 862.75 299.375 862.542969 299.203125 862.351562 299.011719 C 862.164062 298.824219 861.992188 298.617188 861.84375 298.394531 C 861.695312 298.167969 861.570312 297.933594 861.46875 297.683594 C 861.363281 297.4375 861.285156 297.179688 861.234375 296.917969 C 861.183594 296.652344 861.15625 296.386719 861.15625 296.117188 C 861.15625 295.847656 861.183594 295.582031 861.234375 295.320312 C 861.285156 295.054688 861.363281 294.800781 861.46875 294.550781 C 861.570312 294.300781 861.695312 294.066406 861.84375 293.84375 C 861.992188 293.621094 862.164062 293.414062 862.351562 293.222656 C 862.542969 293.03125 862.75 292.863281 862.972656 292.714844 C 863.195312 292.5625 863.429688 292.4375 863.679688 292.335938 C 863.925781 292.230469 864.183594 292.152344 864.445312 292.101562 C 864.710938 292.050781 864.976562 292.023438 865.246094 292.023438 C 865.511719 292.023438 865.777344 292.050781 866.042969 292.101562 C 866.304688 292.152344 866.5625 292.230469 866.808594 292.335938 C 867.058594 292.4375 867.292969 292.5625 867.515625 292.714844 C 867.738281 292.863281 867.945312 293.03125 868.136719 293.222656 C 868.324219 293.414062 868.496094 293.621094 868.644531 293.84375 C 868.792969 294.066406 868.917969 294.300781 869.019531 294.550781 C 869.125 294.800781 869.203125 295.054688 869.253906 295.320312 C 869.304688 295.582031 869.332031 295.847656 869.332031 296.117188 Z M 869.332031 296.117188 " fill-opacity="1" fill-rule="nonzero"/><path fill="#000000" d="M 834.886719 263.800781 C 834.886719 264.070312 834.859375 264.335938 834.808594 264.597656 C 834.753906 264.863281 834.679688 265.117188 834.574219 265.367188 C 834.472656 265.617188 834.347656 265.851562 834.199219 266.074219 C 834.046875 266.296875 833.878906 266.503906 833.6875 266.695312 C 833.5 266.886719 833.292969 267.054688 833.070312 267.203125 C 832.847656 267.355469 832.609375 267.480469 832.363281 267.582031 C 832.113281 267.6875 831.859375 267.765625 831.597656 267.816406 C 831.332031 267.867188 831.066406 267.894531 830.796875 267.894531 C 830.53125 267.894531 830.265625 267.867188 830 267.816406 C 829.738281 267.765625 829.480469 267.6875 829.234375 267.582031 C 828.984375 267.480469 828.75 267.355469 828.527344 267.203125 C 828.304688 267.054688 828.097656 266.886719 827.90625 266.695312 C 827.71875 266.503906 827.546875 266.296875 827.398438 266.074219 C 827.25 265.851562 827.125 265.617188 827.019531 265.367188 C 826.917969 265.117188 826.839844 264.863281 826.789062 264.597656 C 826.734375 264.335938 826.710938 264.070312 826.710938 263.800781 C 826.710938 263.53125 826.734375 263.265625 826.789062 263 C 826.839844 262.738281 826.917969 262.480469 827.019531 262.234375 C 827.125 261.984375 827.25 261.75 827.398438 261.523438 C 827.546875 261.300781 827.71875 261.09375 827.90625 260.90625 C 828.097656 260.714844 828.304688 260.542969 828.527344 260.394531 C 828.75 260.246094 828.984375 260.121094 829.234375 260.015625 C 829.480469 259.914062 829.738281 259.835938 830 259.785156 C 830.265625 259.730469 830.53125 259.707031 830.796875 259.707031 C 831.066406 259.707031 831.332031 259.730469 831.597656 259.785156 C 831.859375 259.835938 832.113281 259.914062 832.363281 260.015625 C 832.609375 260.121094 832.847656 260.246094 833.070312 260.394531 C 833.292969 260.542969 833.5 260.714844 833.6875 260.90625 C 833.878906 261.09375 834.046875 261.300781 834.199219 261.523438 C 834.347656 261.75 834.472656 261.984375 834.574219 262.234375 C 834.679688 262.480469 834.753906 262.738281 834.808594 263 C 834.859375 263.265625 834.886719 263.53125 834.886719 263.800781 Z M 834.886719 263.800781 " fill-opacity="1" fill-rule="nonzero"/><path fill="#000000" d="M 720.847656 603.890625 C 720.210938 603.890625 719.636719 603.4375 719.511719 602.789062 C 719.367188 602.046875 719.847656 601.332031 720.582031 601.1875 C 721.09375 601.085938 771.628906 590.953125 802.933594 573.382812 C 803.59375 573.015625 804.417969 573.25 804.789062 573.90625 C 805.15625 574.566406 804.917969 575.394531 804.265625 575.761719 C 772.578125 593.546875 721.625 603.761719 721.109375 603.863281 C 721.023438 603.878906 720.9375 603.890625 720.847656 603.890625 Z M 720.847656 603.890625 " fill-opacity="1" fill-rule="nonzero"/><path fill="#000000" d="M 834.082031 577.878906 C 833.691406 577.878906 833.308594 577.710938 833.042969 577.394531 C 832.605469 576.882812 832.609375 576.128906 833.046875 575.621094 C 848.546875 557.566406 862.335938 537.90625 874.03125 517.191406 C 876.449219 512.910156 879.203125 507.824219 881.273438 502.574219 C 881.917969 500.945312 882.457031 499.414062 882.917969 497.898438 C 883.125 497.234375 883.792969 496.832031 884.46875 496.957031 C 885.148438 497.085938 885.625 497.703125 885.582031 498.394531 C 885.472656 499.957031 885.320312 501.53125 885.132812 503.082031 C 883.898438 513.226562 881.019531 523.074219 876.578125 532.34375 C 867.925781 550.414062 853.082031 566.511719 834.785156 577.675781 C 834.570312 577.8125 834.324219 577.878906 834.082031 577.878906 Z M 881.453125 508.964844 C 879.816406 512.402344 878.03125 515.648438 876.402344 518.539062 C 866.183594 536.640625 854.375 553.941406 841.234375 570.082031 C 855.464844 559.660156 866.96875 546.101562 874.121094 531.164062 C 877.523438 524.066406 879.980469 516.621094 881.453125 508.964844 Z M 881.453125 508.964844 " fill-opacity="1" fill-rule="nonzero"/><path fill="#000000" d="M 797.773438 555.03125 C 797.136719 555.03125 796.585938 554.589844 796.441406 553.964844 C 796.296875 553.308594 796.652344 552.644531 797.273438 552.398438 C 819.378906 543.683594 840.734375 532.742188 860.742188 519.886719 C 866.484375 516.195312 872.484375 512.089844 877.484375 507.078125 C 877.796875 506.582031 878.09375 506.082031 878.390625 505.574219 C 878.773438 504.925781 879.609375 504.707031 880.257812 505.089844 C 880.90625 505.472656 881.125 506.308594 880.742188 506.957031 C 880.417969 507.519531 880.078125 508.074219 879.734375 508.628906 C 879.726562 508.648438 879.714844 508.660156 879.703125 508.679688 C 873.589844 518.554688 865.371094 527.480469 855.941406 534.476562 C 839.863281 546.414062 819.238281 553.71875 797.855469 555.039062 C 797.828125 555.03125 797.800781 555.03125 797.773438 555.03125 Z M 871.113281 516.097656 C 868.183594 518.285156 865.167969 520.289062 862.214844 522.183594 C 844.730469 533.421875 826.226562 543.203125 807.09375 551.328125 C 824.535156 548.765625 841.027344 542.148438 854.320312 532.277344 C 860.554688 527.652344 866.242188 522.160156 871.113281 516.097656 Z M 871.113281 516.097656 " fill-opacity="1" fill-rule="nonzero"/><path fill="#000000" d="M 822.070312 578.277344 C 822.070312 578.546875 822.046875 578.8125 821.992188 579.078125 C 821.941406 579.339844 821.863281 579.597656 821.761719 579.84375 C 821.65625 580.09375 821.53125 580.328125 821.382812 580.554688 C 821.234375 580.777344 821.0625 580.984375 820.875 581.171875 C 820.683594 581.363281 820.476562 581.535156 820.253906 581.683594 C 820.03125 581.832031 819.796875 581.957031 819.546875 582.0625 C 819.300781 582.164062 819.042969 582.242188 818.78125 582.292969 C 818.519531 582.347656 818.253906 582.371094 817.984375 582.371094 C 817.714844 582.371094 817.449219 582.347656 817.1875 582.292969 C 816.921875 582.242188 816.667969 582.164062 816.417969 582.0625 C 816.171875 581.957031 815.9375 581.832031 815.710938 581.683594 C 815.488281 581.535156 815.28125 581.363281 815.09375 581.171875 C 814.902344 580.984375 814.734375 580.777344 814.585938 580.554688 C 814.433594 580.328125 814.308594 580.09375 814.207031 579.84375 C 814.105469 579.597656 814.027344 579.339844 813.972656 579.078125 C 813.921875 578.8125 813.894531 578.546875 813.894531 578.277344 C 813.894531 578.007812 813.921875 577.742188 813.972656 577.480469 C 814.027344 577.214844 814.105469 576.960938 814.207031 576.710938 C 814.308594 576.460938 814.433594 576.226562 814.585938 576.003906 C 814.734375 575.78125 814.902344 575.574219 815.09375 575.382812 C 815.28125 575.191406 815.488281 575.023438 815.710938 574.875 C 815.9375 574.722656 816.171875 574.597656 816.417969 574.496094 C 816.667969 574.390625 816.921875 574.3125 817.1875 574.261719 C 817.449219 574.210938 817.714844 574.183594 817.984375 574.183594 C 818.253906 574.183594 818.519531 574.210938 818.78125 574.261719 C 819.042969 574.3125 819.300781 574.390625 819.546875 574.496094 C 819.796875 574.597656 820.03125 574.722656 820.253906 574.875 C 820.476562 575.023438 820.683594 575.191406 820.875 575.382812 C 821.0625 575.574219 821.234375 575.78125 821.382812 576.003906 C 821.53125 576.226562 821.65625 576.460938 821.761719 576.710938 C 821.863281 576.960938 821.941406 577.214844 821.992188 577.480469 C 822.046875 577.742188 822.070312 578.007812 822.070312 578.277344 Z M 822.070312 578.277344 " fill-opacity="1" fill-rule="nonzero"/><path fill="#000000" d="M 817.085938 580.542969 C 816.703125 580.542969 816.324219 580.382812 816.058594 580.078125 C 815.5625 579.511719 815.621094 578.652344 816.183594 578.15625 C 816.574219 577.8125 855.28125 543.730469 873.625 512.835938 C 874.011719 512.191406 874.847656 511.976562 875.492188 512.359375 C 876.136719 512.746094 876.351562 513.582031 875.96875 514.230469 C 857.402344 545.5 818.375 579.867188 817.984375 580.207031 C 817.726562 580.433594 817.402344 580.542969 817.085938 580.542969 Z M 817.085938 580.542969 " fill-opacity="1" fill-rule="nonzero"/><path fill="#000000" d="M 902.160156 501.3125 C 902.007812 501.3125 901.851562 501.285156 901.703125 501.230469 C 901.070312 501.003906 900.699219 500.351562 900.820312 499.691406 C 905.230469 476.292969 907.363281 452.363281 907.144531 428.566406 C 907.101562 423.640625 906.945312 417.859375 906.121094 412.277344 C 905.867188 410.542969 905.566406 408.949219 905.214844 407.402344 C 905.058594 406.726562 905.433594 406.042969 906.085938 405.8125 C 906.738281 405.578125 907.460938 405.875 907.765625 406.496094 C 908.453125 407.902344 909.109375 409.347656 909.714844 410.785156 C 913.710938 420.1875 916.136719 430.15625 916.914062 440.40625 C 918.441406 460.390625 913.625 481.765625 903.355469 500.597656 C 903.109375 501.046875 902.648438 501.3125 902.160156 501.3125 Z M 909.464844 417.722656 C 909.761719 421.515625 909.84375 425.226562 909.871094 428.542969 C 910.054688 449.335938 908.464844 470.230469 905.144531 490.792969 C 912.269531 474.640625 915.460938 457.132812 914.199219 440.617188 C 913.605469 432.769531 912.015625 425.09375 909.464844 417.722656 Z M 909.464844 417.722656 " fill-opacity="1" fill-rule="nonzero"/><path fill="#000000" d="M 859.316406 499.710938 C 858.945312 499.710938 858.574219 499.5625 858.3125 499.269531 C 857.859375 498.773438 857.835938 498.023438 858.25 497.496094 C 873.039062 478.878906 886.070312 458.710938 896.984375 437.550781 C 900.113281 431.476562 903.261719 424.921875 905.089844 418.078125 C 905.109375 417.488281 905.121094 416.90625 905.128906 416.320312 C 905.132812 415.570312 905.742188 414.964844 906.492188 414.964844 C 906.496094 414.964844 906.496094 414.964844 906.5 414.964844 C 907.253906 414.96875 907.859375 415.582031 907.851562 416.339844 C 907.847656 416.988281 907.835938 417.640625 907.8125 418.285156 C 907.8125 418.304688 907.8125 418.324219 907.8125 418.339844 C 907.445312 429.960938 904.78125 441.800781 900.113281 452.582031 C 892.148438 470.972656 877.929688 487.632812 860.074219 499.480469 C 859.839844 499.632812 859.578125 499.710938 859.316406 499.710938 Z M 904.074219 429.078125 C 902.625 432.4375 901.011719 435.683594 899.402344 438.800781 C 889.875 457.289062 878.730469 475.027344 866.222656 491.644531 C 880.042969 480.691406 891.027344 466.703125 897.609375 451.496094 C 900.699219 444.371094 902.882812 436.769531 904.074219 429.078125 Z M 904.074219 429.078125 " fill-opacity="1" fill-rule="nonzero"/><path fill="#000000" d="M 893.195312 509.539062 C 893.195312 509.808594 893.167969 510.074219 893.117188 510.335938 C 893.0625 510.601562 892.984375 510.855469 892.882812 511.105469 C 892.78125 511.355469 892.65625 511.589844 892.503906 511.8125 C 892.355469 512.035156 892.1875 512.242188 891.996094 512.433594 C 891.808594 512.625 891.601562 512.792969 891.378906 512.941406 C 891.152344 513.09375 890.917969 513.21875 890.671875 513.320312 C 890.421875 513.425781 890.167969 513.503906 889.902344 513.554688 C 889.640625 513.605469 889.375 513.632812 889.105469 513.632812 C 888.835938 513.632812 888.570312 513.605469 888.308594 513.554688 C 888.046875 513.503906 887.789062 513.425781 887.542969 513.320312 C 887.292969 513.21875 887.058594 513.09375 886.835938 512.941406 C 886.613281 512.792969 886.40625 512.625 886.214844 512.433594 C 886.023438 512.242188 885.855469 512.035156 885.707031 511.8125 C 885.558594 511.589844 885.429688 511.355469 885.328125 511.105469 C 885.226562 510.855469 885.148438 510.601562 885.097656 510.335938 C 885.042969 510.074219 885.019531 509.808594 885.019531 509.539062 C 885.019531 509.269531 885.042969 509.003906 885.097656 508.738281 C 885.148438 508.476562 885.226562 508.21875 885.328125 507.972656 C 885.429688 507.722656 885.558594 507.488281 885.707031 507.261719 C 885.855469 507.039062 886.023438 506.832031 886.214844 506.644531 C 886.40625 506.453125 886.613281 506.28125 886.835938 506.132812 C 887.058594 505.984375 887.292969 505.859375 887.542969 505.753906 C 887.789062 505.652344 888.046875 505.574219 888.308594 505.523438 C 888.570312 505.46875 888.835938 505.445312 889.105469 505.445312 C 889.375 505.445312 889.640625 505.46875 889.902344 505.523438 C 890.167969 505.574219 890.421875 505.652344 890.671875 505.753906 C 890.917969 505.859375 891.152344 505.984375 891.378906 506.132812 C 891.601562 506.28125 891.808594 506.453125 891.996094 506.644531 C 892.1875 506.832031 892.355469 507.039062 892.503906 507.261719 C 892.65625 507.488281 892.78125 507.722656 892.882812 507.972656 C 892.984375 508.21875 893.0625 508.476562 893.117188 508.738281 C 893.167969 509.003906 893.195312 509.269531 893.195312 509.539062 Z M 893.195312 509.539062 " fill-opacity="1" fill-rule="nonzero"/><path fill="#000000" d="M 888.773438 512.132812 C 888.628906 512.132812 888.480469 512.109375 888.332031 512.058594 C 887.621094 511.816406 887.238281 511.039062 887.484375 510.324219 C 887.652344 509.835938 904.160156 460.933594 904.617188 424.992188 C 904.628906 424.238281 905.230469 423.628906 906 423.644531 C 906.753906 423.65625 907.351562 424.273438 907.34375 425.027344 C 906.875 461.410156 890.234375 510.71875 890.066406 511.207031 C 889.875 511.773438 889.34375 512.132812 888.773438 512.132812 Z M 888.773438 512.132812 " fill-opacity="1" fill-rule="nonzero"/><path fill="#000000" d="M 759.84375 587.996094 C 750.496094 587.996094 739.753906 586.566406 727.691406 583.710938 C 711.445312 579.867188 698.714844 574.707031 698.59375 574.65625 C 697.898438 574.375 697.5625 573.578125 697.84375 572.878906 C 698.128906 572.175781 698.925781 571.84375 699.621094 572.125 C 700.117188 572.332031 749.773438 592.3125 779.074219 582.53125 C 779.785156 582.296875 780.558594 582.683594 780.792969 583.398438 C 781.03125 584.109375 780.644531 584.882812 779.929688 585.121094 C 774.203125 587.035156 767.488281 587.996094 759.84375 587.996094 Z M 759.84375 587.996094 " fill-opacity="1" fill-rule="nonzero"/><path fill="#000000" d="M 838.222656 526.382812 C 838.21875 526.652344 838.195312 526.917969 838.140625 527.179688 C 838.089844 527.445312 838.011719 527.699219 837.910156 527.949219 C 837.808594 528.199219 837.679688 528.433594 837.53125 528.65625 C 837.382812 528.878906 837.214844 529.085938 837.023438 529.277344 C 836.832031 529.46875 836.628906 529.636719 836.402344 529.785156 C 836.179688 529.9375 835.945312 530.0625 835.695312 530.164062 C 835.449219 530.269531 835.191406 530.347656 834.929688 530.398438 C 834.667969 530.449219 834.402344 530.476562 834.132812 530.476562 C 833.863281 530.476562 833.597656 530.449219 833.335938 530.398438 C 833.070312 530.347656 832.816406 530.269531 832.566406 530.164062 C 832.320312 530.0625 832.085938 529.9375 831.859375 529.785156 C 831.636719 529.636719 831.429688 529.46875 831.242188 529.277344 C 831.050781 529.085938 830.882812 528.878906 830.734375 528.65625 C 830.585938 528.433594 830.457031 528.199219 830.355469 527.949219 C 830.253906 527.699219 830.175781 527.445312 830.121094 527.179688 C 830.070312 526.917969 830.042969 526.652344 830.042969 526.382812 C 830.042969 526.113281 830.070312 525.847656 830.121094 525.582031 C 830.175781 525.320312 830.253906 525.0625 830.355469 524.816406 C 830.457031 524.566406 830.585938 524.332031 830.734375 524.105469 C 830.882812 523.882812 831.050781 523.675781 831.242188 523.488281 C 831.429688 523.296875 831.636719 523.125 831.859375 522.976562 C 832.085938 522.828125 832.320312 522.703125 832.566406 522.597656 C 832.816406 522.496094 833.070312 522.417969 833.335938 522.367188 C 833.597656 522.3125 833.863281 522.289062 834.132812 522.289062 C 834.402344 522.289062 834.667969 522.3125 834.929688 522.367188 C 835.191406 522.417969 835.449219 522.496094 835.695312 522.597656 C 835.945312 522.703125 836.179688 522.828125 836.402344 522.976562 C 836.628906 523.125 836.832031 523.296875 837.023438 523.488281 C 837.214844 523.675781 837.382812 523.882812 837.53125 524.105469 C 837.679688 524.332031 837.808594 524.566406 837.910156 524.816406 C 838.011719 525.0625 838.089844 525.320312 838.140625 525.582031 C 838.195312 525.847656 838.21875 526.113281 838.222656 526.382812 Z M 838.222656 526.382812 " fill-opacity="1" fill-rule="nonzero"/><path fill="#000000" d="M 834.632812 527.832031 C 834.03125 527.832031 833.484375 527.433594 833.320312 526.828125 C 833.121094 526.101562 833.550781 525.347656 834.273438 525.152344 C 834.285156 525.148438 835.496094 524.816406 837.621094 524.046875 C 845.160156 521.304688 864.917969 512.773438 885.339844 492.84375 C 885.878906 492.316406 886.742188 492.332031 887.265625 492.871094 C 887.792969 493.414062 887.78125 494.277344 887.238281 494.800781 C 866.433594 515.097656 846.257812 523.8125 838.542969 526.613281 C 836.300781 527.425781 835.035156 527.769531 834.980469 527.785156 C 834.867188 527.820312 834.75 527.832031 834.632812 527.832031 Z M 834.632812 527.832031 " fill-opacity="1" fill-rule="nonzero"/><g clip-path="url(#80a9174028)"><path fill="#231f20" d="M 952.988281 230.621094 C 952.878906 231.597656 952.691406 232.558594 952.421875 233.503906 C 952.152344 234.449219 951.804688 235.367188 951.378906 236.253906 C 950.953125 237.140625 950.453125 237.984375 949.886719 238.785156 C 949.316406 239.585938 948.683594 240.335938 947.988281 241.03125 C 947.289062 241.726562 946.539062 242.359375 945.738281 242.925781 C 944.933594 243.496094 944.085938 243.992188 943.199219 244.417969 C 942.3125 244.839844 941.394531 245.1875 940.449219 245.457031 C 939.5 245.726562 938.539062 245.917969 937.558594 246.023438 C 931.328125 246.644531 925.082031 246.925781 918.816406 246.875 C 925.082031 246.824219 931.328125 247.109375 937.558594 247.730469 C 938.539062 247.835938 939.5 248.023438 940.449219 248.292969 C 941.394531 248.5625 942.3125 248.910156 943.199219 249.335938 C 944.085938 249.761719 944.933594 250.257812 945.738281 250.824219 C 946.539062 251.394531 947.289062 252.027344 947.988281 252.722656 C 948.683594 253.414062 949.316406 254.164062 949.886719 254.96875 C 950.453125 255.769531 950.953125 256.613281 951.378906 257.5 C 951.804688 258.386719 952.152344 259.300781 952.421875 260.246094 C 952.691406 261.191406 952.878906 262.15625 952.988281 263.132812 C 953.609375 269.351562 953.890625 275.589844 953.839844 281.839844 C 953.789062 275.589844 954.074219 269.351562 954.695312 263.132812 C 954.800781 262.15625 954.992188 261.191406 955.261719 260.246094 C 955.53125 259.300781 955.878906 258.386719 956.304688 257.5 C 956.730469 256.613281 957.226562 255.769531 957.796875 254.964844 C 958.367188 254.164062 959 253.414062 959.695312 252.71875 C 960.390625 252.023438 961.140625 251.394531 961.945312 250.824219 C 962.75 250.257812 963.59375 249.761719 964.480469 249.335938 C 965.371094 248.910156 966.285156 248.5625 967.234375 248.292969 C 968.179688 248.023438 969.144531 247.835938 970.121094 247.730469 C 976.355469 247.109375 982.601562 246.824219 988.863281 246.875 C 982.601562 246.925781 976.355469 246.644531 970.121094 246.023438 C 969.144531 245.917969 968.179688 245.726562 967.234375 245.457031 C 966.289062 245.1875 965.371094 244.839844 964.480469 244.417969 C 963.59375 243.992188 962.75 243.496094 961.945312 242.925781 C 961.140625 242.359375 960.390625 241.726562 959.695312 241.03125 C 959 240.335938 958.367188 239.585938 957.796875 238.785156 C 957.226562 237.984375 956.730469 237.140625 956.304688 236.253906 C 955.878906 235.367188 955.53125 234.449219 955.261719 233.503906 C 954.992188 232.558594 954.800781 231.597656 954.695312 230.621094 C 954.074219 224.398438 953.789062 218.164062 953.839844 211.910156 C 953.890625 218.164062 953.609375 224.398438 952.988281 230.621094 Z M 952.988281 230.621094 " fill-opacity="1" fill-rule="nonzero"/></g><g clip-path="url(#10fb69eda6)"><path fill="#231f20" d="M 913.886719 256.34375 C 913.832031 256.839844 913.734375 257.324219 913.597656 257.804688 C 913.460938 258.28125 913.285156 258.746094 913.070312 259.195312 C 912.855469 259.640625 912.605469 260.070312 912.316406 260.476562 C 912.027344 260.882812 911.707031 261.261719 911.355469 261.613281 C 911.003906 261.964844 910.625 262.285156 910.21875 262.570312 C 909.808594 262.859375 909.382812 263.109375 908.933594 263.324219 C 908.484375 263.539062 908.019531 263.714844 907.539062 263.851562 C 907.0625 263.988281 906.574219 264.085938 906.078125 264.136719 C 902.925781 264.453125 899.765625 264.597656 896.59375 264.570312 C 899.765625 264.542969 902.925781 264.6875 906.078125 265 C 906.574219 265.054688 907.0625 265.152344 907.539062 265.289062 C 908.019531 265.421875 908.484375 265.597656 908.933594 265.816406 C 909.382812 266.03125 909.808594 266.28125 910.21875 266.570312 C 910.625 266.855469 911.003906 267.175781 911.355469 267.527344 C 911.707031 267.878906 912.027344 268.257812 912.316406 268.664062 C 912.605469 269.070312 912.855469 269.496094 913.070312 269.945312 C 913.285156 270.394531 913.460938 270.859375 913.597656 271.335938 C 913.734375 271.816406 913.832031 272.300781 913.886719 272.796875 C 914.199219 275.945312 914.34375 279.101562 914.316406 282.265625 C 914.292969 279.101562 914.4375 275.945312 914.75 272.796875 C 914.804688 272.300781 914.898438 271.816406 915.035156 271.335938 C 915.171875 270.859375 915.347656 270.394531 915.566406 269.945312 C 915.78125 269.496094 916.03125 269.070312 916.320312 268.664062 C 916.609375 268.257812 916.929688 267.878906 917.28125 267.527344 C 917.632812 267.175781 918.011719 266.855469 918.417969 266.566406 C 918.824219 266.28125 919.253906 266.03125 919.703125 265.8125 C 920.152344 265.597656 920.617188 265.421875 921.09375 265.285156 C 921.574219 265.152344 922.0625 265.054688 922.558594 265 C 925.710938 264.6875 928.871094 264.542969 932.039062 264.570312 C 928.871094 264.597656 925.710938 264.453125 922.558594 264.136719 C 922.0625 264.085938 921.574219 263.988281 921.09375 263.851562 C 920.617188 263.714844 920.152344 263.539062 919.703125 263.324219 C 919.253906 263.109375 918.824219 262.859375 918.417969 262.570312 C 918.011719 262.285156 917.632812 261.964844 917.28125 261.613281 C 916.929688 261.261719 916.609375 260.882812 916.320312 260.476562 C 916.03125 260.070312 915.78125 259.644531 915.566406 259.195312 C 915.347656 258.746094 915.171875 258.28125 915.035156 257.804688 C 914.898438 257.324219 914.804688 256.839844 914.75 256.34375 C 914.433594 253.195312 914.289062 250.039062 914.316406 246.875 C 914.34375 250.039062 914.199219 253.195312 913.886719 256.34375 Z M 913.886719 256.34375 " fill-opacity="1" fill-rule="nonzero"/></g><path fill="#231f20" d="M 927.207031 221.425781 C 927.140625 222.035156 926.976562 222.617188 926.710938 223.167969 C 926.445312 223.71875 926.097656 224.210938 925.664062 224.644531 C 925.230469 225.078125 924.738281 225.425781 924.183594 225.691406 C 923.632812 225.953125 923.050781 226.121094 922.441406 226.1875 C 920.515625 226.378906 918.585938 226.464844 916.652344 226.449219 C 918.585938 226.433594 920.515625 226.519531 922.441406 226.710938 C 923.050781 226.777344 923.632812 226.945312 924.183594 227.210938 C 924.738281 227.472656 925.230469 227.824219 925.664062 228.253906 C 926.097656 228.6875 926.445312 229.179688 926.710938 229.730469 C 926.976562 230.285156 927.140625 230.863281 927.207031 231.472656 C 927.398438 233.394531 927.488281 235.320312 927.472656 237.253906 C 927.457031 235.320312 927.542969 233.394531 927.734375 231.472656 C 927.800781 230.863281 927.96875 230.285156 928.234375 229.730469 C 928.496094 229.179688 928.847656 228.6875 929.28125 228.253906 C 929.714844 227.824219 930.207031 227.472656 930.757812 227.210938 C 931.3125 226.945312 931.894531 226.777344 932.503906 226.710938 C 934.429688 226.519531 936.359375 226.433594 938.292969 226.449219 C 936.359375 226.464844 934.429688 226.378906 932.503906 226.1875 C 931.894531 226.121094 931.3125 225.953125 930.761719 225.6875 C 930.207031 225.425781 929.714844 225.074219 929.28125 224.644531 C 928.847656 224.210938 928.5 223.71875 928.234375 223.167969 C 927.96875 222.613281 927.804688 222.035156 927.738281 221.425781 C 927.546875 219.503906 927.457031 217.578125 927.472656 215.644531 C 927.488281 217.578125 927.398438 219.503906 927.207031 221.425781 Z M 927.207031 221.425781 " fill-opacity="1" fill-rule="nonzero"/></svg>