<svg xmlns="http://www.w3.org/2000/svg" xmlns:xlink="http://www.w3.org/1999/xlink" width="1920" zoomAndPan="magnify" viewBox="0 0 1440 809.999993" height="1080" preserveAspectRatio="xMidYMid meet" version="1.0"><defs><clipPath id="ad41648297"><path d="M 464.734375 83 L 971 83 L 971 752.757812 L 464.734375 752.757812 Z M 464.734375 83 " clip-rule="nonzero"/></clipPath><clipPath id="30c74fef28"><path d="M 531.164062 56.996094 L 975.730469 56.996094 L 975.730469 568 L 531.164062 568 Z M 531.164062 56.996094 " clip-rule="nonzero"/></clipPath><clipPath id="ea8490a9b7"><path d="M 603.40625 438.273438 L 840.894531 438.273438 L 840.894531 752.757812 L 603.40625 752.757812 Z M 603.40625 438.273438 " clip-rule="nonzero"/></clipPath></defs><g clip-path="url(#ad41648297)"><path fill="#fab093" d="M 895.945312 515.28125 C 877.046875 542.140625 869.417969 575.375 874.722656 607.75 L 898.476562 752.757812 L 630.675781 752.757812 L 631.371094 744.632812 C 633.25 722.589844 629.25 700.503906 619.824219 680.582031 C 617.699219 676.046875 616.597656 671.109375 616.597656 666.128906 C 616.597656 665.027344 616.636719 663.964844 616.761719 662.863281 L 620.1875 627.386719 C 620.476562 624.117188 621.167969 620.894531 621.738281 617.671875 C 622.84375 611.832031 620.964844 605.707031 616.597656 601.460938 C 613.171875 598.195312 608.679688 596.398438 604.027344 596.398438 C 602.804688 596.398438 601.582031 596.519531 600.355469 596.769531 L 585.296875 599.871094 L 575.335938 601.949219 L 575.253906 601.992188 L 539.914062 609.261719 C 533.503906 610.605469 526.894531 609.789062 521.019531 606.972656 C 510.734375 601.949219 504.328125 591.582031 504.328125 580.355469 C 504.328125 579.046875 504.410156 577.78125 504.574219 576.476562 L 508.816406 543.691406 C 509.46875 541.203125 508.898438 538.550781 507.265625 536.589844 L 499.183594 526.996094 C 496.734375 524.097656 496.695312 519.851562 499.144531 516.914062 C 501.550781 514.015625 501.550781 509.972656 499.351562 507.113281 L 499.308594 507.074219 L 495.636719 501.96875 C 495.183594 501.398438 494.695312 500.910156 494.207031 500.378906 C 492.246094 498.253906 491.554688 495.277344 492.449219 492.5 L 497.800781 467.761719 C 498.777344 464.660156 497.144531 461.308594 494.085938 460.207031 L 473.679688 457.433594 C 469.148438 455.796875 465.71875 451.839844 464.90625 446.859375 C 464.292969 443.140625 465.351562 439.386719 467.597656 436.324219 L 516.449219 351.859375 C 519.835938 346.960938 521.101562 340.875 519.875 335.078125 C 519.835938 334.957031 519.835938 334.832031 519.792969 334.753906 L 513.878906 318.871094 C 511.226562 311.683594 510.574219 303.929688 512 296.457031 L 519.792969 256.125 C 523.347656 235.628906 529.386719 199.007812 537.832031 181.578125 C 542.933594 171.042969 548.894531 161.574219 555.707031 153.691406 C 567.503906 140.058594 581.542969 128.257812 597.050781 118.5 C 629.492188 97.84375 668.261719 85.921875 706.011719 83.554688 C 761.84375 80.042969 817.917969 96.578125 865.707031 125.605469 C 913.246094 154.46875 954.589844 214.5625 967.324219 268.738281 C 977.972656 313.972656 960.464844 398.03125 940.550781 440.039062 C 927.859375 466.902344 912.71875 491.519531 895.945312 515.28125 " fill-opacity="1" fill-rule="nonzero"/></g><path fill="#d0685c" d="M 741.027344 241.425781 C 731.195312 229.707031 719.847656 202.070312 705.398438 197.046875 C 692.097656 192.433594 677.445312 193.617188 663.613281 196.476562 C 649.816406 199.335938 636.308594 203.828125 622.351562 205.664062 C 592.480469 209.582031 561.257812 200.4375 537.832031 181.578125 C 542.933594 171.042969 548.894531 161.574219 555.707031 153.691406 C 567.503906 140.058594 581.542969 128.257812 597.050781 118.5 C 613.085938 120.953125 629.003906 124.015625 644.757812 127.6875 C 672.507812 134.175781 701.320312 143.445312 720.335938 164.714844 C 734.660156 180.761719 743.027344 220.035156 741.027344 241.425781 " fill-opacity="1" fill-rule="nonzero"/><g clip-path="url(#30c74fef28)"><path fill="#8e4028" d="M 959.160156 400.398438 C 950.914062 424.320312 939.734375 447.144531 926.632812 468.78125 C 921.046875 478.046875 913.820312 490.132812 906.59375 502.910156 C 893.128906 526.710938 879.621094 552.878906 876.152344 567.292969 C 875.90625 568.230469 874.519531 568.066406 874.519531 567.085938 C 874.152344 540.792969 865.011719 510.503906 857.214844 486.5 C 848.238281 458.777344 826.363281 450.164062 798.285156 442.367188 C 810.9375 422.15625 823.914062 401.214844 827.261719 377.621094 C 829.503906 361.777344 829.382812 344.347656 823.464844 331.445312 C 823.464844 331.445312 823.425781 331.402344 823.425781 331.363281 C 818.121094 319.808594 808.203125 311.929688 791.183594 312.050781 C 778.410156 312.175781 766.128906 317.238281 756.457031 325.605469 C 748.902344 332.140625 743.191406 339.855469 738.945312 348.265625 C 735.722656 354.59375 733.355469 361.289062 731.558594 368.230469 C 730.214844 373.535156 722.582031 373.125 721.96875 367.695312 C 718.09375 334.101562 714.542969 283.597656 721.195312 241.304688 C 724.949219 217.300781 704.871094 179.859375 680.710938 182.675781 C 645.738281 186.761719 601.539062 199.335938 569.417969 182.882812 C 557.421875 176.757812 546.648438 168.308594 538.242188 158.0625 C 536.238281 155.613281 534.730469 152.917969 533.710938 150.097656 C 529.671875 139.324219 532.648438 126.664062 541.792969 118.75 C 585.621094 80.820312 719.359375 7.414062 845.261719 107.191406 C 850.847656 111.640625 854.480469 118.136719 855.214844 125.238281 C 858.359375 155.367188 875.210938 187.496094 931.898438 190.515625 C 941.328125 191.007812 949.898438 196.273438 954.34375 204.601562 C 976.546875 246.164062 986.503906 320.871094 959.160156 400.398438 " fill-opacity="1" fill-rule="nonzero"/></g><g clip-path="url(#ea8490a9b7)"><path fill="#d0685c" d="M 802.441406 440.121094 C 801.378906 440.488281 800.277344 440.9375 799.257812 441.46875 C 799.214844 441.511719 799.175781 441.511719 799.175781 441.511719 C 798.601562 441.875 798.074219 442.242188 797.542969 442.613281 C 793.421875 445.46875 789.667969 448.855469 786.402344 452.695312 C 782.605469 457.105469 779.460938 462.003906 775.503906 466.25 C 771.585938 470.496094 766.609375 474.125 760.855469 474.90625 C 755.097656 475.679688 748.246094 472.535156 746.164062 467.109375 C 745.917969 471.84375 745.753906 476.292969 747.261719 480.78125 C 747.585938 481.765625 748.023438 482.71875 748.539062 483.632812 C 746.699219 489.300781 744.402344 497.019531 741.792969 506.339844 C 740.328125 511.648438 738.777344 517.402344 737.105469 523.488281 C 736.285156 526.546875 735.429688 529.773438 734.53125 533.078125 C 733.675781 536.101562 732.695312 539.242188 731.226562 542.308594 C 725.839844 554.59375 715.023438 566.027344 700.699219 571.863281 C 698.945312 572.683594 697.066406 573.210938 695.3125 573.863281 C 693.394531 574.3125 691.722656 574.84375 689.679688 575.25 C 686.171875 576.070312 682.699219 576.84375 679.316406 577.621094 C 678.867188 577.742188 678.457031 577.824219 678.050781 577.90625 C 670.5 579.660156 663.15625 581.417969 656.136719 583.050781 C 642.136719 586.355469 629.609375 589.460938 619.078125 592.195312 C 613.160156 593.746094 607.9375 595.136719 603.40625 596.441406 C 603.652344 596.398438 603.859375 596.398438 604.101562 596.398438 C 607.570312 596.398438 610.914062 597.378906 613.816406 599.257812 C 614.835938 599.871094 615.8125 600.644531 616.671875 601.503906 C 621.039062 605.707031 622.914062 611.832031 621.851562 617.671875 C 621.242188 620.894531 620.550781 624.117188 620.265625 627.386719 L 616.835938 662.863281 C 616.710938 663.964844 616.671875 665.027344 616.671875 666.128906 C 616.671875 671.109375 617.773438 676.007812 619.894531 680.582031 C 629.324219 700.503906 633.324219 722.589844 631.445312 744.59375 L 630.792969 752.757812 L 637.851562 752.757812 C 629.648438 702.300781 636.34375 662.65625 646.625 633.875 C 655.890625 607.910156 677.398438 588.601562 703.515625 579.824219 C 703.71875 579.785156 703.84375 579.742188 703.925781 579.703125 C 720.410156 572.925781 732.695312 559.574219 738.367188 545.410156 C 739.917969 541.898438 740.941406 538.304688 741.792969 534.796875 C 742.53125 531.488281 743.265625 528.261719 743.917969 525.121094 C 745.222656 518.953125 746.492188 513.160156 747.632812 507.726562 C 749.289062 499.710938 750.59375 492.847656 751.542969 487.359375 C 753.109375 488.746094 754.972656 489.738281 757.058594 490.011719 C 760.242188 490.457031 763.425781 489.234375 766.160156 487.558594 C 772.933594 483.355469 777.503906 476.457031 782.320312 470.085938 C 783.667969 468.332031 785.054688 466.578125 786.566406 464.945312 C 786.566406 464.945312 786.566406 464.945312 786.605469 464.902344 C 786.605469 464.863281 786.648438 464.820312 786.6875 464.738281 C 787.832031 463.105469 796.972656 451.101562 819.417969 448.734375 C 819.457031 448.734375 819.457031 448.734375 819.457031 448.734375 C 825.5 448.082031 832.4375 448.160156 840.476562 449.265625 C 840.476562 449.265625 819.539062 434.40625 802.441406 440.121094 " fill-opacity="1" fill-rule="nonzero"/></g><path fill="#d0685c" d="M 750.894531 424.359375 C 749.246094 424.359375 747.28125 423.339844 746.867188 421.101562 C 742.582031 398.070312 746.644531 375.992188 758.015625 360.535156 C 767.121094 348.15625 780.621094 340.585938 797.050781 338.644531 L 797.539062 338.609375 C 799.453125 338.609375 800.875 340.011719 800.992188 342.019531 C 801.101562 343.863281 799.980469 345.871094 797.625 346.152344 C 777.378906 348.550781 762.78125 360.640625 756.335938 380.269531 C 758.175781 380.074219 760.292969 379.902344 762.421875 379.902344 C 769.824219 379.902344 774.4375 382.046875 776.140625 386.269531 C 777.511719 389.664062 776.707031 393.65625 773.878906 397.507812 C 771.671875 400.519531 769.082031 403.335938 766.574219 406.058594 C 765.460938 407.265625 764.351562 408.472656 763.277344 409.691406 C 762.558594 410.511719 761.601562 410.964844 760.585938 410.964844 C 759.097656 410.964844 757.664062 410.007812 757.027344 408.589844 C 756.429688 407.265625 756.660156 405.804688 757.652344 404.683594 L 764.058594 397.410156 C 764.449219 396.964844 764.921875 396.480469 765.425781 395.964844 C 767.03125 394.320312 769.03125 392.273438 769.179688 390.558594 C 769.230469 389.933594 769.089844 389.460938 768.730469 389.0625 C 768.070312 388.347656 766.351562 387.492188 761.910156 387.492188 C 759.332031 387.492188 756.65625 387.773438 754.289062 388.082031 C 752.273438 398.164062 752.289062 409.3125 754.351562 420.371094 C 754.542969 421.417969 754.316406 422.402344 753.707031 423.132812 C 753.0625 423.914062 752.035156 424.359375 750.894531 424.359375 " fill-opacity="1" fill-rule="nonzero"/><path fill="#8e4028" d="M 626.386719 346.289062 C 627.066406 334.910156 621.019531 323.773438 612.105469 316.671875 C 603.191406 309.574219 592.101562 305.796875 581.027344 303.125 C 569.953125 300.449219 558.621094 298.730469 547.824219 295.105469 C 542.726562 293.390625 537.472656 291.019531 534.542969 286.507812 C 532.46875 293.183594 533.992188 300.160156 538.242188 305.703125 C 541.453125 309.898438 546.074219 312.796875 550.871094 315.007812 C 563.316406 320.746094 577.203125 322.335938 590.511719 325.625 C 603.816406 328.910156 618.484375 335.082031 626.386719 346.289062 " fill-opacity="1" fill-rule="nonzero"/><path fill="#7a2d18" d="M 614.851562 370.476562 C 599.800781 349.839844 572.050781 343.347656 547.59375 343.894531 C 543.660156 343.976562 543.644531 350.105469 547.59375 350.015625 C 552.613281 349.902344 557.867188 350.117188 563.152344 350.703125 C 562.496094 353.222656 562.132812 356.019531 562.132812 358.976562 C 562.132812 369.863281 567.007812 378.691406 573.039062 378.691406 C 579.054688 378.691406 583.949219 369.863281 583.949219 358.976562 C 583.949219 357.738281 583.878906 356.519531 583.757812 355.335938 C 593.972656 359.003906 603.171875 364.800781 609.5625 373.566406 C 611.863281 376.722656 617.179688 373.667969 614.851562 370.476562 " fill-opacity="1" fill-rule="nonzero"/><path fill="#d0685c" d="M 515.375 455.019531 C 509.414062 458.65625 498.148438 466.371094 496.4375 474.25 L 497.824219 467.761719 C 498.84375 464.660156 497.171875 461.308594 494.113281 460.207031 L 474.070312 457.472656 C 473.992188 457.433594 473.824219 457.433594 473.625 457.390625 L 473.582031 457.390625 C 472.273438 456.898438 471.09375 456.246094 470.03125 455.390625 C 484.398438 456.207031 509.210938 457.59375 515.375 455.019531 " fill-opacity="1" fill-rule="nonzero"/><path fill="#7a2d18" d="M 906.59375 502.910156 C 893.128906 526.710938 879.621094 552.878906 876.152344 567.292969 C 875.90625 568.230469 874.519531 568.066406 874.519531 567.085938 C 874.152344 540.792969 865.011719 510.503906 857.214844 486.5 C 848.238281 458.777344 826.363281 450.164062 798.285156 442.367188 C 810.9375 422.15625 823.914062 401.214844 827.261719 377.621094 C 829.503906 361.777344 829.382812 344.347656 823.464844 331.445312 C 829.140625 339.976562 845.054688 370.761719 829.710938 430.445312 C 829.710938 430.445312 881.539062 433.589844 906.59375 502.910156 " fill-opacity="1" fill-rule="nonzero"/><path fill="#7a2d18" d="M 738.945312 348.265625 C 735.722656 354.59375 733.355469 361.289062 731.558594 368.230469 C 730.214844 373.535156 722.582031 373.125 721.96875 367.695312 C 718.09375 334.101562 714.542969 283.597656 721.195312 241.304688 C 724.949219 217.300781 704.871094 179.859375 680.710938 182.675781 C 645.738281 186.761719 601.539062 199.335938 569.417969 182.882812 C 557.421875 176.757812 546.648438 168.308594 538.242188 158.0625 C 536.238281 155.613281 534.730469 152.917969 533.710938 150.097656 C 539.140625 155.246094 545.261719 159.613281 551.871094 163.039062 C 567.832031 171.246094 586.113281 174.023438 604.027344 173.898438 C 621.984375 173.820312 639.777344 171.003906 657.53125 168.554688 C 678.425781 165.695312 706.09375 164.144531 722.257812 177.65625 C 732.621094 186.273438 737.847656 199.785156 739.601562 213.175781 C 741.3125 226.566406 735.804688 256.449219 735.113281 269.921875 C 733.722656 296.046875 735.03125 322.339844 738.945312 348.265625 " fill-opacity="1" fill-rule="nonzero"/></svg>