<svg xmlns="http://www.w3.org/2000/svg" xmlns:xlink="http://www.w3.org/1999/xlink" width="1920" zoomAndPan="magnify" viewBox="0 0 1440 809.999993" height="1080" preserveAspectRatio="xMidYMid meet" version="1.0"><defs><clipPath id="7d635b25eb"><path d="M 462.332031 76.089844 L 973 76.089844 L 973 752.492188 L 462.332031 752.492188 Z M 462.332031 76.089844 " clip-rule="nonzero"/></clipPath><clipPath id="2ed69b7e2c"><path d="M 602.152344 435.324219 L 841.609375 435.324219 L 841.609375 752.492188 L 602.152344 752.492188 Z M 602.152344 435.324219 " clip-rule="nonzero"/></clipPath><clipPath id="2bcb338b54"><path d="M 556.941406 57.667969 L 977.5625 57.667969 L 977.5625 565.953125 L 556.941406 565.953125 Z M 556.941406 57.667969 " clip-rule="nonzero"/></clipPath></defs><g clip-path="url(#7d635b25eb)"><path fill="#fab093" d="M 897.652344 512.828125 C 878.554688 539.925781 870.84375 573.445312 876.210938 606.136719 L 900.191406 752.492188 L 629.871094 752.492188 L 630.558594 744.269531 C 632.441406 722.054688 628.414062 699.757812 618.90625 679.628906 C 616.738281 675.0625 615.625 670.09375 615.625 665.066406 C 615.625 663.953125 615.683594 662.867188 615.796875 661.753906 L 619.25 625.949219 C 619.566406 622.636719 620.25 619.414062 620.851562 616.15625 C 621.9375 610.246094 620.050781 604.082031 615.625 599.796875 C 612.199219 596.484375 607.628906 594.6875 602.949219 594.6875 C 601.722656 594.6875 600.464844 594.800781 599.238281 595.054688 L 584.050781 598.199219 L 573.972656 600.285156 L 573.886719 600.308594 L 538.230469 607.675781 C 531.78125 609.019531 525.097656 608.191406 519.164062 605.335938 C 508.769531 600.285156 502.289062 589.804688 502.289062 578.46875 C 502.289062 577.183594 502.375 575.871094 502.542969 574.558594 L 506.855469 541.464844 C 507.511719 538.984375 506.914062 536.300781 505.257812 534.328125 L 497.09375 524.648438 C 494.640625 521.707031 494.609375 517.425781 497.0625 514.457031 C 499.492188 511.542969 499.492188 507.433594 497.292969 504.578125 L 497.238281 504.519531 L 493.523438 499.378906 C 493.097656 498.78125 492.582031 498.292969 492.097656 497.75 C 490.125 495.640625 489.414062 492.613281 490.328125 489.816406 L 495.691406 464.863281 C 496.722656 461.722656 495.066406 458.324219 491.953125 457.210938 L 471.371094 454.441406 C 466.804688 452.785156 463.320312 448.785156 462.492188 443.734375 C 461.894531 439.992188 462.976562 436.195312 465.234375 433.140625 L 514.535156 347.886719 C 517.960938 342.945312 519.246094 336.808594 518.019531 330.925781 C 517.960938 330.8125 517.960938 330.695312 517.933594 330.613281 L 511.949219 314.566406 C 509.253906 307.339844 508.601562 299.511719 510.066406 291.941406 L 517.933594 251.265625 C 523.644531 218.085938 535.890625 169 554.191406 147.871094 C 591.128906 105.214844 649.625 80.578125 705.921875 77.066406 C 762.25 73.554688 818.886719 90.230469 867.132812 119.519531 C 915.125 148.675781 956.828125 209.324219 969.707031 263.972656 C 980.46875 309.65625 962.769531 394.453125 942.671875 436.851562 C 929.855469 463.976562 914.582031 488.816406 897.652344 512.828125 " fill-opacity="1" fill-rule="nonzero"/></g><g clip-path="url(#2ed69b7e2c)"><path fill="#d0685c" d="M 803.152344 436.953125 C 802.085938 437.324219 800.972656 437.777344 799.941406 438.3125 C 799.898438 438.355469 799.859375 438.355469 799.859375 438.355469 C 799.28125 438.722656 798.75 439.097656 798.210938 439.464844 C 794.046875 442.351562 790.261719 445.769531 786.964844 449.640625 C 783.132812 454.09375 779.957031 459.035156 775.964844 463.324219 C 772.007812 467.609375 766.980469 471.277344 761.171875 472.058594 C 755.363281 472.839844 748.445312 469.667969 746.34375 464.1875 C 746.09375 468.96875 745.933594 473.457031 747.457031 477.992188 C 747.78125 478.984375 748.226562 479.945312 748.746094 480.867188 C 746.882812 486.589844 744.566406 494.375 741.9375 503.785156 C 740.449219 509.140625 738.886719 514.949219 737.195312 521.089844 C 736.371094 524.179688 735.507812 527.4375 734.601562 530.773438 C 733.734375 533.824219 732.75 536.996094 731.265625 540.085938 C 725.828125 552.488281 714.90625 564.023438 700.449219 569.914062 C 698.675781 570.742188 696.78125 571.277344 695.007812 571.933594 C 693.074219 572.390625 691.382812 572.925781 689.324219 573.335938 C 685.78125 574.160156 682.28125 574.945312 678.859375 575.726562 C 678.410156 575.847656 677.996094 575.929688 677.585938 576.015625 C 669.960938 577.785156 662.546875 579.558594 655.460938 581.207031 C 641.328125 584.542969 628.679688 587.675781 618.050781 590.433594 C 612.078125 592 606.804688 593.402344 602.230469 594.71875 C 602.480469 594.679688 602.683594 594.679688 602.929688 594.679688 C 606.433594 594.679688 609.8125 595.667969 612.734375 597.566406 C 613.765625 598.183594 614.757812 598.964844 615.621094 599.832031 C 620.027344 604.074219 621.921875 610.253906 620.851562 616.148438 C 620.234375 619.402344 619.535156 622.65625 619.246094 625.953125 L 615.789062 661.757812 C 615.664062 662.871094 615.621094 663.941406 615.621094 665.054688 C 615.621094 670.082031 616.734375 675.027344 618.875 679.640625 C 628.390625 699.746094 632.429688 722.039062 630.535156 744.25 L 629.875 752.488281 L 637.003906 752.488281 C 628.722656 701.5625 635.480469 661.550781 645.859375 632.507812 C 655.214844 606.300781 676.921875 586.808594 703.289062 577.949219 C 703.496094 577.910156 703.621094 577.867188 703.703125 577.828125 C 720.347656 570.988281 732.75 557.515625 738.476562 543.21875 C 740.039062 539.671875 741.070312 536.046875 741.9375 532.503906 C 742.679688 529.167969 743.417969 525.910156 744.078125 522.738281 C 745.394531 516.515625 746.671875 510.664062 747.824219 505.1875 C 749.5 497.09375 750.816406 490.167969 751.773438 484.632812 C 753.359375 486.027344 755.238281 487.03125 757.34375 487.304688 C 760.558594 487.753906 763.769531 486.519531 766.53125 484.832031 C 773.367188 480.589844 777.984375 473.625 782.84375 467.199219 C 784.203125 465.425781 785.605469 463.652344 787.128906 462.003906 C 787.128906 462.003906 787.128906 462.003906 787.171875 461.964844 C 787.171875 461.921875 787.210938 461.882812 787.253906 461.796875 C 788.40625 460.152344 797.636719 448.035156 820.292969 445.644531 C 820.332031 445.644531 820.332031 445.644531 820.332031 445.644531 C 826.429688 444.988281 833.4375 445.070312 841.554688 446.183594 C 841.554688 446.183594 820.417969 431.183594 803.152344 436.953125 " fill-opacity="1" fill-rule="nonzero"/></g><path fill="#d0685c" d="M 751.347656 421.042969 C 749.683594 421.042969 747.703125 420.015625 747.28125 417.757812 C 742.953125 394.511719 747.054688 372.230469 758.535156 356.628906 C 767.726562 344.136719 781.351562 336.496094 797.941406 334.535156 L 798.433594 334.5 C 800.363281 334.5 801.796875 335.917969 801.917969 337.941406 C 802.027344 339.804688 800.894531 341.832031 798.515625 342.113281 C 778.082031 344.53125 763.34375 356.734375 756.839844 376.550781 C 758.695312 376.351562 760.832031 376.179688 762.980469 376.179688 C 770.453125 376.179688 775.113281 378.339844 776.828125 382.605469 C 778.210938 386.027344 777.402344 390.058594 774.550781 393.945312 C 772.320312 396.984375 769.707031 399.824219 767.175781 402.574219 C 766.050781 403.792969 764.925781 405.011719 763.84375 406.242188 C 763.117188 407.070312 762.152344 407.527344 761.128906 407.527344 C 759.621094 407.527344 758.179688 406.5625 757.535156 405.132812 C 756.929688 403.792969 757.167969 402.316406 758.167969 401.1875 L 764.632812 393.847656 C 765.027344 393.398438 765.507812 392.910156 766.011719 392.386719 C 767.636719 390.730469 769.65625 388.660156 769.804688 386.929688 C 769.859375 386.300781 769.710938 385.824219 769.347656 385.421875 C 768.683594 384.699219 766.949219 383.835938 762.464844 383.835938 C 759.863281 383.835938 757.164062 384.117188 754.773438 384.433594 C 752.738281 394.609375 752.753906 405.855469 754.835938 417.019531 C 755.03125 418.078125 754.800781 419.070312 754.1875 419.808594 C 753.53125 420.59375 752.5 421.042969 751.347656 421.042969 " fill-opacity="1" fill-rule="nonzero"/><path fill="#8e4028" d="M 625.65625 342.25 C 626.339844 330.769531 620.234375 319.523438 611.238281 312.359375 C 602.242188 305.195312 591.046875 301.386719 579.867188 298.683594 C 568.683594 295.984375 557.246094 294.253906 546.34375 290.59375 C 541.199219 288.863281 535.898438 286.46875 532.941406 281.917969 C 530.84375 288.652344 532.382812 295.695312 536.667969 301.292969 C 539.914062 305.523438 544.582031 308.449219 549.421875 310.683594 C 561.988281 316.476562 576.003906 318.078125 589.4375 321.394531 C 602.871094 324.710938 617.675781 330.941406 625.65625 342.25 " fill-opacity="1" fill-rule="nonzero"/><path fill="#7a2d18" d="M 614.007812 366.664062 C 598.8125 345.839844 570.800781 339.285156 546.113281 339.832031 C 542.140625 339.917969 542.125 346.101562 546.113281 346.011719 C 551.179688 345.902344 556.488281 346.113281 561.820312 346.707031 C 561.160156 349.25 560.792969 352.074219 560.792969 355.058594 C 560.792969 366.046875 565.707031 374.953125 571.800781 374.953125 C 577.867188 374.953125 582.8125 366.046875 582.8125 355.058594 C 582.8125 353.804688 582.746094 352.578125 582.621094 351.378906 C 592.929688 355.085938 602.21875 360.9375 608.675781 369.78125 C 610.992188 372.964844 616.359375 369.882812 614.007812 366.664062 " fill-opacity="1" fill-rule="nonzero"/><path fill="#d0685c" d="M 513.425781 451.992188 C 507.410156 455.65625 496.039062 463.445312 494.308594 471.402344 L 495.710938 464.847656 C 496.738281 461.714844 495.046875 458.335938 491.960938 457.226562 L 471.734375 454.464844 C 471.652344 454.425781 471.484375 454.425781 471.277344 454.382812 L 471.238281 454.382812 C 469.917969 453.886719 468.722656 453.226562 467.65625 452.363281 C 482.15625 453.1875 507.207031 454.589844 513.425781 451.992188 " fill-opacity="1" fill-rule="nonzero"/><g clip-path="url(#2bcb338b54)"><path fill="#8e4028" d="M 960.820312 396.863281 C 952.496094 421.007812 941.210938 444.039062 927.984375 465.878906 C 922.011719 475.726562 914.222656 488.785156 906.519531 502.464844 C 893.335938 525.910156 880.402344 551.210938 877.023438 565.300781 C 876.777344 566.25 875.375 566.085938 875.375 565.09375 C 875.003906 539.550781 866.433594 510.253906 858.8125 486.519531 C 858.480469 485.574219 858.195312 484.667969 857.90625 483.761719 C 854.777344 474.121094 850.117188 466.785156 844.226562 460.976562 C 842.085938 458.914062 839.820312 457.019531 837.390625 455.25 C 826.84375 447.832031 813.578125 443.421875 798.5 439.21875 C 798.457031 439.21875 798.457031 439.21875 798.414062 439.21875 C 811.1875 418.824219 824.289062 397.6875 827.667969 373.871094 C 829.277344 362.582031 829.644531 350.546875 827.707031 339.835938 C 827.007812 336.25 826.101562 332.789062 824.824219 329.578125 C 824.332031 328.175781 823.710938 326.816406 822.96875 325.5 C 817.449219 314.785156 807.5625 307.574219 791.25 307.699219 C 778.351562 307.824219 765.949219 312.933594 756.1875 321.378906 C 749.761719 326.9375 744.652344 333.367188 740.574219 340.332031 C 736.496094 347.460938 733.53125 355.125 731.386719 363.160156 C 729.902344 368.722656 721.871094 368.265625 721.210938 362.539062 C 721.171875 362.128906 721.128906 361.757812 721.089844 361.347656 C 717.296875 327.519531 722.035156 293.027344 735.960938 261.921875 C 736 261.796875 736.085938 261.628906 736.167969 261.46875 C 745.023438 241.691406 754.089844 204.152344 751.367188 182.648438 C 748.730469 161.714844 733.980469 142.679688 714.371094 134.890625 C 691.011719 125.621094 664.484375 131.921875 640.917969 140.660156 C 637.085938 142.058594 631.644531 144.160156 626.660156 146.097656 C 621.636719 148.035156 616.445312 149.4375 611.171875 150.300781 C 602.230469 151.785156 593.042969 151.660156 584.144531 149.683594 C 575.78125 147.789062 567.214844 144.285156 560.621094 137.898438 C 555.515625 132.953125 555.800781 124.714844 561.15625 120.058594 C 591.027344 94.140625 700.449219 13.21875 828.738281 89.855469 C 835.90625 94.140625 840.027344 102.378906 838.339844 110.582031 C 836.894531 117.667969 836.359375 125.085938 836.851562 132.707031 C 839.699219 174.242188 874.304688 207.65625 915.871094 209.054688 C 924.441406 209.347656 932.761719 208.3125 940.550781 206.171875 C 950.519531 203.414062 960.863281 224.921875 964.648438 234.519531 C 980.472656 274.734375 984.550781 327.929688 960.820312 396.863281 " fill-opacity="1" fill-rule="nonzero"/></g><path fill="#7a2d18" d="M 906.519531 502.464844 C 893.335938 525.910156 880.402344 551.210938 877.023438 565.300781 C 876.777344 566.25 875.375 566.085938 875.375 565.09375 C 875.003906 539.550781 866.433594 510.253906 858.8125 486.519531 C 858.566406 485.574219 858.273438 484.667969 857.992188 483.761719 C 854.859375 474.078125 850.160156 466.742188 844.226562 460.976562 C 842.085938 458.832031 839.820312 456.980469 837.390625 455.25 C 826.84375 447.832031 813.578125 443.421875 798.5 439.21875 C 811.308594 418.867188 824.371094 397.6875 827.75 373.871094 C 829.355469 362.621094 829.769531 350.507812 827.707031 339.835938 C 827.089844 336.210938 826.140625 332.789062 824.824219 329.578125 C 824.332031 328.175781 823.710938 326.816406 822.96875 325.5 C 822.886719 325.25 822.765625 325.042969 822.644531 324.796875 L 822.683594 324.757812 C 822.683594 324.757812 849.378906 355.082031 830.839844 427.1875 C 830.839844 427.1875 881.511719 431.390625 906.519531 502.464844 " fill-opacity="1" fill-rule="nonzero"/><path fill="#7a2d18" d="M 763.152344 230.316406 C 759.730469 253.351562 750.875 275.230469 745.230469 297.851562 C 741.769531 311.652344 739.585938 326.238281 740.574219 340.332031 C 736.496094 347.460938 733.53125 355.125 731.386719 363.160156 C 729.902344 368.722656 721.871094 368.265625 721.210938 362.539062 C 721.171875 362.128906 721.128906 361.757812 721.089844 361.347656 C 717.296875 327.519531 722.035156 293.027344 735.960938 261.921875 C 736 261.796875 736.085938 261.628906 736.167969 261.46875 C 745.023438 241.691406 754.089844 204.152344 751.367188 182.648438 C 748.730469 161.714844 733.980469 142.679688 714.371094 134.890625 C 691.011719 125.621094 664.484375 131.921875 640.917969 140.660156 C 637.085938 142.058594 631.644531 144.160156 626.660156 146.097656 C 621.636719 148.035156 616.445312 149.4375 611.171875 150.300781 C 631.933594 140.289062 652.863281 130.195312 675.480469 126.363281 C 701.640625 121.953125 731.304688 127.476562 748.566406 147.625 C 763.769531 165.339844 766.570312 207.246094 763.152344 230.316406 " fill-opacity="1" fill-rule="nonzero"/></svg>