<svg xmlns="http://www.w3.org/2000/svg" xmlns:xlink="http://www.w3.org/1999/xlink" width="1920" zoomAndPan="magnify" viewBox="0 0 1440 809.999993" height="1080" preserveAspectRatio="xMidYMid meet" version="1.0"><defs><clipPath id="a550e6d81b"><path d="M 458.226562 64.328125 L 977.5625 64.328125 L 977.5625 751.359375 L 458.226562 751.359375 Z M 458.226562 64.328125 " clip-rule="nonzero"/></clipPath><clipPath id="3077a5b293"><path d="M 600.40625 429 L 843.898438 429 L 843.898438 751.359375 L 600.40625 751.359375 Z M 600.40625 429 " clip-rule="nonzero"/></clipPath><clipPath id="b6cbe669e1"><path d="M 689 58.371094 L 982.144531 58.371094 L 982.144531 562 L 689 562 Z M 689 58.371094 " clip-rule="nonzero"/></clipPath></defs><g clip-path="url(#a550e6d81b)"><path fill="#fab093" d="M 900.710938 507.863281 C 881.296875 535.390625 873.464844 569.445312 878.917969 602.664062 L 903.292969 751.359375 L 628.523438 751.359375 L 629.21875 743.003906 C 631.136719 720.4375 627.046875 697.777344 617.378906 677.328125 C 615.175781 672.6875 614.046875 667.636719 614.046875 662.535156 C 614.046875 661.402344 614.101562 660.300781 614.21875 659.171875 L 617.730469 622.792969 C 618.050781 619.429688 618.746094 616.148438 619.355469 612.84375 C 620.457031 606.839844 618.542969 600.570312 614.046875 596.21875 C 610.5625 592.855469 605.921875 591.03125 601.160156 591.03125 C 599.914062 591.03125 598.636719 591.144531 597.386719 591.40625 L 581.949219 594.597656 L 571.707031 596.714844 L 571.621094 596.746094 L 535.375 604.226562 C 528.816406 605.589844 522.03125 604.75 515.996094 601.847656 C 505.433594 596.714844 498.84375 586.070312 498.84375 574.554688 C 498.84375 573.246094 498.929688 571.914062 499.105469 570.578125 L 503.488281 536.957031 C 504.15625 534.433594 503.542969 531.707031 501.859375 529.703125 L 493.5625 519.871094 C 491.066406 516.882812 491.039062 512.53125 493.53125 509.515625 C 496 506.554688 496 502.378906 493.765625 499.476562 L 493.707031 499.421875 L 489.933594 494.199219 C 489.5 493.589844 488.976562 493.097656 488.484375 492.546875 C 486.480469 490.398438 485.757812 487.324219 486.683594 484.480469 L 492.140625 459.125 C 493.1875 455.9375 491.5 452.484375 488.339844 451.355469 L 467.417969 448.542969 C 462.773438 446.855469 459.234375 442.796875 458.394531 437.664062 C 457.785156 433.863281 458.886719 430.003906 461.175781 426.902344 L 511.292969 340.28125 C 514.773438 335.261719 516.082031 329.027344 514.832031 323.050781 C 514.773438 322.933594 514.773438 322.820312 514.746094 322.734375 L 508.660156 306.425781 C 505.925781 299.085938 505.257812 291.132812 506.75 283.4375 L 514.746094 242.117188 C 520.550781 208.410156 533 158.539062 551.597656 137.070312 C 589.144531 93.730469 648.605469 68.699219 705.828125 65.128906 C 763.078125 61.5625 820.648438 78.503906 869.691406 108.265625 C 918.46875 137.886719 960.867188 199.503906 973.953125 255.027344 C 984.890625 301.4375 966.898438 387.59375 946.472656 430.671875 C 933.441406 458.230469 917.917969 483.464844 900.710938 507.863281 " fill-opacity="1" fill-rule="nonzero"/></g><g clip-path="url(#3077a5b293)"><path fill="#d0685c" d="M 804.714844 430.773438 C 803.628906 431.152344 802.496094 431.609375 801.449219 432.15625 C 801.410156 432.199219 801.367188 432.199219 801.367188 432.199219 C 800.777344 432.574219 800.234375 432.949219 799.691406 433.328125 C 795.460938 436.257812 791.609375 439.730469 788.257812 443.667969 C 784.363281 448.1875 781.140625 453.210938 777.074219 457.5625 C 773.058594 461.917969 767.945312 465.644531 762.042969 466.441406 C 756.140625 467.234375 749.105469 464.011719 746.96875 458.445312 C 746.714844 463.300781 746.550781 467.863281 748.097656 472.46875 C 748.429688 473.476562 748.882812 474.453125 749.410156 475.390625 C 747.519531 481.203125 745.164062 489.113281 742.488281 498.675781 C 740.980469 504.113281 739.390625 510.019531 737.671875 516.257812 C 736.835938 519.394531 735.957031 522.703125 735.035156 526.09375 C 734.15625 529.191406 733.152344 532.414062 731.640625 535.554688 C 726.113281 548.15625 715.019531 559.875 700.320312 565.863281 C 698.515625 566.699219 696.589844 567.246094 694.792969 567.914062 C 692.824219 568.375 691.109375 568.917969 689.011719 569.335938 C 685.410156 570.175781 681.851562 570.96875 678.375 571.765625 C 677.914062 571.890625 677.5 571.976562 677.078125 572.058594 C 669.332031 573.859375 661.792969 575.65625 654.589844 577.332031 C 640.226562 580.722656 627.371094 583.90625 616.566406 586.710938 C 610.496094 588.300781 605.136719 589.722656 600.484375 591.0625 C 600.738281 591.023438 600.949219 591.023438 601.199219 591.023438 C 604.761719 591.023438 608.191406 592.027344 611.164062 593.953125 C 612.210938 594.582031 613.21875 595.375 614.097656 596.253906 C 618.578125 600.566406 620.503906 606.84375 619.417969 612.832031 C 618.789062 616.140625 618.074219 619.445312 617.78125 622.796875 L 614.265625 659.171875 C 614.136719 660.304688 614.097656 661.390625 614.097656 662.519531 C 614.097656 667.632812 615.230469 672.652344 617.40625 677.34375 C 627.078125 697.773438 631.183594 720.417969 629.257812 742.984375 L 628.585938 751.355469 L 635.832031 751.355469 C 627.414062 699.613281 634.28125 658.964844 644.835938 629.453125 C 654.339844 602.828125 676.40625 583.027344 703.210938 574.023438 C 703.417969 573.984375 703.542969 573.941406 703.628906 573.902344 C 720.546875 566.949219 733.152344 553.261719 738.96875 538.738281 C 740.5625 535.136719 741.609375 531.453125 742.488281 527.851562 C 743.242188 524.460938 743.996094 521.152344 744.664062 517.933594 C 746.003906 511.609375 747.304688 505.664062 748.480469 500.097656 C 750.179688 491.875 751.515625 484.84375 752.488281 479.214844 C 754.097656 480.632812 756.007812 481.652344 758.148438 481.929688 C 761.414062 482.390625 764.679688 481.132812 767.488281 479.417969 C 774.4375 475.105469 779.132812 468.03125 784.070312 461.5 C 785.453125 459.703125 786.875 457.898438 788.425781 456.226562 C 788.425781 456.226562 788.425781 456.226562 788.464844 456.183594 C 788.464844 456.140625 788.511719 456.101562 788.554688 456.015625 C 789.722656 454.34375 799.105469 442.035156 822.136719 439.605469 C 822.179688 439.605469 822.179688 439.605469 822.179688 439.605469 C 828.375 438.9375 835.496094 439.019531 843.742188 440.148438 C 843.742188 440.148438 822.261719 424.914062 804.714844 430.773438 " fill-opacity="1" fill-rule="nonzero"/></g><path fill="#d0685c" d="M 752.058594 414.609375 C 750.363281 414.609375 748.347656 413.566406 747.921875 411.269531 C 743.523438 387.652344 747.695312 365.015625 759.359375 349.167969 C 768.703125 336.472656 782.554688 328.710938 799.414062 326.714844 L 799.917969 326.683594 C 801.878906 326.683594 803.335938 328.121094 803.457031 330.179688 C 803.570312 332.070312 802.417969 334.128906 800.003906 334.414062 C 779.230469 336.875 764.25 349.273438 757.636719 369.402344 C 759.527344 369.199219 761.699219 369.027344 763.882812 369.027344 C 771.476562 369.027344 776.210938 371.226562 777.957031 375.554688 C 779.363281 379.035156 778.539062 383.125 775.640625 387.078125 C 773.375 390.164062 770.714844 393.050781 768.144531 395.84375 C 767 397.082031 765.863281 398.324219 764.761719 399.574219 C 764.019531 400.410156 763.039062 400.875 761.996094 400.875 C 760.472656 400.875 759 399.894531 758.347656 398.441406 C 757.730469 397.082031 757.96875 395.585938 758.988281 394.433594 L 765.5625 386.976562 C 765.960938 386.519531 766.449219 386.027344 766.960938 385.496094 C 768.613281 383.8125 770.664062 381.707031 770.816406 379.949219 C 770.871094 379.308594 770.722656 378.824219 770.355469 378.417969 C 769.675781 377.683594 767.914062 376.808594 763.359375 376.808594 C 760.710938 376.808594 757.96875 377.097656 755.539062 377.410156 C 753.46875 387.753906 753.488281 399.179688 755.597656 410.519531 C 755.796875 411.59375 755.566406 412.601562 754.941406 413.355469 C 754.277344 414.152344 753.222656 414.609375 752.058594 414.609375 " fill-opacity="1" fill-rule="nonzero"/><path fill="#8e4028" d="M 624.296875 334.554688 C 624.992188 322.890625 618.789062 311.46875 609.640625 304.1875 C 600.496094 296.910156 589.117188 293.039062 577.753906 290.292969 C 566.390625 287.550781 554.761719 285.792969 543.679688 282.074219 C 538.453125 280.3125 533.0625 277.882812 530.054688 273.257812 C 527.921875 280.101562 529.488281 287.257812 533.847656 292.945312 C 537.144531 297.242188 541.886719 300.214844 546.808594 302.484375 C 559.582031 308.367188 573.828125 310 587.484375 313.367188 C 601.136719 316.738281 616.1875 323.066406 624.296875 334.554688 " fill-opacity="1" fill-rule="nonzero"/><path fill="#7a2d18" d="M 612.457031 359.359375 C 597.011719 338.203125 568.539062 331.542969 543.445312 332.097656 C 539.40625 332.1875 539.394531 338.46875 543.445312 338.378906 C 548.597656 338.265625 553.988281 338.480469 559.410156 339.085938 C 558.738281 341.664062 558.363281 344.535156 558.363281 347.570312 C 558.363281 358.730469 563.363281 367.785156 569.558594 367.785156 C 575.722656 367.785156 580.75 358.730469 580.75 347.570312 C 580.75 346.296875 580.679688 345.046875 580.550781 343.832031 C 591.035156 347.59375 600.472656 353.542969 607.035156 362.527344 C 609.390625 365.761719 614.847656 362.628906 612.457031 359.359375 " fill-opacity="1" fill-rule="nonzero"/><path fill="#d0685c" d="M 510.15625 446.054688 C 504.039062 449.777344 492.480469 457.691406 490.722656 465.769531 L 492.144531 459.113281 C 493.195312 455.933594 491.476562 452.5 488.335938 451.371094 L 467.773438 448.566406 C 467.691406 448.519531 467.523438 448.519531 467.3125 448.480469 L 467.273438 448.480469 C 465.933594 447.980469 464.71875 447.308594 463.628906 446.429688 C 478.367188 447.269531 503.828125 448.691406 510.15625 446.054688 " fill-opacity="1" fill-rule="nonzero"/><g clip-path="url(#b6cbe669e1)"><path fill="#8e4028" d="M 965.105469 390.042969 C 956.648438 414.574219 945.171875 437.972656 931.730469 460.160156 C 925.871094 469.832031 918.289062 482.558594 910.707031 495.953125 C 897.058594 520.148438 883.449219 546.5625 879.933594 561.175781 C 879.679688 562.136719 878.257812 561.96875 878.257812 560.964844 C 877.878906 534.007812 868.5 502.945312 860.5 478.328125 C 857.070312 467.65625 851.746094 459.742188 844.921875 453.632812 C 844.878906 453.671875 844.878906 453.632812 844.878906 453.632812 C 834.664062 444.421875 821.09375 439.1875 805.351562 434.582031 C 803.589844 434.078125 801.832031 433.578125 800.035156 433.074219 C 803.300781 427.929688 806.566406 422.691406 809.664062 417.375 C 815.316406 407.75 820.550781 397.871094 824.359375 387.527344 C 826.875 380.789062 828.761719 373.839844 829.765625 366.683594 C 831.019531 357.808594 831.523438 348.472656 830.769531 339.679688 C 830.308594 334.074219 829.300781 328.671875 827.585938 323.773438 C 826.792969 321.304688 825.828125 319.003906 824.613281 316.824219 C 824.574219 316.78125 824.574219 316.78125 824.574219 316.78125 C 818.917969 306.316406 808.953125 299.328125 792.746094 299.449219 C 779.636719 299.578125 767.035156 304.769531 757.109375 313.351562 C 750.742188 318.832031 745.636719 325.15625 741.613281 332.0625 C 737.300781 339.433594 734.160156 347.425781 731.941406 355.753906 C 730.394531 361.449219 722.269531 360.988281 721.597656 355.128906 C 721.558594 354.75 721.515625 354.375 721.472656 353.957031 C 717.871094 322.015625 717.578125 297.90625 729.511719 268.140625 C 731.0625 264.203125 732.949219 260.480469 734.875 256.710938 C 738.222656 250.136719 743.835938 241.097656 749.402344 230.460938 C 769.839844 191.488281 789.6875 114.292969 695.132812 75.824219 C 686.71875 72.390625 688.351562 59.917969 697.4375 58.996094 C 704.050781 58.324219 777.082031 56.023438 812.59375 68.121094 C 821.222656 72.390625 825.828125 82.230469 823.0625 91.480469 C 819.335938 103.953125 817.828125 117.394531 818.917969 131.292969 C 823.191406 184.285156 866.402344 243.816406 919.460938 247.542969 C 931.691406 248.382812 943.539062 247.207031 954.679688 244.277344 C 965.691406 241.390625 976.871094 248.796875 978.925781 259.976562 C 985.332031 295.347656 982.90625 338.339844 965.105469 390.042969 " fill-opacity="1" fill-rule="nonzero"/></g><path fill="#7a2d18" d="M 910.707031 495.953125 C 897.058594 520.148438 883.449219 546.5625 879.933594 561.175781 C 879.679688 562.136719 878.257812 561.96875 878.257812 560.964844 C 877.878906 534.007812 868.5 502.945312 860.5 478.328125 C 857.070312 467.65625 851.746094 459.742188 844.921875 453.632812 C 844.878906 453.671875 844.878906 453.632812 844.878906 453.632812 C 834.664062 444.460938 821.09375 439.230469 805.351562 434.582031 C 803.589844 434.078125 801.832031 433.578125 800.035156 433.074219 L 799.988281 433.074219 C 803.214844 427.929688 806.523438 422.691406 809.664062 417.375 C 815.316406 407.75 820.550781 397.871094 824.359375 387.527344 C 826.832031 380.789062 828.71875 373.839844 829.722656 366.683594 C 830.980469 357.851562 831.523438 348.472656 830.769531 339.679688 C 830.265625 334.074219 829.261719 328.671875 827.585938 323.773438 C 826.75 321.347656 825.742188 319.003906 824.53125 316.824219 L 824.574219 316.78125 C 824.574219 316.78125 824.574219 316.78125 824.613281 316.824219 C 825.785156 318.246094 851.289062 349.308594 832.859375 420.851562 C 832.859375 420.851562 884.996094 425.207031 910.707031 495.953125 " fill-opacity="1" fill-rule="nonzero"/><path fill="#7a2d18" d="M 741.613281 332.0625 C 737.300781 339.433594 734.160156 347.425781 731.941406 355.753906 C 730.394531 361.449219 722.269531 360.988281 721.597656 355.128906 C 721.558594 354.75 721.515625 354.375 721.472656 353.957031 C 717.871094 322.015625 717.578125 297.90625 729.511719 268.140625 C 731.0625 264.203125 732.949219 260.480469 734.875 256.710938 C 738.222656 250.136719 743.835938 241.097656 749.402344 230.460938 C 720.382812 289.488281 741.613281 332.0625 741.613281 332.0625 " fill-opacity="1" fill-rule="nonzero"/></svg>