<svg xmlns="http://www.w3.org/2000/svg" xmlns:xlink="http://www.w3.org/1999/xlink" width="1920" zoomAndPan="magnify" viewBox="0 0 1440 809.999993" height="1080" preserveAspectRatio="xMidYMid meet" version="1.0"><defs><clipPath id="985a7c165e"><path d="M 458.226562 58.285156 L 982.144531 58.285156 L 982.144531 751.453125 L 458.226562 751.453125 Z M 458.226562 58.285156 " clip-rule="nonzero"/></clipPath><clipPath id="7df682ad2d"><path d="M 601.257812 426 L 848 426 L 848 751.453125 L 601.257812 751.453125 Z M 601.257812 426 " clip-rule="nonzero"/></clipPath></defs><g clip-path="url(#985a7c165e)"><path fill="#fab093" d="M 904.875 505.664062 C 885.28125 533.453125 877.371094 567.828125 882.878906 601.355469 L 907.484375 751.453125 L 630.128906 751.453125 L 630.828125 743.015625 C 632.765625 720.238281 628.636719 697.367188 618.878906 676.726562 C 616.65625 672.039062 615.511719 666.945312 615.511719 661.792969 C 615.511719 660.652344 615.570312 659.539062 615.6875 658.394531 L 619.230469 621.675781 C 619.550781 618.277344 620.257812 614.972656 620.871094 611.632812 C 621.984375 605.574219 620.050781 599.246094 615.511719 594.855469 C 611.996094 591.457031 607.3125 589.609375 602.503906 589.609375 C 601.246094 589.609375 599.957031 589.730469 598.695312 589.992188 L 583.117188 593.214844 L 572.777344 595.351562 L 572.6875 595.378906 L 536.105469 602.9375 C 529.484375 604.3125 522.628906 603.460938 516.535156 600.535156 C 505.875 595.351562 499.226562 584.605469 499.226562 572.980469 C 499.226562 571.660156 499.316406 570.316406 499.488281 568.96875 L 503.910156 535.03125 C 504.585938 532.484375 503.972656 529.730469 502.273438 527.710938 L 493.894531 517.785156 C 491.378906 514.769531 491.347656 510.375 493.863281 507.332031 C 496.355469 504.347656 496.355469 500.128906 494.101562 497.203125 L 494.042969 497.140625 L 490.234375 491.871094 C 489.792969 491.257812 489.269531 490.757812 488.769531 490.203125 C 486.75 488.035156 486.015625 484.929688 486.953125 482.0625 L 492.460938 456.472656 C 493.515625 453.25 491.816406 449.765625 488.625 448.621094 L 467.507812 445.785156 C 462.816406 444.085938 459.246094 439.984375 458.394531 434.800781 C 457.777344 430.964844 458.890625 427.074219 461.207031 423.9375 L 511.789062 336.503906 C 515.304688 331.4375 516.625 325.144531 515.367188 319.109375 C 515.304688 318.992188 515.304688 318.878906 515.277344 318.789062 L 509.136719 302.332031 C 506.371094 294.921875 505.703125 286.890625 507.207031 279.128906 L 515.277344 237.414062 C 521.136719 203.390625 533.703125 153.050781 552.476562 131.378906 C 590.378906 87.636719 650.398438 62.367188 708.160156 58.761719 C 765.949219 55.160156 824.066406 72.261719 873.5625 102.304688 C 922.804688 132.203125 965.59375 194.402344 978.808594 250.449219 C 989.847656 297.296875 971.691406 384.261719 951.070312 427.742188 C 937.917969 455.5625 922.25 481.039062 904.875 505.664062 " fill-opacity="1" fill-rule="nonzero"/></g><path fill="#8e4028" d="M 967.386719 392.820312 C 960.582031 408.832031 946.507812 440.949219 936.484375 457.511719 C 930.570312 467.230469 922.960938 480.03125 915.351562 493.472656 C 901.53125 517.941406 887.746094 544.6875 884.199219 559.476562 C 884.113281 559.773438 883.902344 559.984375 883.609375 560.027344 C 883.355469 560.152344 883.054688 560.109375 882.847656 559.941406 C 882.632812 559.816406 882.507812 559.558594 882.507812 559.265625 C 882.128906 532.054688 872.660156 500.699219 864.585938 475.851562 C 855.285156 447.160156 832.628906 438.242188 803.546875 430.171875 C 815.765625 410.691406 828.273438 390.492188 832.710938 368.097656 C 833.050781 366.449219 833.304688 364.804688 833.558594 363.152344 C 837.957031 332.007812 833.515625 294.992188 796.191406 295.289062 C 782.960938 295.414062 770.238281 300.65625 760.222656 309.320312 C 746.945312 320.8125 739.125 335.855469 734.8125 352.125 C 733.25 357.871094 725.050781 357.40625 724.375 351.492188 C 724.335938 351.113281 724.292969 350.730469 724.246094 350.308594 C 721.457031 325.421875 742.382812 276.144531 749.3125 260.597656 C 749.355469 260.554688 749.355469 260.554688 749.355469 260.554688 C 750.964844 257.769531 752.695312 255.019531 754.554688 252.398438 C 765.039062 237.78125 780.929688 225.988281 798.894531 224.890625 C 819.609375 223.625 838.84375 236.761719 851.859375 252.90625 C 864.878906 269.046875 873.335938 288.359375 884.324219 305.9375 C 903.476562 336.40625 930.738281 361.632812 962.398438 378.703125 C 964.46875 379.804688 966.074219 381.492188 967.046875 383.480469 C 968.484375 386.308594 968.699219 389.691406 967.386719 392.820312 " fill-opacity="1" fill-rule="nonzero"/><g clip-path="url(#7df682ad2d)"><path fill="#d0685c" d="M 807.972656 427.847656 C 806.875 428.230469 805.734375 428.695312 804.675781 429.242188 C 804.632812 429.285156 804.589844 429.285156 804.589844 429.285156 C 804 429.664062 803.449219 430.042969 802.898438 430.425781 C 798.628906 433.386719 794.742188 436.890625 791.359375 440.863281 C 787.429688 445.425781 784.171875 450.496094 780.074219 454.894531 C 776.015625 459.289062 770.859375 463.046875 764.902344 463.851562 C 758.941406 464.652344 751.835938 461.398438 749.683594 455.78125 C 749.425781 460.679688 749.261719 465.289062 750.824219 469.9375 C 751.15625 470.949219 751.613281 471.9375 752.148438 472.886719 C 750.234375 478.75 747.859375 486.738281 745.160156 496.390625 C 743.636719 501.882812 742.03125 507.839844 740.296875 514.136719 C 739.453125 517.304688 738.566406 520.644531 737.632812 524.066406 C 736.75 527.191406 735.730469 530.445312 734.210938 533.617188 C 728.632812 546.335938 717.429688 558.167969 702.59375 564.207031 C 700.773438 565.054688 698.828125 565.605469 697.015625 566.28125 C 695.027344 566.746094 693.292969 567.292969 691.179688 567.714844 C 687.546875 568.5625 683.953125 569.363281 680.441406 570.167969 C 679.980469 570.296875 679.558594 570.378906 679.132812 570.464844 C 671.3125 572.28125 663.703125 574.097656 656.433594 575.789062 C 641.933594 579.210938 628.957031 582.421875 618.050781 585.253906 C 611.921875 586.859375 606.511719 588.292969 601.820312 589.648438 C 602.074219 589.605469 602.285156 589.605469 602.542969 589.605469 C 606.132812 589.605469 609.597656 590.617188 612.597656 592.5625 C 613.65625 593.199219 614.671875 594 615.558594 594.886719 C 620.082031 599.238281 622.027344 605.578125 620.925781 611.621094 C 620.292969 614.957031 619.574219 618.300781 619.277344 621.679688 L 615.726562 658.398438 C 615.601562 659.539062 615.558594 660.636719 615.558594 661.777344 C 615.558594 666.933594 616.699219 672.003906 618.898438 676.738281 C 628.660156 697.359375 632.804688 720.222656 630.859375 742.996094 L 630.183594 751.449219 L 637.496094 751.449219 C 629 699.21875 635.933594 658.1875 646.582031 628.394531 C 656.179688 601.523438 678.457031 581.535156 705.507812 572.449219 C 705.71875 572.40625 705.847656 572.367188 705.929688 572.324219 C 723.011719 565.308594 735.730469 551.492188 741.609375 536.828125 C 743.214844 533.191406 744.273438 529.476562 745.160156 525.839844 C 745.917969 522.417969 746.679688 519.082031 747.359375 515.824219 C 748.707031 509.445312 750.023438 503.445312 751.203125 497.828125 C 752.921875 489.523438 754.273438 482.425781 755.253906 476.746094 C 756.878906 478.179688 758.804688 479.207031 760.96875 479.484375 C 764.265625 479.949219 767.5625 478.683594 770.394531 476.953125 C 777.410156 472.597656 782.144531 465.453125 787.132812 458.867188 C 788.53125 457.046875 789.964844 455.230469 791.53125 453.539062 C 791.53125 453.539062 791.53125 453.539062 791.574219 453.496094 C 791.574219 453.457031 791.613281 453.414062 791.65625 453.328125 C 792.839844 451.636719 802.308594 439.214844 825.558594 436.761719 C 825.601562 436.761719 825.601562 436.761719 825.601562 436.761719 C 831.855469 436.089844 839.042969 436.171875 847.367188 437.316406 C 847.367188 437.316406 825.683594 421.933594 807.972656 427.847656 " fill-opacity="1" fill-rule="nonzero"/></g><path fill="#d0685c" d="M 754.816406 411.535156 C 753.109375 411.535156 751.074219 410.480469 750.644531 408.164062 C 746.203125 384.320312 750.410156 361.472656 762.191406 345.472656 C 771.621094 332.660156 785.601562 324.824219 802.625 322.808594 L 803.125 322.78125 C 805.109375 322.78125 806.582031 324.230469 806.703125 326.308594 C 806.8125 328.214844 805.652344 330.292969 803.214844 330.582031 C 782.246094 333.066406 767.125 345.582031 760.449219 365.898438 C 762.355469 365.699219 764.550781 365.519531 766.753906 365.519531 C 774.417969 365.519531 779.203125 367.738281 780.960938 372.109375 C 782.378906 375.621094 781.550781 379.753906 778.621094 383.738281 C 776.335938 386.859375 773.652344 389.769531 771.058594 392.589844 C 769.902344 393.84375 768.753906 395.09375 767.640625 396.351562 C 766.894531 397.199219 765.90625 397.667969 764.855469 397.667969 C 763.3125 397.667969 761.828125 396.683594 761.164062 395.214844 C 760.546875 393.84375 760.785156 392.332031 761.816406 391.167969 L 768.449219 383.640625 C 768.855469 383.179688 769.34375 382.679688 769.863281 382.144531 C 771.527344 380.441406 773.601562 378.320312 773.753906 376.546875 C 773.808594 375.902344 773.660156 375.410156 773.289062 375.003906 C 772.601562 374.257812 770.824219 373.375 766.222656 373.375 C 763.554688 373.375 760.785156 373.667969 758.328125 373.984375 C 756.242188 384.421875 756.261719 395.957031 758.390625 407.402344 C 758.59375 408.492188 758.359375 409.503906 757.726562 410.265625 C 757.058594 411.070312 756 411.535156 754.816406 411.535156 " fill-opacity="1" fill-rule="nonzero"/><path fill="#8e4028" d="M 625.855469 330.722656 C 626.558594 318.949219 620.292969 307.421875 611.0625 300.070312 C 601.828125 292.722656 590.34375 288.816406 578.871094 286.046875 C 567.402344 283.277344 555.664062 281.503906 544.480469 277.746094 C 539.199219 275.972656 533.761719 273.515625 530.726562 268.851562 C 528.574219 275.757812 530.152344 282.976562 534.554688 288.71875 C 537.878906 293.0625 542.667969 296.0625 547.636719 298.347656 C 560.527344 304.292969 574.910156 305.933594 588.695312 309.339844 C 602.476562 312.738281 617.671875 319.128906 625.855469 330.722656 " fill-opacity="1" fill-rule="nonzero"/><path fill="#7a2d18" d="M 613.90625 355.761719 C 598.3125 334.402344 569.570312 327.679688 544.238281 328.242188 C 540.164062 328.335938 540.152344 334.671875 544.238281 334.582031 C 549.441406 334.464844 554.882812 334.6875 560.355469 335.296875 C 559.679688 337.902344 559.300781 340.800781 559.300781 343.863281 C 559.300781 355.128906 564.347656 364.265625 570.597656 364.265625 C 576.824219 364.265625 581.894531 355.128906 581.894531 343.863281 C 581.894531 342.574219 581.824219 341.316406 581.695312 340.089844 C 592.277344 343.886719 601.804688 349.890625 608.429688 358.960938 C 610.8125 362.222656 616.316406 359.066406 613.90625 355.761719 " fill-opacity="1" fill-rule="nonzero"/><path fill="#d0685c" d="M 510.601562 443.273438 C 504.429688 447.035156 492.765625 455.019531 490.988281 463.175781 L 492.425781 456.457031 C 493.484375 453.242188 491.75 449.78125 488.582031 448.640625 L 467.824219 445.804688 C 467.738281 445.765625 467.574219 445.765625 467.359375 445.722656 L 467.316406 445.722656 C 465.964844 445.214844 464.738281 444.539062 463.640625 443.652344 C 478.519531 444.496094 504.222656 445.933594 510.601562 443.273438 " fill-opacity="1" fill-rule="nonzero"/><path fill="#7a2d18" d="M 915.351562 493.472656 C 901.53125 517.941406 887.746094 544.6875 884.199219 559.476562 C 884.113281 559.773438 883.902344 559.984375 883.609375 560.027344 C 883.355469 560.152344 883.054688 560.109375 882.847656 559.941406 C 882.632812 559.816406 882.507812 559.558594 882.507812 559.265625 C 882.128906 532.054688 872.660156 500.699219 864.585938 475.851562 C 855.285156 447.160156 832.628906 438.242188 803.546875 430.171875 C 815.765625 410.691406 828.273438 390.492188 832.710938 368.097656 C 833.429688 366.324219 833.9375 364.671875 834.152344 363.152344 C 836.390625 347.390625 836.351562 330.152344 830.9375 316.96875 C 837.445312 327.617188 851.4375 359.308594 836.390625 417.832031 C 836.390625 417.832031 887.324219 427.808594 914.507812 491.574219 C 914.84375 492.203125 915.097656 492.839844 915.351562 493.472656 " fill-opacity="1" fill-rule="nonzero"/></svg>