<svg xmlns="http://www.w3.org/2000/svg" xmlns:xlink="http://www.w3.org/1999/xlink" width="1920" zoomAndPan="magnify" viewBox="0 0 1440 809.999993" height="1080" preserveAspectRatio="xMidYMid meet" version="1.0"><defs><clipPath id="dff9b23cd0"><path d="M 483.625 85.339844 L 955.980469 85.339844 L 955.980469 684.695312 L 483.625 684.695312 Z M 483.625 85.339844 " clip-rule="nonzero"/></clipPath><clipPath id="b587b48bef"><path d="M 610.277344 501.28125 L 829.804688 501.28125 L 829.804688 757.015625 L 610.277344 757.015625 Z M 610.277344 501.28125 " clip-rule="nonzero"/></clipPath></defs><g clip-path="url(#dff9b23cd0)"><path fill="#8e4028" d="M 924.058594 649.28125 C 898.765625 658.394531 872.203125 665.878906 844.6875 671.566406 C 847.339844 637.554688 848.117188 593.695312 845.464844 556.015625 C 845.464844 556.015625 844.300781 630.777344 800.078125 679.121094 C 772.878906 682.691406 744.90625 684.558594 716.363281 684.558594 C 697.714844 684.558594 676.027344 682.265625 653.457031 678.628906 C 607.257812 655.320312 567.023438 611.742188 586.804688 530.519531 C 585.601562 533.660156 561.300781 599.59375 576.351562 662.523438 C 555.050781 657.300781 535.164062 651.789062 518.5625 646.914062 C 493.414062 639.570312 478.613281 613.578125 485.183594 588.222656 C 498.996094 534.683594 516.265625 439.726562 497.296875 346.632812 L 497.261719 346.707031 C 497.15625 345.679688 497.050781 344.660156 496.980469 343.632812 C 491.152344 283.316406 505.070312 222.503906 537.566406 171.828125 C 537.601562 171.792969 537.601562 171.792969 537.636719 171.757812 C 541.414062 165.824219 545.480469 160.035156 549.789062 154.417969 C 562.46875 137.894531 577.621094 122.175781 595.496094 109.710938 L 595.527344 109.710938 C 648.792969 75.175781 698.738281 82.554688 736.601562 99.929688 C 747.730469 105.015625 758.328125 111.335938 767.582031 119.421875 C 767.652344 119.457031 767.6875 119.492188 767.6875 119.492188 C 788.492188 137.714844 794.214844 155.195312 794.214844 155.195312 C 799.511719 166.070312 807.003906 160.914062 807.003906 160.914062 C 812.757812 157.632812 818.871094 155.582031 825.015625 154.523438 C 825.015625 154.523438 825.015625 154.523438 825.050781 154.523438 C 831.371094 153.429688 837.730469 153.289062 843.808594 153.785156 C 876.515625 156.363281 905.441406 177.445312 917.949219 207.78125 C 921.726562 216.925781 924.410156 226.601562 926.179688 236.382812 C 926.214844 236.417969 926.214844 236.417969 926.214844 236.457031 C 928.4375 248.355469 929.425781 260.398438 929.675781 271.769531 C 928.824219 283.316406 927.484375 302.070312 926.671875 313.652344 C 925.609375 320.539062 924.621094 327.425781 923.984375 334.3125 C 923.171875 342.925781 922.855469 351.542969 923.457031 360.160156 C 927.660156 420.867188 950.160156 538.605469 955.777344 598.992188 C 957.789062 621.027344 944.898438 641.792969 924.058594 649.28125 " fill-opacity="1" fill-rule="nonzero"/></g><path fill="#7a2d18" d="M 880.226562 629.292969 C 880.226562 629.292969 886.199219 579.886719 866.628906 545.707031 C 866.628906 545.707031 868.21875 612.695312 853.664062 669.800781 L 853.664062 669.835938 C 850.980469 670.433594 848.296875 671 845.578125 671.566406 C 848.226562 637.554688 849.003906 593.695312 846.355469 556.015625 C 846.355469 556.015625 845.1875 630.777344 800.964844 679.121094 C 773.769531 682.691406 745.792969 684.558594 717.253906 684.558594 C 698.601562 684.558594 676.914062 682.265625 654.347656 678.628906 C 608.144531 655.320312 567.914062 611.742188 587.691406 530.519531 C 586.492188 533.660156 562.191406 599.59375 577.238281 662.523438 C 574.554688 661.851562 571.9375 661.21875 569.324219 660.546875 L 568.796875 660.40625 L 558.375 657.722656 C 558.375 657.722656 532.835938 537.121094 558.375 431.179688 C 558.375 431.179688 740.105469 511.871094 892.910156 402.222656 C 892.910156 402.222656 897.5 549.269531 880.226562 629.292969 " fill-opacity="1" fill-rule="nonzero"/><g clip-path="url(#b587b48bef)"><path fill="#fab093" d="M 610.363281 757.015625 C 649.402344 700.40625 650.785156 638.21875 644.097656 593.652344 C 638.605469 557.066406 627.65625 532.34375 627.65625 532.34375 L 719.792969 501.550781 L 811.890625 532.34375 C 811.890625 532.34375 792.683594 575.710938 792.371094 632.601562 C 792.179688 670.953125 800.558594 715.488281 829.183594 757.015625 L 610.363281 757.015625 " fill-opacity="1" fill-rule="nonzero"/></g><path fill="#d0685c" d="M 811.890625 532.34375 C 811.890625 532.34375 792.683594 575.710938 792.371094 632.601562 C 776.503906 640.691406 759.867188 645.175781 742.847656 645.175781 C 706.917969 645.175781 672.683594 625.257812 644.097656 593.652344 C 638.605469 557.066406 627.65625 532.34375 627.65625 532.34375 L 719.792969 501.550781 L 811.890625 532.34375 " fill-opacity="1" fill-rule="nonzero"/><path fill="#fab093" d="M 904.914062 386.1875 C 900.25 413.804688 888.136719 440.289062 870.050781 462.363281 C 868.320312 464.480469 866.09375 466.632812 863.691406 468.226562 C 848.644531 513.742188 825.371094 554.460938 797.464844 582.113281 C 774.078125 605.277344 747.484375 619.300781 719.792969 619.300781 C 692.0625 619.300781 665.46875 605.277344 642.117188 582.078125 C 614.25 554.429688 590.972656 513.742188 575.925781 468.257812 C 573.488281 466.667969 571.261719 464.515625 569.496094 462.363281 C 551.414062 440.289062 539.296875 413.804688 534.632812 386.1875 C 533.785156 381.28125 533.183594 376.265625 534.210938 371.425781 C 535.234375 366.554688 538.097656 361.855469 542.6875 359.5625 C 546.960938 357.40625 552.472656 357.722656 556.496094 360.269531 C 556.851562 360.515625 557.167969 360.761719 557.523438 361.007812 C 557.488281 359.738281 557.488281 358.464844 557.488281 357.160156 C 557.488281 356.628906 557.488281 356.066406 557.523438 355.535156 C 558.863281 350.449219 561.019531 346 563.8125 342.046875 C 577.230469 323.082031 605.277344 315.558594 628.378906 302.210938 C 657.765625 285.1875 690.753906 275.441406 721.167969 260.363281 C 724.347656 258.773438 727.527344 257.113281 730.667969 255.382812 C 738.972656 250.757812 747.058594 245.566406 754.546875 239.738281 C 755.820312 238.75 757.054688 237.691406 758.292969 236.664062 C 758.148438 236.523438 758.007812 236.347656 757.867188 236.207031 C 757.761719 236.136719 757.691406 236.066406 757.621094 235.996094 C 756.632812 235.21875 755.539062 234.125 756.136719 233.066406 C 756.351562 232.675781 756.703125 232.429688 757.054688 232.253906 C 758.714844 231.261719 760.378906 230.273438 762 229.25 C 762.53125 228.96875 763.128906 228.613281 763.34375 228.015625 C 763.800781 226.742188 762.566406 225.507812 761.4375 224.976562 C 760.234375 224.484375 758.855469 223.988281 758.503906 222.648438 C 761.257812 221.867188 764.050781 221.09375 766.839844 220.316406 C 768.605469 219.820312 770.65625 218.941406 770.972656 217.03125 C 771.253906 215.265625 769.808594 213.746094 768.429688 212.757812 C 767.015625 211.769531 765.425781 210.742188 765.003906 209.050781 C 767.476562 208.449219 769.984375 207.882812 772.453125 207.355469 C 773.199219 207.144531 774.078125 206.894531 774.398438 206.085938 C 774.789062 205.058594 773.796875 204.035156 772.984375 203.332031 C 771.644531 202.304688 770.300781 201.210938 768.957031 200.148438 C 768.640625 199.902344 768.253906 199.585938 768.183594 199.09375 C 768.042969 198.316406 768.816406 197.75 769.488281 197.398438 C 772.808594 195.664062 776.273438 194.289062 779.835938 193.265625 C 780.441406 193.085938 781.144531 192.878906 781.460938 192.242188 C 782.027344 191.21875 781.039062 189.980469 780.191406 189.238281 C 777.859375 187.191406 775.5625 185.210938 773.234375 183.164062 C 776.199219 182.632812 779.203125 182.105469 782.167969 181.644531 C 783.085938 181.472656 784.148438 181.1875 784.535156 180.269531 C 785.101562 178.960938 783.863281 177.617188 782.769531 176.808594 C 780.191406 174.757812 777.613281 172.785156 775 170.769531 C 774.503906 170.414062 773.976562 169.886719 774.046875 169.253906 C 774.152344 168.617188 774.824219 168.296875 775.386719 168.15625 C 779.910156 166.816406 784.605469 166.566406 789.269531 166.355469 C 784.503906 161.410156 779.027344 157.351562 773.058594 154.347656 C 773.058594 154.347656 792.023438 147.851562 812.828125 163.351562 C 813.535156 163.917969 813.429688 165.082031 812.652344 165.472656 C 810.074219 166.675781 807.636719 168.191406 805.339844 169.925781 C 807.742188 171.617188 810.074219 173.453125 812.300781 175.394531 C 812.96875 175.996094 812.757812 177.195312 811.945312 177.515625 C 809.828125 178.253906 807.742188 179 805.660156 179.738281 C 805.09375 179.914062 804.527344 180.195312 804.28125 180.726562 C 803.996094 181.472656 804.421875 182.28125 804.917969 182.917969 C 807.105469 185.601562 810.144531 187.863281 811.378906 191.003906 C 811.699219 191.816406 811.167969 192.699219 810.394531 192.738281 C 807.144531 192.839844 803.894531 192.945312 800.640625 193.054688 C 800.183594 193.085938 799.652344 193.125 799.300781 193.441406 C 798.628906 194.113281 799.089844 195.3125 799.546875 196.125 C 800.925781 198.632812 802.339844 201.175781 803.714844 203.683594 C 804.136719 204.460938 803.648438 205.484375 802.796875 205.484375 C 799.546875 205.519531 799.546875 205.554688 796.296875 205.589844 C 795.449219 205.589844 794.566406 205.589844 793.859375 206.050781 C 792.410156 207.035156 792.375 209.367188 793.15625 210.992188 C 793.933594 212.582031 795.308594 213.785156 796.371094 215.195312 C 797.429688 216.644531 798.167969 218.621094 797.390625 220.242188 C 795.734375 220.492188 790.824219 220.738281 789.199219 220.953125 C 789.90625 223.386719 791.597656 225.222656 793.046875 227.203125 C 794.5 229.144531 795.765625 231.582031 795.34375 234.085938 C 793.578125 233.878906 791.847656 233.699219 790.082031 233.558594 C 792.484375 238.609375 793.367188 244.472656 792.660156 250.121094 C 792.234375 250.15625 791.8125 250.121094 791.421875 250.085938 C 791.882812 251.675781 792.34375 253.226562 792.875 254.785156 C 798.207031 270.78125 806.648438 285.613281 815.65625 299.914062 C 831.550781 325.164062 861.960938 337.277344 882.097656 359.242188 C 882.132812 359.808594 882.132812 360.410156 882.097656 361.007812 C 882.414062 360.726562 882.730469 360.476562 883.050781 360.269531 C 887.078125 357.722656 892.585938 357.40625 896.859375 359.5625 C 901.453125 361.855469 904.3125 366.554688 905.335938 371.425781 C 906.363281 376.265625 905.761719 381.28125 904.914062 386.1875 " fill-opacity="1" fill-rule="nonzero"/><path fill="#d0685c" d="M 730.667969 255.382812 C 721.203125 268.589844 708.984375 279.855469 694.996094 288.117188 C 667.441406 304.433594 634.066406 309.0625 607.148438 326.398438 C 591.148438 336.710938 577.972656 351.402344 569.425781 368.425781 C 566.8125 360.019531 564.800781 351.085938 563.8125 342.046875 C 577.230469 323.082031 605.277344 315.558594 628.378906 302.210938 C 657.765625 285.1875 690.753906 275.441406 721.167969 260.363281 C 724.347656 258.773438 727.527344 257.113281 730.667969 255.382812 " fill-opacity="1" fill-rule="nonzero"/><path fill="#8e4028" d="M 846.839844 330.875 C 862.703125 369.722656 864.574219 401.578125 864.433594 415.84375 C 867.082031 377.207031 882.554688 360.257812 882.554688 360.257812 C 890.816406 318.375 846.839844 330.875 846.839844 330.875 " fill-opacity="1" fill-rule="nonzero"/><path fill="#8e4028" d="M 556.992188 361.035156 C 556.992188 361.035156 572.472656 377.207031 575.121094 415.84375 C 574.980469 401.578125 578.730469 352.0625 594.59375 313.21875 C 594.59375 313.21875 548.726562 319.152344 556.992188 361.035156 " fill-opacity="1" fill-rule="nonzero"/><path fill="#7a2d18" d="M 544.304688 276.117188 C 543.09375 275.792969 545.324219 260.671875 557.027344 239.0625 C 563.03125 228.414062 571.703125 216.40625 583.539062 205.15625 C 595.28125 193.816406 610.375 183.675781 627.390625 175.816406 C 644.410156 167.910156 661.703125 163.226562 677.507812 160.332031 C 693.363281 157.574219 707.808594 156.542969 719.898438 156.605469 C 744.113281 156.660156 758.816406 160.230469 758.582031 161.804688 C 758.386719 163.457031 743.699219 162.886719 720.257812 164.9375 C 696.96875 167.050781 664.457031 171.804688 632.332031 186.53125 C 616.359375 193.921875 602.191406 203.050781 590.878906 213.179688 C 579.472656 223.226562 570.707031 233.902344 564.121094 243.449219 C 551.257812 262.796875 546.164062 276.789062 544.304688 276.117188 " fill-opacity="1" fill-rule="nonzero"/><path fill="#8e4028" d="M 743.210938 344.679688 C 746.078125 351.246094 752.988281 355.632812 759.566406 356.78125 C 766.148438 357.929688 772.867188 356.996094 779.527344 356.804688 C 799.953125 356.234375 820.496094 362.976562 837.242188 375.75 C 825.558594 360.550781 808.96875 350.015625 790.957031 347.359375 C 775.730469 345.113281 758.132812 348.679688 743.210938 344.679688 " fill-opacity="1" fill-rule="nonzero"/><path fill="#7a2d18" d="M 825.976562 389.578125 C 800.902344 377.101562 770.582031 377.890625 749.144531 397.652344 C 746.578125 400.015625 750.410156 403.832031 752.964844 401.476562 C 759.667969 395.292969 767.359375 391.214844 775.480469 388.914062 C 775.242188 389.925781 775.105469 390.984375 775.105469 392.078125 C 775.105469 398.808594 779.9375 404.269531 785.921875 404.269531 C 791.882812 404.269531 796.710938 398.808594 796.710938 392.078125 C 796.710938 390.164062 796.285156 388.378906 795.59375 386.769531 C 805.050781 387.316406 814.519531 389.902344 823.246094 394.246094 C 826.351562 395.789062 829.09375 391.128906 825.976562 389.578125 " fill-opacity="1" fill-rule="nonzero"/><path fill="#8e4028" d="M 696.246094 344.679688 C 693.378906 351.246094 686.46875 355.632812 679.886719 356.78125 C 673.304688 357.929688 666.589844 356.996094 659.929688 356.804688 C 639.503906 356.234375 618.960938 362.976562 602.214844 375.75 C 613.898438 360.550781 630.488281 350.015625 648.5 347.359375 C 663.726562 345.113281 681.324219 348.679688 696.246094 344.679688 " fill-opacity="1" fill-rule="nonzero"/><path fill="#7a2d18" d="M 690.316406 397.652344 C 668.871094 377.890625 638.558594 377.101562 613.480469 389.578125 C 610.367188 391.125 613.101562 395.792969 616.210938 394.246094 C 624.941406 389.902344 634.40625 387.316406 643.863281 386.769531 C 643.171875 388.378906 642.746094 390.164062 642.746094 392.078125 C 642.746094 398.808594 647.574219 404.269531 653.535156 404.269531 C 659.519531 404.269531 664.351562 398.808594 664.351562 392.078125 C 664.351562 390.984375 664.214844 389.925781 663.976562 388.914062 C 672.097656 391.214844 679.789062 395.292969 686.492188 401.476562 C 689.046875 403.828125 692.878906 400.019531 690.316406 397.652344 " fill-opacity="1" fill-rule="nonzero"/><path fill="#d0685c" d="M 740.152344 483.308594 C 731.554688 484.050781 719.714844 484.25 719.714844 484.25 C 719.714844 484.25 707.890625 484.050781 699.304688 483.308594 C 698.3125 483.222656 697.984375 484.59375 698.902344 484.972656 L 716.171875 492.183594 C 718.441406 493.128906 720.992188 493.128906 723.261719 492.183594 L 740.550781 484.972656 C 741.46875 484.59375 741.136719 483.222656 740.152344 483.308594 " fill-opacity="1" fill-rule="nonzero"/><path fill="#d0685c" d="M 763.640625 527.121094 C 752.324219 525.90625 719.714844 527.121094 719.714844 527.121094 C 719.714844 527.121094 687.132812 525.90625 675.796875 527.121094 C 675.796875 527.121094 709.09375 514.925781 719.714844 521.035156 C 730.363281 514.925781 763.640625 527.121094 763.640625 527.121094 " fill-opacity="1" fill-rule="nonzero"/><path fill="#d0685c" d="M 737.078125 538.367188 C 737.078125 538.367188 736.300781 539.261719 734.808594 540.449219 C 726.027344 547.464844 713.390625 547.46875 704.621094 540.433594 C 703.148438 539.253906 702.378906 538.367188 702.378906 538.367188 L 737.078125 538.367188 " fill-opacity="1" fill-rule="nonzero"/><path fill="#d0685c" d="M 874.753906 420.40625 C 877.21875 406.167969 880.726562 389.058594 889.964844 377.621094 C 892.089844 374.992188 888.363281 371.222656 886.21875 373.875 C 876.304688 386.152344 872.289062 403.726562 869.644531 418.996094 C 869.066406 422.332031 874.171875 423.761719 874.753906 420.40625 " fill-opacity="1" fill-rule="nonzero"/><path fill="#d0685c" d="M 564.730469 420.40625 C 562.265625 406.167969 558.757812 389.058594 549.515625 377.621094 C 547.394531 374.992188 551.121094 371.222656 553.261719 373.875 C 563.179688 386.152344 567.195312 403.726562 569.839844 418.996094 C 570.417969 422.332031 565.3125 423.761719 564.730469 420.40625 " fill-opacity="1" fill-rule="nonzero"/><path fill="#c96a50" d="M 767.582031 119.421875 C 763.519531 117.234375 640.070312 52.21875 537.636719 171.757812 C 541.414062 165.824219 545.480469 160.035156 549.789062 154.417969 C 562.46875 137.894531 577.621094 122.175781 595.496094 109.710938 L 595.527344 109.710938 C 648.792969 75.175781 698.738281 82.554688 736.601562 99.929688 C 747.730469 105.015625 758.328125 111.335938 767.582031 119.421875 " fill-opacity="1" fill-rule="nonzero"/><path fill="#c96a50" d="M 926.179688 236.382812 C 900.25 161.054688 826.921875 154.664062 825.050781 154.523438 C 831.371094 153.429688 837.730469 153.289062 843.808594 153.785156 C 876.515625 156.363281 905.441406 177.445312 917.949219 207.78125 C 921.726562 216.925781 924.410156 226.601562 926.179688 236.382812 " fill-opacity="1" fill-rule="nonzero"/><path fill="#7a2d18" d="M 573.828125 345.320312 C 573.46875 345.125 573.496094 344.289062 573.886719 342.851562 C 574.253906 341.390625 575.042969 339.363281 576.347656 336.878906 C 578.929688 331.9375 583.550781 325.066406 590.882812 318.152344 C 598.121094 311.148438 607.957031 304.175781 619.578125 298.027344 C 631.210938 291.824219 644.621094 286.699219 658.46875 281.671875 C 672.335938 276.65625 685.34375 271.996094 696.601562 266.757812 C 707.875 261.585938 717.375 255.777344 725.046875 250.300781 C 740.347656 239.3125 748.523438 230.5 749.898438 231.648438 C 751.058594 232.515625 745.078125 243.441406 730.257812 256.816406 C 722.875 263.445312 713.109375 270.472656 701.402344 276.515625 C 689.738281 282.613281 676.355469 287.746094 662.5 292.761719 C 648.640625 297.789062 635.640625 302.429688 624.441406 307.75 C 613.21875 313.042969 603.675781 318.792969 596.324219 324.476562 C 581.488281 335.78125 575.472656 346.246094 573.828125 345.320312 " fill-opacity="1" fill-rule="nonzero"/></svg>