<svg xmlns="http://www.w3.org/2000/svg" xmlns:xlink="http://www.w3.org/1999/xlink" width="1920" zoomAndPan="magnify" viewBox="0 0 1440 809.999993" height="1080" preserveAspectRatio="xMidYMid meet" version="1.0"><defs><clipPath id="c27ef16d26"><path d="M 472.542969 70.707031 L 967.488281 70.707031 L 967.488281 678.835938 L 472.542969 678.835938 Z M 472.542969 70.707031 " clip-rule="nonzero"/></clipPath><clipPath id="1667e9711d"><path d="M 605.25 486.582031 L 835 486.582031 L 835 754.589844 L 605.25 754.589844 Z M 605.25 486.582031 " clip-rule="nonzero"/></clipPath></defs><g clip-path="url(#c27ef16d26)"><path fill="#8e4028" d="M 934.039062 641.660156 C 907.539062 651.210938 879.707031 659.054688 850.875 665.015625 C 853.652344 629.371094 854.464844 583.394531 851.6875 543.898438 C 851.6875 543.898438 850.46875 622.261719 804.132812 672.9375 C 775.632812 676.675781 746.320312 678.636719 716.414062 678.636719 C 696.871094 678.636719 674.144531 676.234375 650.496094 672.417969 C 602.082031 647.988281 559.929688 602.308594 580.65625 517.171875 C 579.398438 520.46875 553.933594 589.578125 569.699219 655.539062 C 547.382812 650.0625 526.546875 644.285156 509.148438 639.179688 C 482.796875 631.480469 467.289062 604.238281 474.171875 577.65625 C 488.644531 521.539062 506.742188 422.003906 486.867188 324.429688 L 486.832031 324.5 C 486.71875 323.429688 486.609375 322.355469 486.535156 321.28125 C 481.277344 266.792969 491.382812 211.933594 516.070312 163.8125 C 523.398438 149.523438 531.984375 135.832031 541.867188 122.949219 C 596.238281 58.539062 667.851562 64.796875 721.003906 83.300781 C 721.152344 83.339844 721.261719 83.378906 721.335938 83.414062 C 761.195312 97.332031 790.585938 118.023438 794.46875 120.835938 C 794.765625 121.058594 794.914062 121.167969 794.914062 121.167969 C 796.691406 122.613281 797.726562 123.539062 797.953125 123.722656 C 797.984375 123.761719 797.984375 123.761719 797.984375 123.761719 C 803.539062 135.164062 811.386719 129.757812 811.386719 129.757812 C 811.386719 129.757812 946.625 126.09375 938.40625 266.683594 C 938.296875 268.050781 938.222656 269.460938 938.113281 270.863281 C 937.632812 277.785156 937.148438 284.523438 936.78125 289.855469 C 935.667969 297.074219 934.632812 304.289062 933.964844 311.507812 C 933.113281 320.542969 932.78125 329.574219 933.414062 338.605469 C 937.8125 402.238281 961.394531 525.648438 967.277344 588.945312 C 969.386719 612.046875 955.875 633.8125 934.039062 641.660156 " fill-opacity="1" fill-rule="nonzero"/></g><path fill="#7a2d18" d="M 889.046875 620.707031 C 889.046875 620.707031 895.304688 568.921875 874.796875 533.089844 C 874.796875 533.089844 876.460938 603.308594 861.214844 663.164062 L 861.214844 663.203125 C 858.398438 663.832031 855.585938 664.425781 852.738281 665.015625 C 855.515625 629.371094 856.328125 583.394531 853.550781 543.898438 C 853.550781 543.898438 852.328125 622.261719 805.996094 672.9375 C 777.496094 676.675781 748.183594 678.636719 718.277344 678.636719 C 698.734375 678.636719 676.007812 676.234375 652.359375 672.417969 C 603.945312 647.988281 561.789062 602.308594 582.515625 517.171875 C 581.257812 520.46875 555.796875 589.578125 571.5625 655.539062 C 568.75 654.835938 566.011719 654.167969 563.273438 653.46875 L 562.71875 653.316406 L 551.800781 650.503906 C 551.800781 650.503906 525.039062 524.09375 551.800781 413.046875 C 551.800781 413.046875 742.222656 497.628906 902.335938 382.691406 C 902.335938 382.691406 907.144531 536.828125 889.046875 620.707031 " fill-opacity="1" fill-rule="nonzero"/><g clip-path="url(#1667e9711d)"><path fill="#fab093" d="M 605.296875 754.589844 C 646.203125 695.246094 647.652344 630.0625 640.648438 583.351562 C 634.890625 545 623.417969 519.089844 623.417969 519.089844 L 719.964844 486.808594 L 816.464844 519.089844 C 816.464844 519.089844 796.335938 564.542969 796.011719 624.175781 C 795.8125 664.378906 804.589844 711.054688 834.585938 754.589844 L 605.296875 754.589844 " fill-opacity="1" fill-rule="nonzero"/></g><path fill="#d0685c" d="M 816.464844 519.089844 C 816.464844 519.089844 796.335938 564.542969 796.011719 624.175781 C 779.386719 632.65625 761.957031 637.355469 744.117188 637.355469 C 706.476562 637.355469 670.601562 616.480469 640.648438 583.351562 C 634.890625 545 623.417969 519.089844 623.417969 519.089844 L 719.964844 486.808594 L 816.464844 519.089844 " fill-opacity="1" fill-rule="nonzero"/><path fill="#fab093" d="M 914.375 350.398438 C 913.3125 345.3125 910.3125 340.367188 905.480469 337.960938 C 901 335.734375 895.246094 336.035156 891.039062 338.71875 C 890.664062 338.957031 890.3125 339.234375 889.964844 339.511719 C 889.972656 338.898438 890.011719 338.285156 890.019531 337.671875 C 890.011719 337.660156 890.007812 337.648438 890.003906 337.632812 C 868.90625 314.609375 837.039062 301.914062 820.382812 275.445312 C 815.023438 266.945312 808.5625 253.445312 803.410156 241.992188 C 802.753906 238.714844 803.882812 234.664062 803.890625 231.324219 C 809.511719 234.519531 815.132812 237.710938 820.757812 240.902344 C 821.359375 241.246094 822.117188 241.589844 822.703125 241.21875 C 823.292969 240.847656 823.308594 240.011719 823.257812 239.316406 C 822.757812 232.621094 822.257812 225.925781 821.757812 219.234375 C 831.660156 222.433594 840.859375 227.78125 848.542969 234.796875 C 851.636719 237.621094 854.503906 240.726562 857.660156 243.46875 C 859.078125 244.699219 861.316406 243.4375 860.988281 241.589844 C 858.15625 225.796875 851.867188 210.628906 842.660156 197.488281 L 862.605469 208.03125 C 863.328125 208.414062 864.175781 207.886719 864.207031 207.070312 C 864.328125 203.855469 862.855469 200.644531 861.300781 197.746094 C 856.070312 187.996094 849.566406 178.925781 842.007812 170.851562 C 847.652344 171.898438 853.15625 173.707031 858.316406 176.21875 C 855.089844 167.6875 848.894531 160.308594 841.058594 155.640625 C 838.71875 154.253906 836.085938 152.941406 834.890625 150.496094 C 839.464844 150.550781 844.039062 150.359375 848.585938 149.9375 C 841.367188 141.207031 829.640625 137.980469 818.960938 133.417969 C 816.359375 131.796875 797.972656 123.753906 797.972656 123.753906 C 795.808594 121.203125 792.292969 121.414062 788.953125 121.308594 C 779.753906 121.023438 770.542969 121.15625 761.355469 121.722656 C 759.542969 121.835938 757.574219 122.027344 756.253906 123.273438 C 760.875 125.167969 765.5 127.0625 770.125 128.960938 C 771.734375 129.617188 773.628906 130.707031 773.53125 132.441406 C 769.152344 132.875 764.792969 133.519531 760.476562 134.371094 C 760.195312 134.425781 759.894531 134.492188 759.695312 134.695312 C 759.277344 135.117188 759.527344 135.839844 759.875 136.320312 C 761.621094 138.75 765.042969 139.511719 766.761719 141.960938 C 766.996094 142.300781 767.203125 142.6875 767.1875 143.101562 C 767.136719 144.285156 765.558594 144.621094 764.371094 144.640625 C 761.125 144.703125 757.882812 145.0625 754.699219 145.71875 C 754.105469 145.839844 753.417969 146.050781 753.210938 146.617188 C 752.964844 147.300781 753.566406 147.976562 754.117188 148.453125 C 756.484375 150.527344 758.855469 152.597656 761.222656 154.671875 C 754.238281 155.371094 747.207031 154.300781 740.195312 153.898438 C 733.1875 153.496094 725.855469 153.832031 719.632812 157.085938 C 718.867188 157.488281 718.085938 157.96875 717.675781 158.726562 C 716.992188 159.996094 717.605469 161.640625 718.675781 162.597656 C 719.746094 163.5625 721.167969 164.003906 722.53125 164.460938 C 728.828125 166.578125 734.847656 169.519531 740.382812 173.1875 C 735.953125 174.261719 731.34375 174.589844 726.800781 174.164062 C 734.464844 177.378906 742.292969 180.695312 748.441406 186.292969 C 748.761719 186.582031 749.101562 186.953125 749.019531 187.378906 C 748.925781 187.890625 748.304688 188.082031 747.789062 188.179688 C 745.238281 188.664062 742.722656 189.332031 740.265625 190.179688 C 739.753906 190.359375 739.191406 190.585938 738.960938 191.082031 C 738.585938 191.894531 739.351562 192.769531 740.105469 193.265625 C 744.109375 195.894531 749.648438 195.804688 753.113281 199.105469 C 750.257812 200.535156 747.394531 201.96875 744.535156 203.398438 C 742.792969 204.269531 740.722656 205.9375 741.519531 207.722656 C 747.085938 207.535156 753.019531 207.242188 758.335938 208.757812 C 758.871094 208.914062 759.425781 209.140625 759.988281 209.40625 C 758.453125 210.695312 756.894531 211.972656 755.835938 212.777344 C 755.796875 212.8125 755.761719 212.8125 755.761719 212.8125 C 753.390625 214.664062 750.984375 216.441406 748.507812 218.144531 C 748.46875 218.183594 748.46875 218.183594 748.46875 218.183594 C 739.847656 224.140625 730.667969 229.394531 721.375 233.988281 C 689.507812 249.792969 654.941406 260.011719 624.148438 277.851562 C 595.34375 294.515625 559.140625 302.523438 550.285156 332.375 C 550.171875 333.230469 549.980469 334.621094 549.867188 335.476562 C 549.867188 336.832031 549.867188 338.148438 549.902344 339.503906 C 549.558594 339.230469 549.214844 338.957031 548.847656 338.71875 C 544.640625 336.035156 538.878906 335.734375 534.398438 337.960938 C 529.570312 340.367188 526.570312 345.3125 525.503906 350.398438 C 524.441406 355.488281 525.0625 360.753906 525.929688 365.882812 C 530.820312 394.835938 543.519531 422.585938 562.480469 445.742188 C 564.304688 447.972656 566.640625 450.234375 569.183594 451.894531 C 569.1875 451.898438 569.1875 451.898438 569.1875 451.898438 C 584.953125 499.578125 609.34375 542.226562 638.546875 571.207031 C 663.007812 595.527344 690.878906 610.222656 719.933594 610.222656 C 748.949219 610.222656 776.820312 595.527344 801.324219 571.242188 C 830.558594 542.265625 854.945312 499.59375 870.707031 451.890625 C 873.246094 450.226562 875.578125 447.96875 877.402344 445.742188 C 896.363281 422.585938 909.0625 394.835938 913.957031 365.882812 C 914.824219 360.753906 915.445312 355.488281 914.375 350.398438 " fill-opacity="1" fill-rule="nonzero"/><path fill="#7a2d18" d="M 529.347656 250.507812 C 528.078125 250.167969 530.417969 234.320312 542.683594 211.671875 C 548.972656 200.511719 558.058594 187.925781 570.460938 176.128906 C 582.769531 164.242188 598.582031 153.617188 616.410156 145.375 C 634.246094 137.085938 652.363281 132.179688 668.925781 129.144531 C 685.539062 126.253906 700.671875 125.175781 713.339844 125.238281 C 738.714844 125.296875 754.121094 129.039062 753.875 130.6875 C 753.675781 132.421875 738.28125 131.824219 713.71875 133.972656 C 689.316406 136.1875 655.25 141.171875 621.585938 156.605469 C 604.855469 164.351562 590.007812 173.921875 578.148438 184.542969 C 566.203125 195.070312 557.015625 206.261719 550.117188 216.269531 C 536.632812 236.550781 531.296875 251.214844 529.347656 250.507812 " fill-opacity="1" fill-rule="nonzero"/><path fill="#8e4028" d="M 744.476562 322.378906 C 747.480469 329.261719 754.722656 333.859375 761.621094 335.0625 C 768.511719 336.269531 775.550781 335.285156 782.53125 335.089844 C 803.933594 334.488281 825.457031 341.554688 843.007812 354.941406 C 830.765625 339.011719 813.378906 327.96875 794.507812 325.1875 C 778.550781 322.828125 760.113281 326.574219 744.476562 322.378906 " fill-opacity="1" fill-rule="nonzero"/><path fill="#7a2d18" d="M 831.199219 369.4375 C 804.929688 356.363281 773.15625 357.191406 750.691406 377.902344 C 748.007812 380.378906 752.023438 384.378906 754.699219 381.910156 C 761.722656 375.433594 769.78125 371.152344 778.289062 368.742188 C 778.042969 369.804688 777.898438 370.914062 777.898438 372.058594 C 777.898438 379.117188 782.960938 384.839844 789.230469 384.839844 C 795.476562 384.839844 800.539062 379.117188 800.539062 372.058594 C 800.539062 370.054688 800.09375 368.179688 799.367188 366.492188 C 809.273438 367.070312 819.195312 369.777344 828.34375 374.332031 C 831.597656 375.949219 834.472656 371.0625 831.199219 369.4375 " fill-opacity="1" fill-rule="nonzero"/><path fill="#8e4028" d="M 695.269531 322.378906 C 692.265625 329.261719 685.019531 333.859375 678.128906 335.0625 C 671.230469 336.269531 664.191406 335.285156 657.210938 335.089844 C 635.808594 334.488281 614.285156 341.554688 596.734375 354.941406 C 608.980469 339.011719 626.363281 327.96875 645.234375 325.1875 C 661.191406 322.828125 679.628906 326.574219 695.269531 322.378906 " fill-opacity="1" fill-rule="nonzero"/><path fill="#7a2d18" d="M 689.050781 377.902344 C 666.585938 357.1875 634.816406 356.359375 608.542969 369.4375 C 605.277344 371.0625 608.144531 375.953125 611.402344 374.332031 C 620.550781 369.777344 630.46875 367.070312 640.378906 366.492188 C 639.652344 368.179688 639.207031 370.054688 639.207031 372.058594 C 639.207031 379.117188 644.269531 384.839844 650.515625 384.839844 C 656.78125 384.839844 661.847656 379.117188 661.847656 372.058594 C 661.847656 370.914062 661.703125 369.804688 661.453125 368.742188 C 669.960938 371.152344 678.019531 375.433594 685.046875 381.910156 C 687.722656 384.378906 691.738281 380.378906 689.050781 377.902344 " fill-opacity="1" fill-rule="nonzero"/><path fill="#d0685c" d="M 741.269531 467.6875 C 732.265625 468.464844 719.859375 468.675781 719.859375 468.675781 C 719.859375 468.675781 707.46875 468.464844 698.46875 467.6875 C 697.433594 467.597656 697.085938 469.03125 698.050781 469.433594 L 716.148438 476.988281 C 718.523438 477.980469 721.199219 477.984375 723.574219 476.988281 L 741.691406 469.433594 C 742.648438 469.035156 742.304688 467.597656 741.269531 467.6875 " fill-opacity="1" fill-rule="nonzero"/><path fill="#d0685c" d="M 765.882812 513.609375 C 754.027344 512.335938 719.863281 513.609375 719.863281 513.609375 C 719.863281 513.609375 685.71875 512.335938 673.839844 513.609375 C 673.839844 513.609375 708.726562 500.828125 719.863281 507.230469 C 731.015625 500.828125 765.882812 513.609375 765.882812 513.609375 " fill-opacity="1" fill-rule="nonzero"/><path fill="#d0685c" d="M 738.050781 525.402344 C 738.050781 525.402344 737.238281 526.339844 735.675781 527.585938 C 726.472656 534.933594 713.230469 534.9375 704.042969 527.566406 C 702.496094 526.328125 701.695312 525.402344 701.695312 525.402344 L 738.050781 525.402344 " fill-opacity="1" fill-rule="nonzero"/><path fill="#d0685c" d="M 882.3125 401.753906 C 884.894531 386.832031 888.570312 368.898438 898.253906 356.90625 C 900.476562 354.152344 896.570312 350.199219 894.324219 352.984375 C 883.9375 365.847656 879.730469 384.269531 876.957031 400.277344 C 876.351562 403.773438 881.703125 405.273438 882.3125 401.753906 " fill-opacity="1" fill-rule="nonzero"/><path fill="#d0685c" d="M 557.460938 401.753906 C 554.878906 386.832031 551.203125 368.898438 541.519531 356.90625 C 539.292969 354.152344 543.199219 350.199219 545.445312 352.984375 C 555.835938 365.847656 560.042969 384.269531 562.8125 400.277344 C 563.421875 403.773438 558.070312 405.273438 557.460938 401.753906 " fill-opacity="1" fill-rule="nonzero"/><path fill="#8e4028" d="M 851.503906 307.90625 C 868.125 348.628906 870.082031 382.015625 869.9375 396.96875 C 872.710938 356.472656 888.921875 338.707031 888.921875 338.707031 C 897.582031 294.804688 851.503906 307.90625 851.503906 307.90625 " fill-opacity="1" fill-rule="nonzero"/><path fill="#8e4028" d="M 547.785156 339.519531 C 547.785156 339.519531 564.007812 356.472656 566.785156 396.96875 C 566.636719 382.015625 570.566406 330.117188 587.183594 289.398438 C 587.183594 289.398438 539.125 295.617188 547.785156 339.519531 " fill-opacity="1" fill-rule="nonzero"/><path fill="#c96a50" d="M 721.003906 83.300781 C 713.230469 81.34375 598.234375 54.761719 516.070312 163.8125 C 523.398438 149.523438 531.984375 135.832031 541.867188 122.949219 C 596.238281 58.539062 667.851562 64.796875 721.003906 83.300781 " fill-opacity="1" fill-rule="nonzero"/><path fill="#7a2d18" d="M 707.246094 240.597656 C 707.976562 242.128906 700.210938 247.503906 686.847656 254.367188 C 673.53125 261.273438 654.574219 269.65625 633.675781 278.378906 C 613.152344 286.925781 596.132812 297.277344 585.492188 306.835938 C 574.695312 316.226562 569.636719 323.960938 567.960938 323.058594 C 566.597656 322.464844 569.058594 312.742188 579.253906 300.707031 C 589.230469 288.566406 607.324219 275.917969 628.859375 266.988281 C 650 258.164062 669.296875 251.140625 683.429688 246.316406 C 697.570312 241.558594 706.503906 239.046875 707.246094 240.597656 " fill-opacity="1" fill-rule="nonzero"/></svg>