<svg xmlns="http://www.w3.org/2000/svg" xmlns:xlink="http://www.w3.org/1999/xlink" width="1920" zoomAndPan="magnify" viewBox="0 0 1440 809.999993" height="1080" preserveAspectRatio="xMidYMid meet" version="1.0"><defs><clipPath id="f430c15d99"><path d="M 465.054688 79.84375 L 974.550781 79.84375 L 974.550781 676 L 465.054688 676 Z M 465.054688 79.84375 " clip-rule="nonzero"/></clipPath><clipPath id="888f337262"><path d="M 601.664062 477.332031 L 838 477.332031 L 838 753.457031 L 601.664062 753.457031 Z M 601.664062 477.332031 " clip-rule="nonzero"/></clipPath></defs><g clip-path="url(#f430c15d99)"><path fill="#8e4028" d="M 940.121094 637.203125 C 912.839844 647.03125 884.191406 655.113281 854.511719 661.246094 C 857.367188 624.550781 858.207031 577.21875 855.347656 536.558594 C 855.347656 536.558594 854.09375 617.234375 806.390625 669.398438 C 777.050781 673.25 746.878906 675.269531 716.09375 675.269531 C 695.976562 675.269531 672.582031 672.792969 648.238281 668.867188 C 598.402344 643.714844 555.007812 596.691406 576.34375 509.046875 C 575.046875 512.441406 548.835938 583.585938 565.066406 651.492188 C 542.089844 645.851562 520.640625 639.90625 502.734375 634.648438 C 479.914062 627.980469 464.976562 607.054688 465.054688 584.308594 C 484.140625 531.796875 496.144531 476.730469 500.449219 421.019531 C 504.449219 369.460938 501.972656 317.40625 508.679688 266.117188 C 511.953125 240.960938 517.746094 215.625 527.15625 192.03125 C 527.195312 191.996094 527.234375 191.917969 527.273438 191.804688 C 537.023438 167.378906 550.625 144.855469 569.292969 126.375 C 596.804688 99.203125 634.371094 82.476562 672.925781 80.191406 C 701.726562 78.515625 732.4375 82.855469 758.839844 95.050781 C 758.878906 95.050781 758.878906 95.050781 758.917969 95.050781 C 765.890625 98.292969 772.59375 102.0625 778.84375 106.410156 C 779.304688 106.710938 779.757812 107.054688 780.214844 107.398438 C 781.355469 108.195312 782.234375 108.847656 782.84375 109.34375 C 783.109375 109.53125 783.378906 109.722656 783.609375 109.910156 C 783.757812 110.027344 783.910156 110.140625 784.0625 110.257812 C 767.71875 164.558594 875.921875 154.691406 875.921875 154.691406 C 875.921875 154.691406 876.1875 154.84375 876.722656 155.109375 C 883.886719 159.339844 938.0625 194.964844 939.246094 309.289062 C 939.132812 312.949219 939.09375 316.605469 939.207031 320.226562 L 939.207031 320.265625 C 939.28125 321.941406 939.359375 323.578125 939.472656 325.21875 C 944.003906 390.726562 968.277344 517.773438 974.335938 582.933594 C 976.503906 606.714844 962.597656 629.121094 940.121094 637.203125 " fill-opacity="1" fill-rule="nonzero"/></g><path fill="#7a2d18" d="M 894.839844 615.632812 C 894.839844 615.632812 901.277344 562.320312 880.167969 525.433594 C 880.167969 525.433594 881.882812 597.722656 866.183594 659.339844 L 866.183594 659.378906 C 863.289062 660.027344 860.394531 660.636719 857.460938 661.246094 C 860.316406 624.550781 861.160156 577.21875 858.300781 536.558594 C 858.300781 536.558594 857.042969 617.234375 809.339844 669.398438 C 780.003906 673.25 749.828125 675.269531 719.042969 675.269531 C 698.925781 675.269531 675.535156 672.792969 651.1875 668.867188 C 601.355469 643.714844 557.960938 596.691406 579.296875 509.046875 C 578 512.441406 551.785156 583.585938 568.015625 651.492188 C 565.121094 650.769531 562.304688 650.078125 559.484375 649.359375 L 558.910156 649.207031 L 547.671875 646.308594 C 547.671875 646.308594 520.128906 516.171875 547.671875 401.851562 C 547.671875 401.851562 743.695312 488.925781 908.511719 370.605469 C 908.511719 370.605469 913.46875 529.28125 894.839844 615.632812 " fill-opacity="1" fill-rule="nonzero"/><g clip-path="url(#888f337262)"><path fill="#fab093" d="M 601.679688 753.457031 C 643.789062 692.371094 645.28125 625.261719 638.070312 577.171875 C 632.140625 537.695312 620.332031 511.019531 620.332031 511.019531 L 719.71875 477.789062 L 819.058594 511.019531 C 819.058594 511.019531 798.335938 557.8125 798.007812 619.203125 C 797.800781 660.589844 806.832031 708.640625 837.707031 753.457031 L 601.679688 753.457031 " fill-opacity="1" fill-rule="nonzero"/></g><path fill="#d0685c" d="M 819.058594 511.019531 C 819.058594 511.019531 798.335938 557.8125 798.007812 619.203125 C 780.886719 627.929688 762.941406 632.769531 744.582031 632.769531 C 705.832031 632.769531 668.90625 611.277344 638.070312 577.171875 C 632.140625 537.695312 620.332031 511.019531 620.332031 511.019531 L 719.71875 477.789062 L 819.058594 511.019531 " fill-opacity="1" fill-rule="nonzero"/><path fill="#fab093" d="M 919.394531 353.300781 C 914.363281 383.105469 901.296875 411.683594 881.789062 435.5 C 879.921875 437.75 877.558594 440.074219 874.96875 441.785156 C 874.96875 441.824219 874.96875 441.824219 874.96875 441.824219 C 858.738281 490.945312 833.628906 534.882812 803.53125 564.71875 C 778.308594 589.71875 749.621094 604.847656 719.753906 604.847656 C 689.84375 604.847656 661.152344 589.71875 635.96875 564.679688 C 605.910156 534.84375 580.800781 490.984375 564.570312 441.902344 C 561.941406 440.1875 559.503906 437.824219 557.597656 435.5 C 538.09375 411.683594 525.019531 383.105469 519.996094 353.300781 C 519.078125 348.007812 518.433594 342.59375 519.535156 337.375 C 520.640625 332.117188 523.726562 327.046875 528.679688 324.570312 C 533.289062 322.246094 539.234375 322.585938 543.578125 325.332031 C 543.996094 325.597656 544.378906 325.867188 544.71875 326.171875 L 544.757812 326.171875 C 551.765625 329.5625 556.835938 335.8125 560.644531 342.707031 C 555.390625 331.582031 554.664062 319.238281 557.253906 306.929688 C 560.113281 293.246094 568.152344 280.710938 579.390625 272.4375 C 570.207031 271.601562 560.835938 273.394531 552.570312 277.507812 C 563.082031 253.578125 584.917969 236.847656 605.871094 221.222656 C 598.101562 219.890625 590.363281 218.558594 582.59375 217.222656 C 580.574219 216.878906 578.097656 216.042969 577.867188 214.023438 C 577.753906 212.957031 578.402344 211.925781 578.972656 211.011719 C 589.792969 194.777344 603.164062 180.183594 618.441406 167.988281 C 609.792969 163.566406 599.355469 166.539062 590.289062 170.046875 C 590.515625 169.78125 590.746094 169.550781 590.976562 169.320312 C 630.0625 129.234375 684.203125 107.398438 740.171875 109 C 763.757812 109.683594 784.0625 110.257812 784.0625 110.257812 L 784.140625 110.292969 C 835.308594 119.25 874.550781 153.472656 875.921875 154.691406 C 875.921875 154.691406 875.921875 154.726562 875.960938 154.726562 C 884.265625 170.691406 894.78125 191.160156 891.125 208.839844 C 886.476562 208.722656 881.828125 208.800781 877.214844 208.992188 C 876.304688 209.03125 875.351562 209.066406 874.625 209.5625 C 873.214844 210.515625 873.140625 212.652344 873.941406 214.175781 C 874.738281 215.660156 876.148438 216.6875 877.445312 217.792969 C 882.707031 222.367188 885.941406 229.113281 886.246094 236.085938 C 879.046875 235.363281 871.804688 235.476562 864.644531 236.429688 C 873.789062 252.964844 887.273438 268.171875 889.21875 286.957031 C 882.476562 282.425781 874.929688 279.03125 867.046875 277.011719 C 870.703125 285.207031 877.75 291.53125 881.144531 299.835938 C 884.570312 308.261719 883.847656 317.789062 883.046875 326.859375 C 881.941406 339.128906 881.519531 350.902344 880.457031 363.175781 C 882.476562 351.054688 885.863281 342.480469 889.410156 336.496094 C 895.507812 326.171875 902.019531 323.390625 902.78125 323.121094 C 902.820312 323.082031 902.855469 323.121094 902.855469 323.121094 C 905.5625 322.894531 908.308594 323.351562 910.707031 324.570312 C 915.65625 327.046875 918.746094 332.117188 919.851562 337.375 C 920.957031 342.59375 920.308594 348.007812 919.394531 353.300781 " fill-opacity="1" fill-rule="nonzero"/><path fill="#8e4028" d="M 744.992188 308.511719 C 748.082031 315.601562 755.539062 320.328125 762.636719 321.570312 C 769.734375 322.8125 776.976562 321.800781 784.164062 321.597656 C 806.195312 320.980469 828.355469 328.253906 846.421875 342.039062 C 833.816406 325.636719 815.917969 314.269531 796.492188 311.40625 C 780.066406 308.980469 761.089844 312.828125 744.992188 308.511719 " fill-opacity="1" fill-rule="nonzero"/><path fill="#7a2d18" d="M 834.265625 356.960938 C 807.21875 343.496094 774.511719 344.351562 751.390625 365.675781 C 748.625 368.222656 752.757812 372.34375 755.511719 369.800781 C 762.742188 363.128906 771.039062 358.722656 779.796875 356.242188 C 779.542969 357.335938 779.394531 358.480469 779.394531 359.660156 C 779.394531 366.921875 784.605469 372.8125 791.058594 372.8125 C 797.488281 372.8125 802.699219 366.921875 802.699219 359.660156 C 802.699219 357.59375 802.242188 355.667969 801.492188 353.929688 C 811.695312 354.519531 821.90625 357.308594 831.324219 361.996094 C 834.671875 363.664062 837.628906 358.632812 834.265625 356.960938 " fill-opacity="1" fill-rule="nonzero"/><path fill="#8e4028" d="M 694.335938 308.511719 C 691.242188 315.601562 683.789062 320.328125 676.6875 321.570312 C 669.589844 322.8125 662.347656 321.800781 655.160156 321.597656 C 633.128906 320.980469 610.972656 328.253906 592.90625 342.039062 C 605.507812 325.636719 623.402344 314.269531 642.835938 311.40625 C 659.261719 308.980469 678.234375 312.828125 694.335938 308.511719 " fill-opacity="1" fill-rule="nonzero"/><path fill="#7a2d18" d="M 687.933594 365.675781 C 664.808594 344.34375 632.105469 343.496094 605.058594 356.960938 C 601.699219 358.628906 604.648438 363.664062 608.003906 361.996094 C 617.421875 357.308594 627.628906 354.519531 637.832031 353.929688 C 637.085938 355.667969 636.625 357.59375 636.625 359.660156 C 636.625 366.921875 641.839844 372.8125 648.265625 372.8125 C 654.71875 372.8125 659.929688 366.921875 659.929688 359.660156 C 659.929688 358.480469 659.78125 357.335938 659.527344 356.242188 C 668.285156 358.722656 676.578125 363.128906 683.8125 369.800781 C 686.566406 372.339844 690.703125 368.222656 687.933594 365.675781 " fill-opacity="1" fill-rule="nonzero"/><path fill="#d0685c" d="M 741.691406 458.101562 C 732.421875 458.902344 719.652344 459.121094 719.652344 459.121094 C 719.652344 459.121094 706.894531 458.902344 697.628906 458.101562 C 696.5625 458.007812 696.210938 459.488281 697.199219 459.902344 L 715.828125 467.679688 C 718.273438 468.699219 721.027344 468.699219 723.472656 467.679688 L 742.121094 459.902344 C 743.109375 459.488281 742.753906 458.007812 741.691406 458.101562 " fill-opacity="1" fill-rule="nonzero"/><path fill="#d0685c" d="M 767.027344 505.378906 C 754.820312 504.066406 719.652344 505.378906 719.652344 505.378906 C 719.652344 505.378906 684.503906 504.066406 672.273438 505.378906 C 672.273438 505.378906 708.191406 492.222656 719.652344 498.8125 C 731.132812 492.222656 767.027344 505.378906 767.027344 505.378906 " fill-opacity="1" fill-rule="nonzero"/><path fill="#d0685c" d="M 738.375 517.515625 C 738.375 517.515625 737.535156 518.480469 735.929688 519.761719 C 726.457031 527.332031 712.824219 527.335938 703.367188 519.75 C 701.78125 518.472656 700.949219 517.515625 700.949219 517.515625 L 738.375 517.515625 " fill-opacity="1" fill-rule="nonzero"/><path fill="#d0685c" d="M 886.878906 390.226562 C 889.535156 374.863281 893.320312 356.402344 903.289062 344.058594 C 905.578125 341.222656 901.558594 337.152344 899.246094 340.015625 C 888.550781 353.261719 884.21875 372.230469 881.367188 388.707031 C 880.746094 392.304688 886.25 393.851562 886.878906 390.226562 " fill-opacity="1" fill-rule="nonzero"/><path fill="#d0685c" d="M 552.476562 390.226562 C 549.816406 374.863281 546.03125 356.402344 536.066406 344.058594 C 533.777344 341.222656 537.792969 337.152344 540.109375 340.015625 C 550.804688 353.261719 555.132812 372.230469 557.988281 388.707031 C 558.609375 392.304688 553.101562 393.851562 552.476562 390.226562 " fill-opacity="1" fill-rule="nonzero"/><path fill="#c96a50" d="M 758.839844 95.050781 C 600.652344 57.058594 530.964844 184.792969 527.273438 191.804688 C 537.023438 167.378906 550.625 144.855469 569.292969 126.375 C 596.804688 99.203125 634.371094 82.476562 672.925781 80.191406 C 701.726562 78.515625 732.4375 82.855469 758.839844 95.050781 " fill-opacity="1" fill-rule="nonzero"/></svg>