<svg xmlns="http://www.w3.org/2000/svg" xmlns:xlink="http://www.w3.org/1999/xlink" width="1920" zoomAndPan="magnify" viewBox="0 0 1440 809.999993" height="1080" preserveAspectRatio="xMidYMid meet" version="1.0"><defs><clipPath id="c85d86d19f"><path d="M 477.535156 85.679688 L 961.859375 85.679688 L 961.859375 682 L 477.535156 682 Z M 477.535156 85.679688 " clip-rule="nonzero"/></clipPath><clipPath id="0c24eb0476"><path d="M 607.394531 493.324219 L 832 493.324219 L 832 755.765625 L 607.394531 755.765625 Z M 607.394531 493.324219 " clip-rule="nonzero"/></clipPath></defs><g clip-path="url(#c85d86d19f)"><path fill="#8e4028" d="M 929.128906 645.292969 C 903.199219 654.632812 875.960938 662.308594 847.75 668.140625 C 850.464844 633.265625 851.261719 588.289062 848.542969 549.648438 C 848.542969 549.648438 847.351562 626.3125 802.007812 675.890625 C 774.121094 679.546875 745.4375 681.464844 716.171875 681.464844 C 697.050781 681.464844 674.8125 679.113281 651.667969 675.382812 C 604.296875 651.480469 563.046875 606.792969 583.328125 523.503906 C 582.097656 526.726562 557.179688 594.335938 572.609375 658.871094 C 550.769531 653.511719 530.378906 647.859375 513.355469 642.863281 C 487.570312 635.332031 472.394531 608.675781 479.132812 582.675781 C 493.292969 527.777344 511 430.394531 491.554688 334.9375 L 491.515625 335.011719 C 491.410156 333.960938 491.300781 332.910156 491.226562 331.859375 C 486.589844 283.695312 494.234375 235.207031 513.574219 191.570312 C 518.679688 179.980469 524.621094 168.753906 531.394531 157.964844 C 531.429688 157.925781 531.464844 157.851562 531.5 157.816406 C 604.625 60.003906 694.660156 81.40625 748.550781 108.3125 C 748.769531 108.421875 748.878906 108.457031 748.878906 108.457031 C 775.96875 121.964844 793.859375 136.8125 795.8125 138.480469 C 795.925781 138.585938 795.996094 138.625 795.996094 138.625 C 801.425781 149.777344 809.105469 144.488281 809.105469 144.488281 C 809.175781 144.457031 809.25 144.417969 809.320312 144.34375 C 809.320312 144.34375 809.359375 144.34375 809.394531 144.34375 C 810.480469 144.238281 823.195312 142.789062 840.070312 144.601562 C 840.070312 144.601562 840.070312 144.601562 840.109375 144.601562 C 840.140625 144.601562 840.214844 144.632812 840.289062 144.632812 C 871.980469 148.003906 918.226562 162.707031 930.578125 218.039062 C 933.078125 229.808594 934.308594 241.796875 934.742188 253.242188 C 934.8125 254.90625 934.851562 256.535156 934.886719 258.164062 C 934.019531 270.007812 932.644531 289.238281 931.808594 301.117188 C 930.722656 308.175781 929.707031 315.238281 929.054688 322.300781 C 928.222656 331.132812 927.898438 339.972656 928.515625 348.808594 C 932.820312 411.058594 955.894531 531.796875 961.652344 593.722656 C 963.714844 616.316406 950.496094 637.613281 929.128906 645.292969 " fill-opacity="1" fill-rule="nonzero"/></g><path fill="#7a2d18" d="M 884.644531 624.792969 C 884.644531 624.792969 890.769531 574.128906 870.703125 539.078125 C 870.703125 539.078125 872.332031 607.773438 857.410156 666.332031 L 857.410156 666.367188 C 854.65625 666.980469 851.90625 667.558594 849.117188 668.140625 C 851.832031 633.265625 852.628906 588.289062 849.914062 549.648438 C 849.914062 549.648438 848.71875 626.3125 803.375 675.890625 C 775.484375 679.546875 746.800781 681.464844 717.539062 681.464844 C 698.417969 681.464844 676.175781 679.113281 653.035156 675.382812 C 605.664062 651.480469 564.414062 606.792969 584.695312 523.503906 C 583.464844 526.726562 558.546875 594.335938 573.972656 658.871094 C 571.222656 658.179688 568.542969 657.527344 565.859375 656.839844 L 565.320312 656.695312 L 554.636719 653.945312 C 554.636719 653.945312 528.449219 530.273438 554.636719 421.632812 C 554.636719 421.632812 740.972656 504.382812 897.648438 391.9375 C 897.648438 391.9375 902.355469 542.730469 884.644531 624.792969 " fill-opacity="1" fill-rule="nonzero"/><g clip-path="url(#0c24eb0476)"><path fill="#fab093" d="M 607.457031 755.765625 C 647.484375 697.714844 648.902344 633.945312 642.046875 588.242188 C 636.414062 550.726562 625.183594 525.378906 625.183594 525.378906 L 719.660156 493.796875 L 814.09375 525.378906 C 814.09375 525.378906 794.394531 569.847656 794.078125 628.1875 C 793.882812 667.515625 802.472656 713.179688 831.820312 755.765625 L 607.457031 755.765625 " fill-opacity="1" fill-rule="nonzero"/></g><path fill="#d0685c" d="M 814.09375 525.378906 C 814.09375 525.378906 794.394531 569.847656 794.078125 628.1875 C 777.808594 636.480469 760.75 641.078125 743.296875 641.078125 C 706.460938 641.078125 671.355469 620.65625 642.046875 588.242188 C 636.414062 550.726562 625.183594 525.378906 625.183594 525.378906 L 719.660156 493.796875 L 814.09375 525.378906 " fill-opacity="1" fill-rule="nonzero"/><path fill="#fab093" d="M 909.902344 360.347656 C 908.859375 355.371094 905.925781 350.53125 901.199219 348.179688 C 896.816406 345.996094 891.179688 346.292969 887.0625 348.917969 C 886.710938 349.140625 886.382812 349.40625 886.054688 349.664062 C 886.0625 349.078125 886.101562 348.484375 886.105469 347.898438 C 886.101562 347.886719 886.09375 347.871094 886.089844 347.855469 C 865.449219 325.332031 834.265625 312.910156 817.96875 287.019531 C 809.324219 273.316406 797.734375 246.300781 793.820312 236.949219 C 793.207031 235.480469 794.484375 233.941406 796.054688 234.230469 C 798.933594 234.757812 801.796875 235.464844 804.636719 236.210938 C 805.613281 236.460938 806.484375 235.378906 805.941406 234.46875 C 803.007812 229.621094 799.855469 224.914062 796.488281 220.347656 C 800.183594 220.3125 803.660156 221.582031 807.0625 223.097656 C 808.042969 223.574219 809.054688 222.523438 808.585938 221.582031 L 801.125 206.371094 C 803.332031 206.332031 805.542969 206.296875 807.789062 206.261719 C 806.195312 203.289062 804.890625 200.175781 803.914062 196.917969 C 803.660156 196.046875 803.445312 194.960938 804.167969 194.347656 C 804.710938 193.878906 805.578125 193.984375 806.265625 194.203125 C 809.417969 195.179688 811.953125 197.460938 814.453125 199.597656 C 819.921875 204.234375 825.824219 208.363281 831.984375 211.984375 C 833.921875 213.125 836.261719 211.128906 835.34375 209.074219 C 831.757812 201.039062 826.367188 193.761719 819.703125 188.007812 C 814.417969 183.410156 808.296875 179.753906 803.371094 174.757812 C 802.535156 173.921875 801.703125 172.765625 802.101562 171.675781 C 807.132812 172.21875 811.945312 173.882812 816.613281 175.800781 C 817.890625 176.324219 819.054688 174.863281 818.257812 173.742188 L 812.351562 165.449219 C 811.703125 164.542969 811.082031 163.238281 811.808594 162.40625 C 812.242188 161.863281 813.039062 161.789062 813.726562 161.789062 C 815.757812 161.683594 817.78125 161.609375 819.773438 161.539062 C 817.457031 159.546875 815.9375 156.613281 815.683594 153.570312 C 815.644531 153.0625 815.644531 152.519531 816.007812 152.191406 C 816.410156 151.796875 817.023438 151.867188 817.53125 151.941406 C 819.339844 152.191406 821.152344 152.410156 822.964844 152.664062 C 818.652344 149.078125 813.800781 146.109375 808.585938 143.902344 C 808.078125 143.683594 807.574219 143.464844 807.027344 143.25 C 803.550781 141.875 799.492188 139.917969 795.980469 138.613281 C 791.527344 136.949219 787.363281 136.515625 782.617188 137.019531 C 785.984375 138.976562 789.390625 140.894531 792.757812 142.851562 C 793.265625 143.140625 793.84375 143.503906 793.988281 144.046875 C 794.277344 145.277344 792.648438 145.929688 791.417969 146.074219 L 773.492188 148.28125 C 772.1875 148.425781 771.824219 150.128906 772.984375 150.820312 C 777.730469 153.644531 783.742188 154.546875 788.125 158.023438 C 788.703125 158.496094 789.28125 159.074219 789.210938 159.796875 C 789.097656 160.707031 788.085938 161.175781 787.179688 161.425781 C 784.648438 162.152344 782.035156 162.730469 779.394531 163.09375 C 778.414062 163.203125 777.148438 163.636719 777.21875 164.617188 C 777.257812 165.230469 777.835938 165.628906 778.382812 165.957031 C 781.316406 167.730469 784.285156 169.539062 787.253906 171.351562 C 784.535156 172.871094 781.53125 173.886719 778.453125 174.320312 C 777.871094 174.429688 777.148438 174.539062 776.894531 175.117188 C 776.640625 175.734375 777.113281 176.386719 777.582031 176.894531 C 778.453125 177.90625 779.355469 178.886719 780.226562 179.863281 C 780.519531 180.152344 780.769531 180.476562 780.808594 180.878906 C 780.84375 181.742188 779.648438 182.070312 778.777344 182.070312 C 765.269531 182.105469 752.703125 173.273438 739.265625 174.25 C 738.070312 174.355469 736.511719 175.117188 736.949219 176.203125 C 737.09375 176.601562 737.457031 176.820312 737.78125 177.039062 C 746.074219 182.035156 757.046875 181.5625 764.6875 187.5 C 765.523438 188.191406 766.320312 189.457031 765.523438 190.183594 C 765.234375 190.433594 764.835938 190.472656 764.472656 190.507812 C 760.558594 190.980469 756.6875 191.449219 752.8125 191.921875 C 751.433594 192.066406 749.625 192.933594 750.09375 194.203125 C 750.203125 194.601562 750.527344 194.890625 750.855469 195.105469 C 756.105469 199.308594 762.84375 201.121094 768.566406 204.597656 C 769 204.886719 769.507812 205.210938 769.542969 205.71875 C 769.578125 206.441406 768.816406 206.878906 768.164062 207.09375 C 763.820312 208.46875 758.824219 207.3125 754.839844 209.449219 C 754.550781 209.59375 754.261719 209.773438 754.117188 210.066406 C 753.789062 210.789062 754.550781 211.511719 755.238281 211.910156 C 756.355469 212.617188 758.667969 214.09375 760.621094 215.457031 C 762.410156 216.707031 762.527344 219.304688 760.867188 220.722656 C 758.851562 222.433594 756.3125 224.566406 754.804688 225.710938 C 754.765625 225.742188 754.730469 225.742188 754.730469 225.742188 C 752.414062 227.554688 750.058594 229.292969 747.632812 230.960938 C 747.59375 230.992188 747.59375 230.992188 747.59375 230.992188 C 739.15625 236.824219 730.175781 241.96875 721.085938 246.460938 C 689.902344 261.921875 656.074219 271.914062 625.941406 289.375 C 597.757812 305.675781 562.332031 313.507812 553.664062 342.714844 C 553.550781 343.550781 553.367188 344.914062 553.253906 345.75 C 553.253906 347.078125 553.253906 348.375 553.289062 349.703125 C 553.289062 349.707031 553.292969 349.710938 553.292969 349.71875 C 552.941406 349.4375 552.59375 349.160156 552.214844 348.917969 C 548.097656 346.292969 542.464844 345.996094 538.082031 348.179688 C 533.351562 350.53125 530.417969 355.371094 529.375 360.347656 C 528.332031 365.324219 528.941406 370.476562 529.789062 375.492188 C 534.578125 403.820312 547.003906 430.96875 565.558594 453.625 C 567.359375 455.816406 569.660156 458.050781 572.167969 459.675781 C 587.597656 506.308594 611.460938 548.015625 640.03125 576.363281 C 663.96875 600.15625 691.242188 614.535156 719.671875 614.535156 C 748.066406 614.535156 775.339844 600.15625 799.3125 576.402344 C 827.925781 548.046875 851.792969 506.292969 867.222656 459.613281 C 867.222656 459.609375 867.222656 459.605469 867.222656 459.597656 C 869.6875 457.980469 871.949219 455.789062 873.71875 453.625 C 892.273438 430.96875 904.699219 403.820312 909.492188 375.492188 C 910.335938 370.476562 910.945312 365.324219 909.902344 360.347656 " fill-opacity="1" fill-rule="nonzero"/><path fill="#d0685c" d="M 733.300781 241.363281 C 723.597656 254.90625 711.066406 266.460938 696.71875 274.929688 C 668.472656 291.664062 634.246094 296.40625 606.652344 314.1875 C 590.242188 324.761719 576.734375 339.828125 567.96875 357.28125 C 565.292969 348.664062 563.226562 339.5 562.210938 330.230469 C 575.976562 310.785156 604.730469 303.070312 628.417969 289.382812 C 658.550781 271.929688 692.375 261.929688 723.558594 246.46875 C 726.820312 244.839844 730.082031 243.136719 733.300781 241.363281 " fill-opacity="1" fill-rule="nonzero"/><path fill="#7a2d18" d="M 537.449219 262.621094 C 536.207031 262.289062 538.496094 246.785156 550.496094 224.628906 C 556.652344 213.707031 565.542969 201.394531 577.679688 189.855469 C 589.71875 178.226562 605.195312 167.832031 622.640625 159.769531 C 640.09375 151.660156 657.828125 146.859375 674.027344 143.890625 C 690.285156 141.0625 705.09375 140.003906 717.492188 140.070312 C 742.320312 140.128906 757.394531 143.789062 757.15625 145.398438 C 756.960938 147.097656 741.898438 146.511719 717.863281 148.613281 C 693.984375 150.777344 660.644531 155.65625 627.707031 170.757812 C 611.332031 178.335938 596.808594 187.691406 585.203125 198.085938 C 573.511719 208.386719 564.523438 219.332031 557.773438 229.128906 C 544.578125 248.964844 539.355469 263.3125 537.449219 262.621094 " fill-opacity="1" fill-rule="nonzero"/><path fill="#8e4028" d="M 743.667969 332.933594 C 746.605469 339.667969 753.691406 344.164062 760.441406 345.34375 C 767.1875 346.519531 774.070312 345.5625 780.902344 345.367188 C 801.84375 344.78125 822.910156 351.695312 840.085938 364.792969 C 828.101562 349.207031 811.089844 338.40625 792.621094 335.679688 C 777.007812 333.378906 758.96875 337.035156 743.667969 332.933594 " fill-opacity="1" fill-rule="nonzero"/><path fill="#7a2d18" d="M 828.53125 378.972656 C 802.820312 366.183594 771.730469 366.988281 749.746094 387.253906 C 747.117188 389.675781 751.046875 393.589844 753.667969 391.171875 C 760.542969 384.839844 768.429688 380.652344 776.753906 378.292969 C 776.507812 379.328125 776.371094 380.417969 776.371094 381.535156 C 776.371094 388.441406 781.324219 394.039062 787.457031 394.039062 C 793.570312 394.039062 798.523438 388.441406 798.523438 381.535156 C 798.523438 379.574219 798.089844 377.742188 797.378906 376.09375 C 807.074219 376.65625 816.78125 379.304688 825.734375 383.757812 C 828.917969 385.34375 831.726562 380.566406 828.53125 378.972656 " fill-opacity="1" fill-rule="nonzero"/><path fill="#8e4028" d="M 695.511719 332.933594 C 692.574219 339.667969 685.488281 344.164062 678.738281 345.34375 C 671.992188 346.519531 665.105469 345.5625 658.277344 345.367188 C 637.332031 344.78125 616.269531 351.695312 599.09375 364.792969 C 611.074219 349.207031 628.085938 338.40625 646.554688 335.679688 C 662.171875 333.378906 680.210938 337.035156 695.511719 332.933594 " fill-opacity="1" fill-rule="nonzero"/><path fill="#7a2d18" d="M 689.429688 387.253906 C 667.445312 366.988281 636.363281 366.179688 610.648438 378.972656 C 607.453125 380.5625 610.261719 385.34375 613.445312 383.757812 C 622.398438 379.304688 632.105469 376.65625 641.804688 376.09375 C 641.089844 377.742188 640.65625 379.574219 640.65625 381.535156 C 640.65625 388.441406 645.609375 394.039062 651.722656 394.039062 C 657.855469 394.039062 662.808594 388.441406 662.808594 381.535156 C 662.808594 380.417969 662.667969 379.328125 662.421875 378.292969 C 670.75 380.652344 678.636719 384.839844 685.511719 391.171875 C 688.128906 393.589844 692.058594 389.679688 689.429688 387.253906 " fill-opacity="1" fill-rule="nonzero"/><path fill="#d0685c" d="M 740.527344 475.089844 C 731.714844 475.851562 719.578125 476.058594 719.578125 476.058594 C 719.578125 476.058594 707.453125 475.851562 698.644531 475.089844 C 697.632812 475.003906 697.296875 476.410156 698.234375 476.796875 L 715.945312 484.191406 C 718.269531 485.160156 720.886719 485.164062 723.210938 484.191406 L 740.9375 476.796875 C 741.875 476.410156 741.542969 475.003906 740.527344 475.089844 " fill-opacity="1" fill-rule="nonzero"/><path fill="#d0685c" d="M 764.613281 520.015625 C 753.011719 518.773438 719.578125 520.015625 719.578125 520.015625 C 719.578125 520.015625 686.167969 518.773438 674.542969 520.015625 C 674.542969 520.015625 708.6875 507.515625 719.578125 513.777344 C 730.492188 507.515625 764.613281 520.015625 764.613281 520.015625 " fill-opacity="1" fill-rule="nonzero"/><path fill="#d0685c" d="M 737.378906 531.550781 C 737.378906 531.550781 736.578125 532.46875 735.050781 533.6875 C 726.050781 540.878906 713.089844 540.882812 704.097656 533.671875 C 702.589844 532.460938 701.800781 531.550781 701.800781 531.550781 L 737.378906 531.550781 " fill-opacity="1" fill-rule="nonzero"/><path fill="#d0685c" d="M 878.542969 410.585938 C 881.066406 395.988281 884.664062 378.445312 894.140625 366.714844 C 896.316406 364.015625 892.5 360.148438 890.300781 362.871094 C 880.128906 375.460938 876.015625 393.484375 873.300781 409.140625 C 872.710938 412.558594 877.945312 414.03125 878.542969 410.585938 " fill-opacity="1" fill-rule="nonzero"/><path fill="#d0685c" d="M 560.660156 410.585938 C 558.132812 395.988281 554.539062 378.445312 545.066406 366.714844 C 542.886719 364.015625 546.707031 360.148438 548.90625 362.871094 C 559.074219 375.460938 563.191406 393.484375 565.902344 409.140625 C 566.492188 412.558594 561.261719 414.03125 560.660156 410.585938 " fill-opacity="1" fill-rule="nonzero"/><path fill="#8e4028" d="M 848.894531 318.777344 C 865.160156 358.609375 867.078125 391.273438 866.933594 405.90625 C 869.648438 366.289062 885.511719 348.90625 885.511719 348.90625 C 893.988281 305.957031 848.894531 318.777344 848.894531 318.777344 " fill-opacity="1" fill-rule="nonzero"/><path fill="#8e4028" d="M 551.695312 349.703125 C 551.695312 349.703125 567.570312 366.289062 570.289062 405.90625 C 570.140625 391.273438 573.988281 340.503906 590.25 300.671875 C 590.25 300.671875 543.222656 306.753906 551.695312 349.703125 " fill-opacity="1" fill-rule="nonzero"/><path fill="#c96a50" d="M 748.550781 108.3125 C 740.835938 105.269531 603.644531 53.628906 513.574219 191.570312 C 518.679688 179.980469 524.621094 168.753906 531.394531 157.964844 C 531.429688 157.925781 531.464844 157.851562 531.5 157.816406 C 604.625 60.003906 694.660156 81.40625 748.550781 108.3125 " fill-opacity="1" fill-rule="nonzero"/><path fill="#c96a50" d="M 934.742188 253.242188 C 915.65625 162.054688 844.707031 145.578125 840.289062 144.632812 C 871.980469 148.003906 918.226562 162.707031 930.578125 218.039062 C 933.078125 229.808594 934.308594 241.796875 934.742188 253.242188 " fill-opacity="1" fill-rule="nonzero"/><path fill="#7a2d18" d="M 570.460938 333.585938 C 570.09375 333.390625 570.121094 332.53125 570.523438 331.058594 C 570.898438 329.558594 571.707031 327.480469 573.046875 324.933594 C 575.695312 319.863281 580.433594 312.816406 587.945312 305.730469 C 595.371094 298.550781 605.457031 291.398438 617.371094 285.09375 C 629.300781 278.730469 643.046875 273.472656 657.25 268.320312 C 671.46875 263.175781 684.804688 258.398438 696.347656 253.027344 C 707.90625 247.722656 717.648438 241.769531 725.511719 236.152344 C 741.203125 224.882812 749.585938 215.84375 750.996094 217.023438 C 752.183594 217.914062 746.054688 229.117188 730.859375 242.832031 C 723.285156 249.628906 713.273438 256.835938 701.269531 263.027344 C 689.3125 269.289062 675.585938 274.550781 661.382812 279.691406 C 647.171875 284.847656 633.839844 289.605469 622.359375 295.0625 C 610.851562 300.488281 601.066406 306.386719 593.53125 312.214844 C 578.316406 323.800781 572.148438 334.539062 570.460938 333.585938 " fill-opacity="1" fill-rule="nonzero"/></svg>